<?xml version="1.0" encoding="utf-8"?>
<!-- Generator: Adobe Illustrator 24.1.2, SVG Export Plug-In . SVG Version: 6.00 Build 0)  -->
<svg version="1.1" id="Layer_1" xmlns="http://www.w3.org/2000/svg" xmlns:xlink="http://www.w3.org/1999/xlink" x="0px" y="0px"
	 viewBox="0 0 35.4 39.6" style="enable-background:new 0 0 35.4 39.6;" xml:space="preserve">
<style type="text/css">
	.st0{fill:#E6E6E6;}
	.st1{fill:#1A1A1A;}
</style>
<path class="st0" d="M35.4,0H0l3.1,35.4l14.6,4.2l14.6-4.2L35.4,0z"/>
<path class="st0" d="M17.7,3.1v33.2L29.4,33L32,3.1H17.7z"/>
<path class="st1" d="M17.7,20.8v-4.2h9l-0.7,12l-8.2,2.7V27l4.3-1.5l0.3-4.7H17.7L17.7,20.8z M27,12.5l0.3-4.2h-9.6v4.2H27z"/>
<path class="st1" d="M17.7,27v4.4l-8.2-2.7L9.1,23h4.2l0.2,2.6L17.7,27z M12.6,12.5h5.1V8.3H8.2L9,20.8h8.8v-4.2H13L12.6,12.5z"/>
</svg>
