<?xml version="1.0" encoding="utf-8"?>
<!-- Generator: Adobe Illustrator 24.1.2, SVG Export Plug-In . SVG Version: 6.00 Build 0)  -->
<svg version="1.1" id="Layer_1" xmlns="http://www.w3.org/2000/svg" xmlns:xlink="http://www.w3.org/1999/xlink" x="0px" y="0px"
	 viewBox="0 0 35.4 39.6" style="enable-background:new 0 0 35.4 39.6;" xml:space="preserve">
<style type="text/css">
	.st0{fill:#E6E6E6;}
	.st1{fill:#1A1A1A;}
</style>
<path class="st0" d="M35.4,0H0l3.1,35.4l14.6,4.2l14.6-4.2L35.4,0z"/>
<path class="st0" d="M17.7,3.1v33.2L29.4,33L32,3.1H17.7z"/>
<path class="st1" d="M27.2,8.3h-9.5v4.2h5.1l-0.3,4.2h-4.8v4.2h4.6L22,25.5L17.7,27v4.4l8.2-2.7l0.7-12L27.2,8.3z"/>
<path class="st1" d="M17.7,8.3v4.2H8.4L8.1,8.3H17.7z M12.9,16.7l0.2,4.2h4.6v-4.2H12.9z M13.3,22.9H9.2l0.3,5.7l8.2,2.7V27
	l-4.3-1.5L13.3,22.9z"/>
</svg>
