<?xml version="1.0" encoding="utf-8"?>
<!-- Generator: Adobe Illustrator 27.5.0, SVG Export Plug-In . SVG Version: 6.00 Build 0)  -->
<svg version="1.1" id="Layer_1" xmlns="http://www.w3.org/2000/svg" xmlns:xlink="http://www.w3.org/1999/xlink" x="0px" y="0px"
	 viewBox="0 0 37.5 37.5" style="enable-background:new 0 0 37.5 37.5;" xml:space="preserve">
<style type="text/css">
	.st0{fill:#E6E6E6;}
	.st1{fill:#1A1A1A;}
</style>
<path class="st0" d="M0,4.2C0,1.9,1.9,0,4.2,0h29.2c2.3,0,4.2,1.9,4.2,4.2v29.2c0,2.3-1.9,4.2-4.2,4.2H4.2c-2.3,0-4.2-1.9-4.2-4.2
	V4.2z"/>
<path class="st1" d="M3.1,3.1v31.2h31.2V3.1H3.1z"/>
<path class="st0" d="M15.8,22.9h-4.7l-0.9,3H7.3l4.9-14.4h2.5l4.9,14.4h-2.9L15.8,22.9z M11.8,20.5h3.3l-1.6-5.4L11.8,20.5z
	 M25.2,26c-0.8,0-1.4-0.1-2-0.4c-0.6-0.3-1.1-0.6-1.5-1.1c-0.4-0.5-0.7-1-1-1.6c-0.2-0.6-0.3-1.3-0.3-2v-0.4c0-0.8,0.1-1.6,0.3-2.2
	c0.2-0.7,0.5-1.3,0.9-1.7c0.4-0.5,0.9-0.9,1.4-1.1c0.6-0.3,1.2-0.4,1.9-0.4c0.7,0,1.3,0.1,1.9,0.4c0.5,0.3,1,0.6,1.3,1.1
	c0.4,0.5,0.6,1,0.8,1.7c0.2,0.6,0.3,1.4,0.3,2.2v1.2H23c0,0.3,0.1,0.7,0.3,0.9c0.1,0.3,0.3,0.5,0.5,0.7c0.2,0.2,0.4,0.4,0.7,0.5
	c0.3,0.1,0.6,0.2,0.9,0.2c0.5,0,0.9-0.1,1.3-0.3c0.4-0.2,0.7-0.5,1-0.9l1.3,1.6c-0.2,0.2-0.4,0.5-0.6,0.7c-0.2,0.2-0.5,0.4-0.8,0.6
	c-0.3,0.2-0.7,0.3-1.1,0.4C26.1,26,25.6,26,25.2,26z M24.9,17.3c-0.3,0-0.5,0.1-0.7,0.2c-0.2,0.1-0.4,0.3-0.5,0.5
	c-0.2,0.2-0.3,0.4-0.4,0.7c-0.1,0.3-0.2,0.6-0.2,0.9h3.6v-0.2c0-0.3,0-0.5-0.1-0.8c-0.1-0.2-0.2-0.5-0.3-0.6
	c-0.1-0.2-0.3-0.3-0.5-0.4C25.4,17.3,25.2,17.3,24.9,17.3z"/>
</svg>
