<?xml version="1.0" encoding="utf-8"?>
<!-- Generator: Adobe Illustrator 27.5.0, SVG Export Plug-In . SVG Version: 6.00 Build 0)  -->
<svg version="1.1" id="Layer_1" xmlns="http://www.w3.org/2000/svg" xmlns:xlink="http://www.w3.org/1999/xlink" x="0px" y="0px"
	 viewBox="0 0 37.5 37.5" style="enable-background:new 0 0 37.5 37.5;" xml:space="preserve">
<style type="text/css">
	.st0{fill:#E6E6E6;}
	.st1{fill:#1A1A1A;}
</style>
<path class="st0" d="M0,4.2C0,1.9,1.9,0,4.2,0h29.2c2.3,0,4.2,1.9,4.2,4.2v29.2c0,2.3-1.9,4.2-4.2,4.2H4.2c-2.3,0-4.2-1.9-4.2-4.2
	V4.2z"/>
<path class="st1" d="M14.6,13.7h-2.1v4.6h2.1c0.6,0,1-0.2,1.3-0.6c0.3-0.4,0.5-0.9,0.5-1.6c0-0.7-0.2-1.3-0.5-1.8
	C15.6,14,15.1,13.7,14.6,13.7z"/>
<path class="st1" d="M3.1,3.1v31.2h31.2V3.1H3.1z M18.1,19.6c-0.9,0.8-2.1,1.3-3.6,1.3h-2V26h-3V11.2h5c1.5,0,2.6,0.5,3.5,1.4
	c0.9,0.9,1.3,2.1,1.3,3.5C19.4,17.6,19,18.7,18.1,19.6z M27.8,25.4c-0.7,0.6-1.7,0.9-2.9,0.9c-0.8,0-1.5-0.2-2.1-0.5
	c-0.6-0.3-1.1-0.8-1.5-1.3c-0.3-0.6-0.5-1.2-0.5-1.8h2.7c0,0.5,0.1,0.9,0.4,1.1c0.2,0.3,0.6,0.4,1.1,0.4c0.8,0,1.2-0.3,1.2-1
	c0-0.2-0.1-0.5-0.4-0.7c-0.2-0.2-0.8-0.5-1.6-0.8c-1.2-0.5-2-1-2.4-1.5s-0.7-1.2-0.7-1.9c0-1,0.3-1.8,1-2.4c0.7-0.6,1.6-0.9,2.8-0.9
	c1.2,0,2.2,0.3,2.9,0.9c0.7,0.6,1.1,1.5,1.1,2.5H26c0-0.9-0.4-1.3-1.1-1.3c-0.3,0-0.6,0.1-0.8,0.3c-0.2,0.2-0.3,0.5-0.3,0.8
	c0,0.2,0.1,0.5,0.3,0.6c0.2,0.2,0.7,0.5,1.5,0.8c1.2,0.4,2,0.9,2.5,1.5c0.5,0.5,0.7,1.2,0.7,2.1C28.9,24,28.5,24.8,27.8,25.4z"/>
</svg>
