<?xml version="1.0" encoding="utf-8"?>
<!-- Generator: Adobe Illustrator 27.5.0, SVG Export Plug-In . SVG Version: 6.00 Build 0)  -->
<svg version="1.1" id="Capa_1" xmlns="http://www.w3.org/2000/svg" xmlns:xlink="http://www.w3.org/1999/xlink" x="0px" y="0px"
	 viewBox="0 0 800 615.5" style="enable-background:new 0 0 800 615.5;" xml:space="preserve">
<path fill="white" d="M774.8,0H25.2C11.3,0,0,11.3,0,25.2v499.8c0,13.9,11.3,25.2,25.2,25.2h442.3v48.6c0,5.8,3,11.2,7.9,14.2
	c2.7,1.7,5.8,2.5,8.9,2.5c2.5,0,5-0.6,7.4-1.7l47.6-23.2l47.6,23.2c5.2,2.5,11.3,2.2,16.2-0.8c4.9-3.1,7.9-8.4,7.9-14.2v-48.6h163.9
	c13.9,0,25.2-11.3,25.2-25.2V25.2C800,11.3,788.7,0,774.8,0z M466.5,361.7c0-40,32.6-72.6,72.6-72.6c40.1,0,72.6,32.6,72.6,72.6
	c0,40.1-32.6,72.6-72.6,72.6C499.1,434.4,466.5,401.8,466.5,361.7z M610.9,439.9c21.1-19.4,34.4-47.3,34.4-78.2
	c0-58.5-47.6-106.2-106.2-106.2c-58.5,0-106.2,47.6-106.2,106.2c0,30.9,13.3,58.8,34.4,78.2v11.2H171.2
	c-6.9-36.5-35.7-65.4-72.2-72.2V171.2c36.5-6.9,65.4-35.7,72.2-72.2h457.6c6.9,36.5,35.7,65.4,72.2,72.2v207.7
	c-36.5,6.9-65.4,35.7-72.2,72.2h-17.9V439.9z M577.4,571.9l-30.8-15.1c-4.6-2.3-10.1-2.3-14.7,0L501,571.9V460.8
	c11.9,4.6,24.7,7.1,38.2,7.1c13.5,0,26.3-2.5,38.2-7.1L577.4,571.9L577.4,571.9z M749.7,499.8H610.9v-15.1H644
	c9.3,0,16.8-7.5,16.8-16.8c0-31.4,25.6-57,57-57c9.3,0,16.8-7.5,16.8-16.8V156c0-9.3-7.5-16.8-16.8-16.8c-31.4,0-57-25.6-57-57
	c0-9.3-7.5-16.8-16.8-16.8H156c-9.3,0-16.8,7.5-16.8,16.8c0,31.4-25.6,57-57,57c-9.3,0-16.8,7.5-16.8,16.8v238.2
	c0,9.3,7.5,16.8,16.8,16.8c31.4,0,57,25.6,57,57c0,9.3,7.5,16.8,16.8,16.8h311.4v15.1H50.3V50.3h699.4V499.8z"/>
</svg>
