<svg width="394" height="233" viewBox="0 0 394 233" fill="none" xmlns="http://www.w3.org/2000/svg">
<g clip-path="url(#clip0_1519_627)">
<path d="M0.131163 0.372211C3.93574 11.3548 8.83884 21.9267 14.7662 31.9278C20.6685 41.9087 27.6823 51.2899 36.0905 59.2512C40.2747 63.2453 44.8676 66.7894 49.7936 69.8249C54.7176 72.8432 60.0381 75.1631 65.6022 76.7177C71.1633 78.2507 76.9051 79.0319 82.6741 79.0406C85.5407 79.0873 88.4021 78.7794 91.1928 78.1239C91.8768 77.9498 92.5498 77.7358 93.2086 77.4829C93.5262 77.345 93.8989 77.2416 94.1751 77.0762L95.0932 76.5937C96.2761 75.9115 97.2739 74.9507 97.9995 73.7952C98.6899 72.6113 99.0919 71.282 99.1731 69.9145C99.2423 68.5084 99.1427 67.0991 98.8762 65.7167C98.2979 62.9 97.4471 60.146 96.3358 57.4935C94.182 52.1171 91.5725 46.9129 89.2185 41.5847C88.0311 38.9241 86.899 36.2359 85.9118 33.4856C84.8937 30.7415 84.1176 27.9139 83.5923 25.0349C83.0228 22.14 83.0228 19.1621 83.5923 16.2672C84.2203 13.3558 85.7061 10.6985 87.8585 8.63678C90.0431 6.66077 92.5821 5.1149 95.3417 4.08058C98.084 3.02457 100.923 2.23962 103.819 1.73701C104.509 1.57847 105.255 1.46818 105.973 1.3579C106.691 1.24761 107.416 1.12354 108.14 1.03393C109.59 0.882289 111.04 0.668613 112.496 0.585899C113.953 0.503184 115.403 0.351535 116.859 0.310177L119.048 0.213678L121.229 0.179211L129.969 0C132.889 0.055143 135.809 0.0413568 138.715 0.268822C141.635 0.386001 144.535 0.751327 147.434 1.04772L151.769 1.68875L152.853 1.84729L153.93 2.05408L156.077 2.46765C161.815 3.57838 167.465 5.10107 172.983 7.02385C178.502 8.95195 183.89 11.2313 189.116 13.8478C199.516 19.1672 209.334 25.5497 218.414 32.8928C227.568 40.1441 236.107 48.1123 244.467 56.2114C252.827 64.3106 260.952 72.6578 269.437 80.5916C277.921 88.5253 286.778 96.0867 296.601 102.221C301.492 105.312 306.69 107.888 312.113 109.907C317.538 111.913 323.199 113.215 328.957 113.781C334.723 114.313 340.533 114.116 346.25 113.195C351.974 112.255 357.594 110.766 363.032 108.749C373.946 104.758 384.17 99.0576 393.903 92.6954L393.979 92.8057L390.334 95.2182L388.519 96.4245C387.904 96.8174 387.276 97.1896 386.655 97.5687L382.927 99.8502L379.116 101.994C374.015 104.848 368.707 107.321 363.239 109.39C357.77 111.472 352.113 113.023 346.346 114.022C340.575 115.006 334.702 115.258 328.867 114.773C323.02 114.252 317.264 112.982 311.74 110.996C306.223 108.996 300.928 106.432 295.938 103.345C290.953 100.276 286.182 96.8747 281.655 93.1642C277.113 89.4902 272.75 85.582 268.484 81.6324C251.467 65.7098 235.79 48.4225 217.62 33.9061C213.092 30.2804 208.416 26.8524 203.593 23.6219C198.778 20.386 193.776 17.4376 188.612 14.7921C183.447 12.157 178.119 9.85469 172.659 7.89923C167.191 5.94312 161.589 4.38132 155.898 3.22586L153.765 2.79162L152.701 2.57794L151.624 2.41251L147.324 1.72322C144.438 1.40615 141.553 1.03393 138.653 0.868499C135.754 0.620355 132.847 0.599677 129.941 0.523855L121.215 0.66861L119.006 0.709966L116.825 0.799576C115.375 0.840934 113.925 0.944324 112.476 1.05461C111.026 1.1649 109.583 1.34411 108.14 1.48886C107.45 1.57847 106.705 1.70254 105.987 1.80593C105.269 1.90932 104.551 2.01961 103.84 2.17125C101 2.66999 98.2177 3.45283 95.535 4.50794C92.8353 5.53798 90.3532 7.06476 88.2175 9.00899C86.1437 11.0097 84.7198 13.5865 84.1307 16.4051C83.5865 19.2347 83.6053 22.1436 84.186 24.966C84.73 27.8038 85.5247 30.5879 86.5607 33.2857C87.5686 36.0015 88.7284 38.6622 89.9364 41.2952C92.3526 46.5752 95.0173 51.7517 97.254 57.1489C98.4173 59.8529 99.3189 62.6619 99.9463 65.5375C100.239 67.0097 100.36 68.511 100.305 70.011C100.231 71.5603 99.783 73.0687 99.0005 74.4086C98.1817 75.7279 97.0509 76.8261 95.7076 77.6069L94.6928 78.1446C94.3541 78.3115 94.0061 78.4588 93.6504 78.5857C92.9518 78.8588 92.2371 79.089 91.5104 79.275C88.6273 79.9582 85.6717 80.2892 82.7087 80.2607C70.8729 80.3366 59.26 77.0469 49.2276 70.7761C44.2471 67.6807 39.6056 64.0721 35.3795 60.0094C26.9091 51.9172 19.992 42.3567 14.1587 32.2794C11.2531 27.2258 8.61474 22.0238 6.25441 16.6946C3.86305 11.3853 1.7749 5.94497 0 0.399788L0.131163 0.372211Z" fill="#664747"/>
<path d="M0.131164 7.31334C3.93574 18.2959 8.83885 28.8679 14.7662 38.8689C20.6685 48.8498 27.6823 58.231 36.0905 66.1923C40.273 70.1864 44.8661 73.7283 49.7936 76.7591C54.7144 79.792 60.0353 82.1237 65.6022 83.6864C71.1633 85.2194 76.9051 86.0006 82.6741 86.0093C85.5404 86.0491 88.4009 85.7413 91.1929 85.0926C91.8768 84.9185 92.5498 84.7044 93.2086 84.4515C93.5262 84.3137 93.8989 84.2103 94.1751 84.0449L95.0932 83.5624C96.2761 82.8802 97.2739 81.9194 97.9995 80.7639C98.6899 79.58 99.0919 78.2507 99.1731 76.8832C99.2423 75.4771 99.1427 74.0678 98.8762 72.6854C98.2979 69.8687 97.4471 67.1147 96.3358 64.4622C94.182 59.0857 91.5725 53.8816 89.2185 48.5534C88.0311 45.8928 86.899 43.2046 85.9118 40.4543C84.8937 37.7102 84.1176 34.8826 83.5923 32.0036C83.0228 29.1087 83.0228 26.1308 83.5923 23.2359C84.2203 20.3245 85.7061 17.6672 87.8585 15.6055C90.0493 13.6308 92.5925 12.0852 95.3555 11.0493C98.0934 9.98776 100.928 9.19366 103.819 8.67813C104.509 8.51959 105.255 8.4093 105.973 8.29902C106.691 8.18873 107.416 8.06466 108.14 7.97505C109.59 7.82341 111.04 7.60974 112.496 7.52013C113.953 7.43052 115.403 7.29266 116.859 7.24441L119.048 7.15481H121.229L129.969 6.97559C132.889 7.03073 135.809 7.01694 138.715 7.24441C141.635 7.36159 144.535 7.72691 147.434 8.02331L151.769 8.65745L152.853 8.82288L153.93 9.02277L156.077 9.44324C161.815 10.554 167.465 12.0767 172.983 13.9994C178.502 15.9275 183.89 18.2069 189.116 20.8234C199.514 26.1319 209.333 32.5028 218.414 39.8339C227.568 47.0852 236.107 55.0534 244.467 63.1525C252.827 71.2517 260.952 79.599 269.437 87.5327C277.921 95.4664 286.778 103.028 296.601 109.163C301.495 112.248 306.692 114.823 312.113 116.848C317.538 118.855 323.199 120.155 328.957 120.715C334.723 121.254 340.534 121.057 346.25 120.129C351.974 119.195 357.595 117.708 363.032 115.69C373.946 111.699 384.17 105.999 393.903 99.6297L393.979 99.7468L390.334 102.159L388.519 103.366C387.904 103.758 387.276 104.124 386.655 104.51L382.927 106.791L379.137 108.928C374.034 111.78 368.727 114.252 363.26 116.324C357.791 118.406 352.134 119.957 346.367 120.956C340.589 121.941 334.709 122.195 328.867 121.714C323.014 121.195 317.253 119.923 311.726 117.93C306.214 115.941 300.923 113.386 295.938 110.307C290.953 107.238 286.182 103.837 281.655 100.126C277.113 96.4521 272.75 92.5438 268.484 88.5942C251.467 72.6647 235.79 55.3843 217.62 40.8679C213.092 37.2422 208.416 33.8142 203.593 30.5837C198.778 27.3478 193.776 24.3994 188.612 21.7539C183.447 19.1188 178.119 16.8165 172.659 14.861C167.191 12.9049 161.59 11.3431 155.898 10.1877L153.765 9.75342L152.701 9.53974L151.625 9.37432L147.324 8.68503C144.438 8.36796 141.553 7.99574 138.653 7.83031C135.754 7.57527 132.847 7.56148 129.941 7.48566L121.215 7.60284H119.006L116.825 7.69245C115.375 7.73381 113.925 7.8372 112.476 7.94748C111.026 8.05777 109.583 8.23699 108.14 8.38174C107.45 8.47135 106.705 8.59541 105.987 8.69881C105.269 8.8022 104.551 8.91248 103.84 9.06413C100.998 9.57847 98.216 10.3775 95.535 11.4491C92.8353 12.4791 90.3532 14.0059 88.2175 15.9501C86.1437 17.9508 84.7198 20.5276 84.1307 23.3462C83.5865 26.1735 83.6053 29.0802 84.186 31.9002C84.7291 34.7405 85.5238 37.527 86.5607 40.2268C87.5686 42.9357 88.7284 45.5964 89.9364 48.2364C92.3526 53.5163 95.0173 58.6929 97.254 64.09C98.4173 66.794 99.3189 69.6031 99.9463 72.4786C100.239 73.9508 100.36 75.4521 100.305 76.9521C100.227 78.5049 99.7751 80.016 98.9867 81.3566C98.1659 82.6743 97.0356 83.7721 95.6938 84.555L94.679 85.0926C94.3477 85.2787 93.9887 85.3821 93.6366 85.5337C92.938 85.8068 92.2233 86.037 91.4966 86.223C88.6135 86.9062 85.6579 87.2372 82.6949 87.2087C70.8603 87.2759 59.2497 83.9869 49.2138 77.7241C44.2333 74.6288 39.5918 71.0201 35.3657 66.9574C26.8953 58.8583 19.9782 49.3048 14.1449 39.2274C11.2393 34.1739 8.60093 28.9718 6.2406 23.6426C3.85153 18.3323 1.76343 12.8922 -0.0138054 7.34781L0.131164 7.31334Z" fill="#664747"/>
<path d="M0.131163 14.2545C3.93574 25.2371 8.83884 35.809 14.7662 45.8101C20.6685 55.791 27.6823 65.1653 36.0905 73.1335C40.2795 77.1287 44.8796 80.6707 49.8143 83.7003C54.7354 86.7242 60.0567 89.0444 65.6229 90.5931C71.183 92.1317 76.9253 92.9153 82.6948 92.9229C85.5611 92.9627 88.4216 92.6549 91.2136 92.0062C91.8985 91.8329 92.5718 91.6165 93.2293 91.3583C93.5584 91.2422 93.881 91.1088 94.1958 90.9585L95.1139 90.476C96.2953 89.7918 97.2926 88.8314 98.0202 87.6775C98.7106 86.4936 99.1126 85.1643 99.1938 83.7968C99.263 82.3884 99.1633 80.9768 98.8969 79.5921C98.3166 76.7759 97.4659 74.0221 96.3565 71.3689C94.2027 65.9994 91.5932 60.7883 89.2392 55.467C88.0518 52.8064 86.9197 50.1113 85.9325 47.3679C84.9143 44.6215 84.1382 41.7915 83.613 38.9103C83.0435 36.0154 83.0435 33.0375 83.613 30.1426C84.2427 27.2338 85.7283 24.5791 87.8792 22.5191C90.0653 20.5434 92.6038 18.9955 95.3624 17.956C98.1001 16.9076 100.932 16.1228 103.819 15.6124C104.509 15.4539 105.255 15.3505 105.973 15.2402C106.691 15.1299 107.416 14.9989 108.14 14.9162C109.59 14.7646 111.04 14.5509 112.496 14.4613C113.953 14.3717 115.403 14.2338 116.859 14.1856L119.048 14.096H121.229L129.969 13.9167C132.889 13.965 135.809 13.9581 138.715 14.1856C141.635 14.2959 144.535 14.6681 147.434 14.9645L151.769 15.5986L152.853 15.7571L153.93 15.9639L156.077 16.3775C161.813 17.4948 167.463 19.0174 172.983 20.9337C178.501 22.8671 183.889 25.1487 189.116 27.7645C199.516 33.0705 209.334 39.4416 218.414 46.7751C227.483 54.1092 236.178 61.8918 244.467 70.0937C252.841 78.1928 260.952 86.5401 269.437 94.4738C277.921 102.408 286.778 109.969 296.601 116.104C301.495 119.189 306.692 121.764 312.113 123.789C317.538 125.796 323.199 127.096 328.957 127.656C334.723 128.195 340.534 127.998 346.25 127.07C351.974 126.136 357.595 124.65 363.032 122.631C373.946 118.633 384.17 112.94 393.903 106.571L393.979 106.688L390.334 109.101L388.539 110.307C387.925 110.707 387.297 111.072 386.676 111.458L382.948 113.739L379.137 115.876C374.034 118.73 368.727 121.205 363.26 123.279C357.79 125.358 352.133 126.909 346.367 127.911C340.588 128.892 334.708 129.14 328.867 128.649C323.014 128.135 317.252 126.865 311.726 124.871C306.212 122.867 300.921 120.296 295.938 117.2C290.955 114.128 286.183 110.727 281.655 107.019C277.113 103.345 272.75 99.4367 268.484 95.4871C251.467 79.5576 235.79 62.2703 217.62 47.7608C213.092 44.1351 208.416 40.7071 203.593 37.4766C198.78 34.2382 193.777 31.2897 188.612 28.6468C183.446 26.0147 178.117 23.7125 172.659 21.7539C167.191 19.8001 161.589 18.2406 155.898 17.0875L153.765 16.6532L152.701 16.4395L151.624 16.2741L147.324 15.5848C144.438 15.2609 141.553 14.8955 138.653 14.7301C135.754 14.4751 132.847 14.4544 129.941 14.3786L121.215 14.5302H119.034L116.852 14.6129C115.403 14.6543 113.953 14.7646 112.503 14.8749C111.054 14.9851 109.611 15.1644 108.168 15.3091C107.478 15.3918 106.732 15.5228 106.014 15.6262C105.296 15.7296 104.578 15.833 103.867 15.9915C101.015 16.5053 98.2233 17.3091 95.535 18.3902C92.8327 19.4149 90.3496 20.9423 88.2175 22.8913C86.1425 24.8883 84.7183 27.4633 84.1307 30.2804C83.5865 33.1101 83.6053 36.019 84.186 38.8414C84.7291 41.6794 85.5238 44.4636 86.5607 47.1611C87.5686 49.8769 88.7284 52.5376 89.9364 55.1775C92.3526 60.4575 95.0173 65.634 97.254 71.0311C98.4173 73.7352 99.3189 76.5442 99.9463 79.4198C100.239 80.892 100.36 82.3932 100.305 83.8933C100.25 85.4438 99.7992 86.9545 98.9945 88.2817C98.1897 89.6088 97.0582 90.7083 95.7076 91.4754L94.6928 92.0131C94.3615 92.1923 94.0025 92.3026 93.6504 92.4542C92.9529 92.7305 92.2381 92.9607 91.5104 93.1435C88.6282 93.8324 85.6722 94.1657 82.7087 94.1361C70.8741 94.2033 59.2635 90.9143 49.2276 84.6515C44.2454 81.5559 39.6037 77.9448 35.3795 73.8779C26.9091 65.8063 19.992 56.2528 14.1587 46.203C11.2531 41.1495 8.61474 35.9474 6.25441 30.6182C3.86534 25.308 1.77724 19.8678 0 14.3234L0.131163 14.2545Z" fill="#664747"/>
<path d="M0.131163 21.1957C3.93574 32.1783 8.83884 42.7502 14.7662 52.7513C20.6685 62.7322 27.6823 72.1065 36.0905 80.0747C40.2766 84.0646 44.8693 87.6061 49.7936 90.6415C54.7147 93.6654 60.036 95.9856 65.6022 97.5344C71.1623 99.0729 76.9045 99.8565 82.6741 99.8642C85.5404 99.9039 88.4009 99.5961 91.1928 98.9474C91.8778 98.7741 92.5511 98.5577 93.2086 98.2995C93.5262 98.1616 93.8989 98.0651 94.1751 97.8997L95.0932 97.4172C96.2746 96.733 97.2719 95.7726 97.9995 94.6187C98.6889 93.4344 99.0909 92.1053 99.1731 90.738C99.2425 89.3296 99.1429 87.918 98.8762 86.5333C98.2959 83.7171 97.4452 80.9633 96.3358 78.3101C94.182 72.9406 91.5725 67.7296 89.2185 62.4083C88.0311 59.7407 86.899 57.0525 85.9118 54.3022C84.8928 51.5584 84.1167 48.7307 83.5923 45.8516C83.0228 42.9566 83.0228 39.9787 83.5923 37.0838C84.2204 34.1744 85.7063 31.5193 87.8585 29.4603C90.0428 27.4822 92.5818 25.934 95.3417 24.8972C98.0861 23.8475 100.925 23.0627 103.819 22.5536C104.509 22.3951 105.255 22.2917 105.973 22.1814C106.691 22.0711 107.416 21.9401 108.14 21.8574C109.59 21.7058 111.04 21.4921 112.496 21.4025C113.953 21.3129 115.403 21.175 116.859 21.1268L119.048 21.0303H121.229L129.969 20.8511C132.889 20.8993 135.809 20.8924 138.715 21.1199C141.635 21.2302 144.535 21.6024 147.434 21.8919L151.769 22.5329L152.853 22.6915L153.93 22.8983L156.077 23.3118C161.813 24.4291 167.463 25.9517 172.983 27.868C178.501 29.8014 183.889 32.083 189.116 34.6989C199.516 40.0071 209.335 46.3805 218.414 53.7163C227.483 61.0504 236.178 68.833 244.467 77.0349C252.841 85.1341 260.952 93.4813 269.437 101.415C277.921 109.349 286.778 116.91 296.601 123.045C301.493 126.131 306.691 128.704 312.113 130.724C317.536 132.736 323.198 134.038 328.957 134.597C334.723 135.13 340.533 134.933 346.25 134.011C351.98 133.087 357.607 131.612 363.052 129.607C373.967 125.609 384.19 119.909 393.924 113.547L394 113.664L390.355 116.069L388.539 117.276C387.925 117.675 387.297 118.041 386.676 118.427L382.948 120.701L379.137 122.845C374.034 125.699 368.727 128.173 363.26 130.248C357.791 132.328 352.134 133.877 346.367 134.873C340.588 135.851 334.707 136.091 328.867 135.59C323.014 135.076 317.252 133.806 311.726 131.813C306.208 129.816 300.912 127.251 295.925 124.162C290.941 121.093 286.17 117.694 281.642 113.988C277.099 110.314 272.736 106.405 268.47 102.456C251.453 86.5264 235.776 69.2391 217.606 54.7296C213.078 51.1039 208.402 47.6736 203.579 44.4385C198.763 41.2051 193.761 38.2568 188.599 35.6087C183.431 32.9794 178.102 30.6772 172.645 28.7159C167.177 26.762 161.576 25.2025 155.884 24.0494L153.751 23.6151L152.688 23.4014L151.611 23.2291L147.31 22.5398C144.424 22.2228 141.539 21.8505 138.639 21.6851C135.74 21.5197 132.834 21.4163 129.927 21.3405L121.202 21.4921H119.02L116.839 21.5748C115.389 21.6162 113.939 21.7196 112.49 21.8368C111.04 21.9539 109.597 22.1263 108.154 22.271C107.464 22.3537 106.718 22.4847 106 22.5881C105.283 22.6915 104.565 22.7949 103.854 22.9534C101.007 23.4614 98.2196 24.2582 95.535 25.3314C92.8327 26.3561 90.3496 27.8835 88.2175 29.8325C86.1338 31.8332 84.7044 34.4161 84.1169 37.2423C83.5727 40.072 83.5915 42.9809 84.1722 45.8033C84.7209 48.6347 85.5203 51.412 86.5607 54.1023C87.5686 56.8181 88.7284 59.4788 89.9364 62.1187C92.3526 67.3987 95.0173 72.5752 97.254 77.9724C98.4183 80.6761 99.3199 83.4852 99.9463 86.361C100.24 87.8332 100.36 89.3345 100.305 90.8345C100.25 92.385 99.7992 93.8957 98.9945 95.2229C98.1897 96.5501 97.0582 97.6495 95.7076 98.4166L94.6928 98.9543C94.3615 99.1335 94.0025 99.2438 93.6504 99.3954C92.9518 99.6686 92.2372 99.8988 91.5104 100.085C88.6282 100.774 85.6722 101.107 82.7087 101.077C70.8741 101.145 59.2635 97.8555 49.2276 91.5927C44.2454 88.4972 39.6037 84.886 35.3795 80.8191C26.9091 72.7476 19.992 63.1871 14.1587 53.096C11.2545 48.0417 8.61611 42.8397 6.25441 37.5112C3.86534 32.2009 1.77724 26.7608 0 21.2164L0.131163 21.1957Z" fill="#664747"/>
<path d="M0.131163 28.1366C3.93425 39.1176 8.83743 49.6874 14.7662 59.6853C20.6685 69.6731 27.6823 79.0474 36.0905 87.0156C40.2766 91.0055 44.8693 94.547 49.7936 97.5824C54.7162 100.604 60.0371 102.924 65.6022 104.475C71.1671 106.031 76.9161 106.833 82.6948 106.86C85.5616 106.901 88.4225 106.591 91.2136 105.937C91.8984 105.766 92.5716 105.552 93.2293 105.296C93.5469 105.158 93.9196 105.061 94.1958 104.896L95.1139 104.406C96.291 103.734 97.2881 102.789 98.0202 101.649C98.7096 100.465 99.1116 99.1358 99.1938 97.7685C99.2633 96.3601 99.1636 94.9485 98.8969 93.5638C98.3176 90.7474 97.4669 87.9935 96.3565 85.3406C94.2027 79.9711 91.5932 74.76 89.2392 69.4387C88.0518 66.7712 86.9197 64.083 85.9325 61.3327C84.9144 58.5886 84.1383 55.761 83.613 52.8821C83.0435 49.9871 83.0435 47.0092 83.613 44.1143C84.2395 41.2043 85.7256 38.5488 87.8792 36.4908C90.0635 34.5127 92.6025 32.9645 95.3624 31.9277C98.097 30.8487 100.929 30.034 103.819 29.4945C104.509 29.336 105.255 29.2257 105.973 29.1154C106.691 29.0051 107.416 28.8811 108.14 28.7914C109.59 28.6398 111.04 28.4261 112.496 28.3434C113.953 28.2607 115.403 28.1159 116.859 28.0677L119.048 27.9712L121.229 27.9367L129.969 27.7644C132.889 27.8127 135.809 27.8058 138.715 28.0263C141.622 28.2469 144.535 28.5157 147.434 28.8052L151.769 29.4463L152.853 29.6048L153.93 29.8116L156.077 30.2252C161.814 31.3392 167.464 32.8618 172.983 34.7814C178.5 36.7124 183.889 38.9917 189.116 41.6053C199.517 46.9334 209.336 53.3252 218.414 60.6779C227.568 67.9292 236.107 75.8974 244.467 84.0034C252.827 92.1094 260.952 100.45 269.437 108.384C277.921 116.317 286.778 123.879 296.601 130.013C301.493 133.099 306.691 135.672 312.113 137.692C317.537 139.701 323.199 141.003 328.957 141.566C334.723 142.098 340.533 141.901 346.25 140.98C351.981 140.027 357.608 138.527 363.052 136.5C373.967 132.502 384.19 126.801 393.924 120.439L394 120.556L390.355 122.962L388.539 124.168C387.925 124.561 387.297 124.933 386.676 125.319L382.948 127.594L379.137 129.738C374.035 132.592 368.728 135.064 363.26 137.134C357.791 139.216 352.134 140.767 346.367 141.766C340.59 142.759 334.709 143.016 328.867 142.531C323.015 142.01 317.254 140.741 311.726 138.754C306.209 136.754 300.914 134.19 295.925 131.102C290.941 128.034 286.17 124.635 281.642 120.929C277.099 117.255 272.736 113.346 268.47 109.39C251.453 93.4673 235.776 76.18 217.606 61.6636C213.078 58.0379 208.402 54.6099 203.579 51.3794C198.764 48.1435 193.762 45.1951 188.599 42.5496C183.432 39.9174 178.104 37.6151 172.645 35.6567C167.176 33.7038 161.575 32.1421 155.884 30.9834L153.751 30.556L152.688 30.3423L151.611 30.17L147.31 29.4807C144.424 29.1637 141.539 28.7914 138.639 28.626C135.74 28.3779 132.834 28.3572 129.927 28.2814L121.202 28.433H119.02L116.839 28.5226C115.389 28.564 113.939 28.6674 112.49 28.7845C111.04 28.9017 109.597 29.0741 108.154 29.2188C107.464 29.3015 106.718 29.4256 106 29.529C105.283 29.6324 104.565 29.7427 103.854 29.9012C101.007 30.407 98.2199 31.2015 95.535 32.2723C92.8327 33.297 90.3496 34.8244 88.2175 36.7734C86.1422 38.7611 84.7135 41.3261 84.1169 44.135C83.5727 46.9646 83.5915 49.8735 84.1722 52.6959C84.7191 55.5435 85.5185 58.3369 86.5607 61.0432C87.5686 63.759 88.7284 66.4197 89.9364 69.0596C92.3526 74.3396 95.0173 79.5161 97.254 84.9133C98.4183 87.617 99.3199 90.4261 99.9463 93.3019C100.24 94.774 100.36 96.2754 100.305 97.7754C100.25 99.3259 99.7992 100.837 98.9945 102.164C98.1897 103.491 97.0582 104.59 95.7076 105.358L94.6928 105.895C94.3615 106.074 94.0025 106.185 93.6504 106.329C92.9518 106.603 92.2371 106.833 91.5104 107.019C88.6285 107.709 85.6721 108.04 82.7087 108.004C70.8729 108.08 59.26 104.791 49.2276 98.5198C44.2439 95.4289 39.6021 91.8199 35.3795 87.7531C26.9091 79.6609 19.992 70.1005 14.1587 60.0231C11.2544 54.9712 8.6161 49.7715 6.25441 44.4452C3.86534 39.1349 1.77724 33.6948 0 28.1504L0.131163 28.1366Z" fill="#664747"/>
<path d="M0.131163 35.0778C3.9356 46.0583 8.83872 56.628 14.7662 66.6266C20.6685 76.6074 27.6823 85.9886 36.0905 93.9568C40.2766 97.9467 44.8693 101.488 49.7936 104.524C54.7162 107.545 60.0371 109.865 65.6022 111.416C71.1693 112.956 76.9182 113.742 82.6948 113.753C85.5616 113.794 88.4225 113.484 91.2136 112.83C91.8984 112.659 92.5716 112.444 93.2293 112.188C93.5585 112.07 93.8811 111.934 94.1958 111.782L95.1139 111.299C96.295 110.618 97.2924 109.66 98.0202 108.508C98.7087 107.323 99.1106 105.994 99.1938 104.627C99.2633 103.219 99.1636 101.807 98.8969 100.422C98.3176 97.6059 97.4669 94.852 96.3565 92.1991C94.2027 86.8296 91.5932 81.6186 89.2392 76.2904C88.0518 73.6297 86.9197 70.9415 85.9325 68.1912C84.9144 65.4471 84.1383 62.6195 83.613 59.7406C83.0435 56.8456 83.0435 53.8677 83.613 50.9728C84.2395 48.0628 85.7256 45.4073 87.8792 43.3493C90.0618 41.369 92.6012 39.8205 95.3624 38.7862C98.0998 37.7355 100.932 36.9484 103.819 36.4357C104.509 36.2772 105.255 36.1669 105.973 36.0566C106.691 35.9463 107.416 35.8223 108.14 35.7327C109.59 35.581 111.04 35.3673 112.496 35.2846C113.953 35.2019 115.403 35.0572 116.859 35.0089L119.048 34.9124L121.229 34.878L129.969 34.6987C132.889 34.7539 135.809 34.7401 138.715 34.9676C141.635 35.0847 144.535 35.457 147.434 35.7465L151.769 36.3875L152.833 36.5529L153.909 36.7597L156.056 37.1733C161.794 38.284 167.444 39.8067 172.963 41.7295C178.481 43.6576 183.87 45.9369 189.096 48.5534C199.501 53.8629 209.326 60.2362 218.414 67.5709C227.568 74.8222 236.107 82.7903 244.467 90.8895C252.827 98.9886 260.952 107.343 269.437 115.276C277.921 123.21 286.778 130.772 296.601 136.906C301.493 139.992 306.691 142.565 312.113 144.585C317.537 146.594 323.199 147.896 328.957 148.459C334.723 148.991 340.533 148.794 346.25 147.873C351.973 146.932 357.593 145.446 363.032 143.434C373.946 139.436 384.17 133.736 393.903 127.374L393.979 127.484L390.334 129.896L388.519 131.103C387.904 131.495 387.276 131.868 386.655 132.247L382.927 134.528L379.116 136.672C374.015 139.526 368.707 141.999 363.239 144.068C357.77 146.15 352.113 147.701 346.346 148.7C340.576 149.691 334.703 149.95 328.867 149.472C323.015 148.952 317.254 147.682 311.726 145.695C306.209 143.695 300.914 141.131 295.925 138.044C290.94 134.975 286.168 131.573 281.642 127.863C277.099 124.189 272.736 120.281 268.47 116.331C251.453 100.409 235.776 83.1212 217.606 68.6048C213.078 64.9792 208.402 61.5511 203.579 58.3206C198.764 55.0848 193.762 52.1364 188.599 49.4909C183.432 46.8586 178.104 44.5564 172.645 42.598C167.18 40.648 161.584 39.0886 155.898 37.9315L153.765 37.5041L152.701 37.2836L151.624 37.1181L147.324 36.4288C144.438 36.1118 141.553 35.7396 138.653 35.5741C135.754 35.326 132.847 35.3053 129.941 35.2295L121.215 35.3811H119.034L116.852 35.4707C115.403 35.5121 113.953 35.6155 112.503 35.7327C111.054 35.8498 109.611 36.0153 108.168 36.1669C107.478 36.2496 106.732 36.3737 106.014 36.4771C105.296 36.5805 104.578 36.6908 103.867 36.8424C101.016 37.3474 98.2243 38.1419 95.535 39.2136C92.8343 40.2384 90.3517 41.7632 88.2175 43.7077C86.1437 45.7084 84.7198 48.2852 84.1307 51.1038C83.5865 53.9334 83.6053 56.8423 84.186 59.6647C84.73 62.5025 85.5247 65.2866 86.5607 67.9845C87.5686 70.7002 88.7284 73.3609 89.9364 76.0009C92.3526 81.2808 95.0173 86.4505 97.254 91.8545C98.4183 94.5582 99.3199 97.3673 99.9463 100.243C100.24 101.715 100.36 103.217 100.305 104.717C100.25 106.267 99.7992 107.778 98.9945 109.105C98.1897 110.432 97.0582 111.532 95.7076 112.299L94.6928 112.83C94.3541 112.996 94.0061 113.144 93.6504 113.271C92.9518 113.544 92.2371 113.774 91.5104 113.96C88.6279 114.647 85.6719 114.978 82.7087 114.946C70.8749 115.028 59.2622 111.745 49.2276 105.482C44.2471 102.386 39.6056 98.7777 35.3795 94.715C26.9091 86.6228 19.992 77.0624 14.1587 66.985C11.2544 61.9331 8.6161 56.7334 6.25441 51.4071C3.86418 46.095 1.77606 40.6524 0 35.1054L0.131163 35.0778Z" fill="#664747"/>
<path d="M0.131163 42.0121C3.93421 52.9953 8.83739 63.5674 14.7662 73.5677C20.6685 83.5486 27.6823 92.9298 36.0905 100.898C40.2766 104.888 44.8693 108.429 49.7936 111.465C54.7176 114.483 60.0381 116.803 65.6022 118.358C71.1633 119.891 76.9051 120.672 82.6741 120.681C85.5407 120.727 88.4021 120.419 91.1928 119.764C91.8768 119.59 92.5498 119.376 93.2086 119.123C93.5262 118.985 93.8989 118.882 94.1751 118.716L95.0932 118.234C96.2761 117.551 97.2739 116.591 97.9995 115.435C98.6899 114.251 99.0919 112.922 99.1731 111.554C99.2423 110.148 99.1427 108.739 98.8762 107.357C98.2969 104.54 97.4462 101.786 96.3358 99.1334C94.182 93.757 91.5725 88.5528 89.2185 83.2246C88.0311 80.564 86.899 77.8758 85.9118 75.1255C84.8937 72.3814 84.1176 69.5538 83.5923 66.6748C83.0228 63.7799 83.0228 60.802 83.5923 57.9071C84.2357 55.0163 85.7255 52.3818 87.8723 50.3387C90.0569 48.3627 92.5959 46.8168 95.3555 45.7825C98.0911 44.7062 100.926 43.9005 103.819 43.3769C104.509 43.2184 105.255 43.1081 105.973 42.9978C106.691 42.8875 107.416 42.7634 108.14 42.6738C109.59 42.5222 111.04 42.3085 112.496 42.2258C113.953 42.1431 115.403 41.9914 116.859 41.9501L119.048 41.8536L121.229 41.8191L129.969 41.6399C132.889 41.695 135.809 41.6812 138.715 41.9087C141.635 42.0259 144.535 42.3912 147.434 42.6876L151.769 43.3286L152.853 43.4872L153.93 43.694L156.077 44.1075C161.815 45.2183 167.465 46.741 172.983 48.6637C178.502 50.5918 183.89 52.8712 189.116 55.4877C199.516 60.8071 209.334 67.1896 218.414 74.5327C227.568 81.784 236.107 89.7522 244.467 97.8513C252.827 105.95 260.952 114.298 269.437 122.231C277.921 130.165 286.778 137.727 296.601 143.861C301.492 146.952 306.69 149.528 312.113 151.547C317.538 153.553 323.199 154.855 328.957 155.421C334.723 155.953 340.533 155.756 346.25 154.835C351.974 153.895 357.594 152.406 363.032 150.389C373.946 146.398 384.17 140.697 393.903 134.335L393.979 134.446L390.334 136.858L388.519 138.064C387.904 138.457 387.276 138.829 386.655 139.209L382.927 141.49L379.116 143.634C374.015 146.488 368.707 148.96 363.239 151.03C357.77 153.112 352.113 154.663 346.346 155.662C340.575 156.646 334.702 156.898 328.867 156.413C323.015 155.893 317.254 154.623 311.726 152.636C306.209 150.636 300.914 148.072 295.925 144.985C290.94 141.916 286.168 138.515 281.642 134.804C277.099 131.13 272.736 127.222 268.47 123.272C251.453 107.35 235.776 90.0624 217.606 75.546C213.078 71.9203 208.402 68.4922 203.579 65.2618C198.764 62.0259 193.762 59.0775 188.599 56.432C183.434 53.7969 178.105 51.4946 172.645 49.5391C167.183 47.5696 161.586 45.994 155.898 44.8244L153.765 44.3901L152.701 44.1765L151.624 44.011L147.324 43.3218C144.438 43.0047 141.553 42.6325 138.653 42.467C135.754 42.3016 132.847 42.1982 129.941 42.1224L121.215 42.2671H119.034L116.852 42.3567C115.403 42.3981 113.953 42.5015 112.503 42.6118C111.054 42.7221 109.611 42.9013 108.168 43.046C107.478 43.1356 106.732 43.2597 106.014 43.3631C105.296 43.4665 104.578 43.5768 103.867 43.7284C101.015 44.2521 98.2236 45.0627 95.535 46.1478C92.8353 47.1779 90.3532 48.7046 88.2175 50.6489C86.1437 52.6496 84.7198 55.2263 84.1307 58.0449C83.5865 60.8746 83.6053 63.7835 84.186 66.6059C84.73 69.4437 85.5247 72.2278 86.5607 74.9256C87.5686 77.6414 88.7284 80.3021 89.9364 82.9351C92.3526 88.2151 95.0173 93.3916 97.254 98.7888C98.4183 101.49 99.3199 104.297 99.9463 107.171C100.239 108.643 100.36 110.144 100.305 111.644C100.231 113.193 99.783 114.702 99.0005 116.042C98.1817 117.361 97.0509 118.459 95.7076 119.24L94.6928 119.778C94.3541 119.945 94.0061 120.092 93.6504 120.219C92.9518 120.492 92.2371 120.722 91.5104 120.908C88.6273 121.591 85.6717 121.922 82.7087 121.894C70.8729 121.97 59.26 118.68 49.2276 112.409C44.2471 109.314 39.6056 105.705 35.3795 101.642C26.9091 93.5502 19.992 83.9897 14.1587 73.9124C11.2531 68.8588 8.61474 63.6568 6.25441 58.3275C3.86426 53.0295 1.77612 47.6007 0 42.0672L0.131163 42.0121Z" fill="#664747"/>
<path d="M0.131163 48.9602C3.93617 59.9404 8.83926 70.51 14.7662 80.5089C20.6685 90.4898 27.6823 99.871 36.0905 107.832C40.273 111.826 44.8661 115.368 49.7936 118.399C54.7144 121.432 60.0353 123.764 65.6022 125.326C71.1633 126.859 76.9051 127.641 82.6741 127.649C85.5407 127.696 88.4021 127.388 91.1928 126.733C91.8768 126.558 92.5498 126.344 93.2086 126.092C93.5262 125.954 93.8989 125.85 94.1751 125.685L95.0932 125.202C96.2761 124.52 97.2739 123.559 97.9995 122.404C98.6899 121.22 99.0919 119.891 99.1731 118.523C99.2423 117.117 99.1427 115.708 98.8762 114.325C98.2979 111.509 97.4471 108.755 96.3358 106.102C94.182 100.726 91.5725 95.5216 89.2185 90.1934C88.0311 87.5328 86.899 84.8445 85.9118 82.0943C84.8937 79.3502 84.1176 76.5225 83.5923 73.6436C83.0228 70.7487 83.0228 67.7708 83.5923 64.8759C84.2216 61.9579 85.7124 59.2952 87.8723 57.2317C90.0584 55.256 92.5969 53.7081 95.3555 52.6686C98.0948 51.6211 100.929 50.8409 103.819 50.3388C104.509 50.1802 105.255 50.0699 105.973 49.9597C106.691 49.8494 107.416 49.7253 108.14 49.6357C109.59 49.4841 111.04 49.2704 112.496 49.1808C113.953 49.0912 115.403 48.9533 116.859 48.9051L119.048 48.8154H121.229L129.969 48.6362C132.889 48.6914 135.809 48.6776 138.715 48.9051C141.635 49.0222 144.535 49.3876 147.434 49.684L151.769 50.3181L152.853 50.4835L153.93 50.6834L156.077 51.1039C161.815 52.2146 167.465 53.7373 172.983 55.6601C178.502 57.5882 183.89 59.8675 189.116 62.484C199.513 67.786 209.332 74.15 218.414 81.4739C227.568 88.7252 236.107 96.6934 244.467 104.793C252.827 112.892 260.952 121.239 269.437 129.173C277.921 137.106 286.778 144.668 296.601 150.802C301.495 153.888 306.692 156.463 312.113 158.488C317.538 160.495 323.199 161.795 328.957 162.355C334.723 162.894 340.534 162.697 346.25 161.769C351.974 160.835 357.595 159.348 363.032 157.33C373.946 153.339 384.17 147.639 393.903 141.277L393.979 141.387L390.334 143.799L388.519 145.006C387.904 145.398 387.276 145.764 386.655 146.15L382.927 148.431L379.116 150.575C374.013 153.427 368.706 155.899 363.239 157.971C357.77 160.053 352.113 161.604 346.346 162.603C340.576 163.593 334.703 163.854 328.867 163.382C323.014 162.862 317.253 161.591 311.726 159.598C306.208 157.603 300.912 155.041 295.925 151.954C290.94 148.885 286.168 145.483 281.642 141.773C277.099 138.099 272.736 134.191 268.47 130.241C251.453 114.318 235.776 97.0311 217.606 82.5147C213.078 78.8891 208.402 75.461 203.579 72.2306C198.764 68.9947 193.762 66.0463 188.599 63.4008C183.434 60.7657 178.105 58.4633 172.645 56.5079C167.177 54.5518 161.576 52.99 155.884 51.8345L153.751 51.4003L152.688 51.1866L151.611 51.0212L147.31 50.3319C144.424 50.0148 141.539 49.6426 138.639 49.4772C135.74 49.2221 132.834 49.2083 129.927 49.1325L121.202 49.2773H119.02L116.839 49.3669C115.389 49.4082 113.939 49.5116 112.49 49.6219C111.04 49.7322 109.597 49.9114 108.154 50.0562C107.464 50.1458 106.718 50.2698 106 50.3732C105.283 50.4766 104.565 50.5869 103.854 50.7386C101.008 51.2431 98.2214 52.0329 95.535 53.0959C92.8353 54.126 90.3532 55.6527 88.2175 57.597C86.1437 59.5976 84.7198 62.1744 84.1307 64.993C83.5865 67.8204 83.6053 70.727 84.186 73.5471C84.7295 76.385 85.5242 79.1692 86.5607 81.8668C87.5686 84.5757 88.7284 87.2363 89.9364 89.8763C92.3526 95.1563 95.0173 100.333 97.254 105.73C98.4173 108.434 99.3189 111.243 99.9463 114.119C100.239 115.591 100.36 117.092 100.305 118.592C100.231 120.141 99.783 121.65 99.0005 122.99C98.1797 124.307 97.0494 125.405 95.7076 126.188L94.6928 126.726C94.3615 126.912 94.0025 127.015 93.6504 127.167C92.9518 127.44 92.2371 127.67 91.5104 127.856C88.6273 128.539 85.6717 128.87 82.7087 128.842C70.8741 128.909 59.2635 125.62 49.2276 119.357C44.2471 116.262 39.6056 112.653 35.3795 108.591C26.9091 100.491 19.992 90.9378 14.1587 80.8604C11.2531 75.8069 8.61474 70.6049 6.25441 65.2757C3.86534 59.9654 1.77724 54.5252 0 48.9809L0.131163 48.9602Z" fill="#664747"/>
<path d="M0.131163 55.8944C3.93574 66.877 8.83884 77.4489 14.7662 87.45C20.6685 97.4308 27.6823 106.805 36.0905 114.773C40.273 118.767 44.8661 122.309 49.7936 125.34C54.7147 128.364 60.036 130.684 65.6022 132.233C71.1623 133.772 76.9045 134.555 82.6741 134.563C85.5404 134.603 88.4009 134.295 91.1928 133.646C91.8778 133.473 92.5511 133.256 93.2086 132.998C93.5377 132.882 93.8603 132.749 94.1751 132.598L95.0932 132.116C96.2746 131.432 97.2719 130.471 97.9995 129.317C98.6899 128.133 99.0919 126.804 99.1731 125.437C99.2423 124.028 99.1426 122.617 98.8762 121.232C98.2992 118.435 97.4555 115.7 96.3565 113.064C94.2027 107.694 91.5932 102.49 89.2392 97.162C88.0518 94.5014 86.9197 91.8063 85.9325 89.0629C84.9143 86.3165 84.1382 83.4865 83.613 80.6053C83.0435 77.7104 83.0435 74.7325 83.613 71.8376C84.2427 68.9288 85.7283 66.2741 87.8792 64.2141C90.0653 62.2384 92.6038 60.6905 95.3624 59.651C98.0975 58.5767 100.929 57.7665 103.819 57.2316C104.509 57.073 105.255 56.9696 105.973 56.8594C106.691 56.7491 107.416 56.6181 108.14 56.5354C109.59 56.3838 111.04 56.1701 112.496 56.0805C113.953 55.9909 115.403 55.853 116.859 55.8047L119.048 55.7151L121.229 55.6807L129.969 55.5015C132.889 55.5497 135.809 55.5428 138.715 55.7703C141.635 55.8875 144.535 56.2528 147.434 56.5492L151.769 57.1833L152.853 57.3419L153.93 57.5487L156.077 57.9622C161.813 59.0795 167.463 60.6021 172.983 62.5184C178.501 64.4519 183.889 66.7334 189.116 69.3492C199.518 74.6727 209.337 81.0623 218.414 88.415C227.483 95.749 236.178 103.532 244.467 111.734C252.841 119.833 260.952 128.18 269.437 136.114C277.921 144.047 286.778 151.609 296.601 157.744C301.5 160.837 306.705 163.42 312.134 165.45C317.558 167.457 323.22 168.757 328.978 169.317C334.743 169.856 340.555 169.659 346.271 168.731C351.995 167.797 357.615 166.31 363.052 164.292C373.967 160.294 384.19 154.6 393.924 148.231L394 148.349L390.355 150.761L388.539 151.96C387.925 152.36 387.297 152.726 386.676 153.112L382.948 155.393L379.137 157.53C374.034 160.384 368.727 162.858 363.26 164.933C357.79 167.012 352.133 168.563 346.367 169.565C340.587 170.537 334.707 170.775 328.867 170.275C323.014 169.761 317.252 168.491 311.726 166.497C306.208 164.503 300.912 161.941 295.925 158.853C290.941 155.782 286.169 152.381 281.642 148.673C277.099 144.999 272.736 141.09 268.47 137.141C251.453 121.211 235.776 103.924 217.606 89.4144C213.078 85.7888 208.402 82.3607 203.579 79.1302C198.77 75.9017 193.772 72.9624 188.612 70.328C183.446 67.6959 178.117 65.3937 172.659 63.4352C167.191 61.4813 161.589 59.9218 155.898 58.7687L153.765 58.3344L152.701 58.1208L151.624 57.9553L147.31 57.2316C144.424 56.9076 141.539 56.5423 138.639 56.3769C135.74 56.1218 132.834 56.1011 129.927 56.0322L121.202 56.177H119.02L116.839 56.2597C115.389 56.301 113.939 56.4113 112.49 56.5216C111.04 56.6319 109.597 56.8111 108.154 56.9559C107.464 57.0386 106.718 57.1695 106 57.2729C105.283 57.3763 104.565 57.4797 103.854 57.6383C101.006 58.1507 98.2191 58.9522 95.535 60.0301C92.8327 61.0548 90.3496 62.5821 88.2175 64.5311C86.1438 66.5292 84.7199 69.1037 84.1307 71.9203C83.5865 74.7499 83.6053 77.6589 84.186 80.4813C84.7291 83.3193 85.5238 86.1035 86.5607 88.801C87.5686 91.5168 88.7284 94.1774 89.9364 96.8174C92.3526 102.097 95.0173 107.274 97.254 112.671C98.4173 115.375 99.3189 118.184 99.9463 121.06C100.239 122.532 100.36 124.033 100.305 125.533C100.25 127.084 99.7992 128.594 98.9945 129.922C98.1897 131.249 97.0582 132.348 95.7076 133.115L94.6928 133.653C94.3615 133.832 94.0025 133.942 93.6504 134.094C92.9529 134.37 92.2381 134.601 91.5104 134.783C88.6296 135.484 85.6736 135.829 82.7087 135.81C70.8741 135.878 59.2635 132.589 49.2276 126.326C44.2454 123.23 39.6037 119.619 35.3795 115.552C26.9091 107.446 19.992 97.8996 14.1587 87.8153C11.2531 82.7618 8.61474 77.5597 6.25441 72.2305C3.86534 66.9203 1.77724 61.4801 0 55.9357L0.131163 55.8944Z" fill="#664747"/>
<path d="M0.131163 62.8356C3.93574 73.8182 8.83884 84.3901 14.7662 94.3912C20.6685 104.372 27.6823 113.746 36.0905 121.715C40.2766 125.704 44.8693 129.246 49.7936 132.281C54.7147 135.305 60.036 137.626 65.6022 139.174C71.1623 140.713 76.9045 141.496 82.6741 141.504C85.5453 141.561 88.4129 141.27 91.2136 140.636C91.8985 140.462 92.5718 140.246 93.2293 139.988C93.5469 139.85 93.9196 139.753 94.1958 139.588L95.1139 139.105C96.2953 138.421 97.2926 137.461 98.0202 136.307C98.7096 135.123 99.1116 133.793 99.1938 132.426C99.2633 131.018 99.1636 129.606 98.8969 128.221C98.3192 125.391 97.4684 122.623 96.3565 119.957C94.2027 114.587 91.5932 109.376 89.2392 104.055C88.0518 101.387 86.9197 98.6993 85.9325 95.949C84.9135 93.2052 84.1374 90.3775 83.613 87.4983C83.0435 84.6034 83.0435 81.6255 83.613 78.7306C84.2411 75.8212 85.727 73.1661 87.8792 71.1071C90.0635 69.129 92.6025 67.5808 95.3624 66.544C98.0998 65.4932 100.932 64.7061 103.819 64.1935C104.509 64.035 105.255 63.9316 105.973 63.8213C106.691 63.711 107.416 63.58 108.14 63.4973C109.59 63.3457 111.04 63.132 112.496 63.0424C113.953 62.9528 115.403 62.8149 116.859 62.7667L119.048 62.6702H121.229L129.969 62.491C132.889 62.5392 135.809 62.5323 138.715 62.7598C141.635 62.8701 144.535 63.2423 147.434 63.5318L151.769 64.1728L152.853 64.3314L153.93 64.5382L156.077 64.9517C161.813 66.069 167.463 67.5916 172.983 69.5079C178.501 71.4413 183.889 73.7229 189.116 76.3388C199.516 81.6469 209.335 88.0204 218.414 95.3562C227.483 102.69 236.178 110.473 244.467 118.675C252.841 126.774 260.952 135.121 269.437 143.055C277.921 150.989 286.778 158.55 296.601 164.685C301.501 167.765 306.706 170.331 312.134 172.343C317.557 174.355 323.219 175.657 328.978 176.217C334.744 176.749 340.554 176.552 346.271 175.631C351.994 174.693 357.614 173.207 363.052 171.192C373.967 167.194 384.19 161.493 393.924 155.131L394 155.248L390.355 157.654L388.539 158.86C387.925 159.26 387.297 159.625 386.676 160.011L382.948 162.293L379.137 164.43C374.034 167.284 368.727 169.758 363.26 171.833C357.803 173.918 352.157 175.473 346.402 176.479C340.612 177.47 334.72 177.723 328.867 177.23C323.014 176.716 317.252 175.446 311.726 173.453C306.208 171.455 300.912 168.891 295.925 165.801C290.941 162.733 286.17 159.334 281.642 155.628C277.099 151.954 272.736 148.045 268.47 144.096C251.453 128.166 235.776 110.879 217.606 96.3695C213.078 92.7438 208.402 89.3135 203.579 86.0784C198.768 82.8361 193.771 79.8785 188.612 77.221C183.445 74.5917 178.116 72.2895 172.659 70.3282C167.191 68.3743 161.589 66.8148 155.898 65.6617L153.765 65.2274L152.701 65.0138L151.624 64.8414L147.324 64.1522C144.438 63.8351 141.553 63.4629 138.653 63.2974C135.754 63.132 132.847 63.0286 129.941 62.9528L121.215 63.1044H119.034L116.852 63.1872C115.403 63.2285 113.953 63.3319 112.503 63.4491C111.054 63.5662 109.611 63.7386 108.168 63.8833C107.478 63.966 106.732 64.097 106.014 64.2004C105.296 64.3038 104.578 64.4072 103.867 64.5657C101.015 65.0818 98.223 65.8878 95.535 66.9713C92.8327 67.996 90.3496 69.5234 88.2175 71.4724C86.1425 73.4694 84.7183 76.0444 84.1307 78.8616C83.5865 81.6912 83.6053 84.6001 84.186 87.4225C84.7291 90.2605 85.5238 93.0447 86.5607 95.7422C87.5686 98.458 88.7284 101.119 89.9364 103.759C92.3526 109.039 95.0173 114.215 97.254 119.612C98.4183 122.316 99.3199 125.125 99.9463 128.001C100.239 129.473 100.36 130.974 100.305 132.474C100.25 134.025 99.7992 135.536 98.9945 136.863C98.1897 138.19 97.0582 139.289 95.7076 140.057L94.6928 140.594C94.3615 140.773 94.0025 140.884 93.6504 141.035C92.9518 141.308 92.2372 141.539 91.5104 141.725C88.6282 142.413 85.6722 142.747 82.7087 142.717C70.8741 142.784 59.2635 139.495 49.2276 133.233C44.2454 130.137 39.6037 126.526 35.3795 122.459C26.9091 114.367 19.992 104.806 14.1587 94.7359C11.2545 89.6816 8.61611 84.4796 6.25441 79.151C3.86534 73.8408 1.77724 68.4006 0 62.8563L0.131163 62.8356Z" fill="#664747"/>
<path d="M0.131163 69.7767C3.93296 80.7649 8.83617 91.3416 14.7662 101.346C20.6685 111.334 27.6823 120.708 36.0905 128.676C40.2824 132.672 44.8821 136.218 49.8143 139.257C54.7369 142.278 60.0578 144.598 65.6229 146.15C71.1837 147.685 76.9255 148.469 82.6948 148.48C85.5627 148.512 88.4236 148.192 91.2136 147.528C91.8984 147.357 92.5716 147.143 93.2293 146.887C93.5469 146.75 93.9196 146.653 94.1958 146.488L95.1139 145.998C96.295 145.317 97.2924 144.359 98.0202 143.207C98.7096 142.022 99.1116 140.693 99.1938 139.326C99.2633 137.918 99.1636 136.506 98.8969 135.121C98.3176 132.305 97.4669 129.551 96.3565 126.898C94.2027 121.528 91.5932 116.317 89.2392 110.996C88.0518 108.329 86.9197 105.64 85.9325 102.89C84.9152 100.15 84.1391 97.3275 83.613 94.4532C83.0435 91.5583 83.0435 88.5804 83.613 85.6855C84.2395 82.7755 85.7256 80.12 87.8792 78.062C90.0635 76.0839 92.6025 74.5357 95.3624 73.4989C98.0994 72.4434 100.931 71.6517 103.819 71.1346C104.509 70.9761 105.255 70.8658 105.973 70.7555C106.691 70.6452 107.416 70.5212 108.14 70.4316C109.59 70.2799 111.04 70.0731 112.496 69.9835C113.953 69.8939 115.403 69.7561 116.859 69.7078L119.006 69.6389H121.188L129.927 69.4666C132.847 69.5148 135.768 69.5079 138.674 69.7285C141.594 69.8457 144.493 70.2179 147.393 70.5074L151.728 71.1484L152.812 71.307L153.889 71.5137L156.036 71.9273C161.773 73.0414 167.423 74.564 172.942 76.4835C178.459 78.4146 183.848 80.6938 189.075 83.3074C199.486 88.6048 209.318 94.9665 218.414 102.29C227.568 109.542 236.107 117.51 244.467 125.616C252.827 133.722 260.952 142.062 269.437 149.996C277.921 157.93 286.778 165.491 296.601 171.626C301.493 174.712 306.691 177.285 312.113 179.305C317.537 181.314 323.199 182.616 328.957 183.178C334.723 183.711 340.533 183.514 346.25 182.592C351.973 181.652 357.593 180.165 363.032 178.153C373.946 174.156 384.17 168.455 393.903 162.093L393.979 162.21L390.334 164.616L388.519 165.822C387.904 166.215 387.276 166.587 386.655 166.973L382.927 169.248L379.116 171.392C374.015 174.246 368.707 176.718 363.239 178.788C357.77 180.87 352.113 182.421 346.346 183.42C340.575 184.407 334.702 184.659 328.867 184.171C323.015 183.65 317.254 182.381 311.726 180.394C306.209 178.394 300.914 175.83 295.925 172.743C290.941 169.674 286.17 166.275 281.642 162.569C277.099 158.895 272.736 154.987 268.47 151.03C251.453 135.107 235.776 117.82 217.606 103.304C213.082 99.701 208.411 96.273 203.593 93.0195C198.778 89.7837 193.776 86.8352 188.612 84.1897C183.446 81.5575 178.117 79.2552 172.659 77.2969C167.19 75.3439 161.589 73.7822 155.898 72.6235L153.765 72.1961L152.701 71.9824L151.624 71.8101L147.324 71.1208C144.438 70.8038 141.553 70.4316 138.653 70.2661C135.754 70.1007 132.847 69.9973 129.941 69.9215L121.215 70.0731H119.034L116.852 70.1627C115.403 70.2041 113.953 70.3075 112.503 70.4247C111.054 70.5419 109.611 70.7142 108.168 70.8589C107.478 70.9416 106.732 71.0657 106.014 71.1691C105.296 71.2725 104.578 71.3828 103.867 71.5413C101.016 72.0462 98.2243 72.8407 95.535 73.9125C92.8327 74.9372 90.3496 76.4645 88.2175 78.4135C86.1425 80.4105 84.7183 82.9855 84.1307 85.8027C83.5865 88.6323 83.6053 91.5412 84.186 94.3636C84.73 97.2014 85.5247 99.9855 86.5607 102.683C87.5686 105.399 88.7284 108.06 89.9364 110.7C92.3526 115.98 95.0173 121.156 97.254 126.553C98.4183 129.257 99.3199 132.066 99.9463 134.942C100.24 136.414 100.36 137.915 100.305 139.416C100.25 140.966 99.7992 142.477 98.9945 143.804C98.1897 145.131 97.0582 146.231 95.7076 146.998L94.6928 147.535C94.3615 147.715 94.0025 147.825 93.6504 147.97C92.9529 148.246 92.238 148.476 91.5104 148.659C88.6285 149.349 85.6721 149.68 82.7087 149.645C70.8729 149.72 59.26 146.431 49.2276 140.16C44.2439 137.069 39.6021 133.46 35.3795 129.393C26.9091 121.335 19.992 111.768 14.1587 101.691C11.2544 96.6389 8.6161 91.4392 6.25441 86.1129C3.86534 80.8026 1.77724 75.3625 0 69.8181L0.131163 69.7767Z" fill="#664747"/>
<path d="M0.131163 76.7179C3.93731 87.6888 8.8404 98.2492 14.7662 108.239C20.6685 118.22 27.6823 127.601 36.0905 135.569C40.2824 139.565 44.8821 143.111 49.8143 146.15C54.7369 149.171 60.0578 151.491 65.6229 153.043C71.1837 154.578 76.9255 155.361 82.6948 155.373C85.5616 155.413 88.4225 155.103 91.2136 154.449C91.8984 154.278 92.5716 154.064 93.2293 153.808C93.5585 153.689 93.8811 153.554 94.1958 153.401L95.1139 152.919C96.295 152.237 97.2924 151.279 98.0202 150.127C98.7087 148.942 99.1106 147.614 99.1938 146.246C99.2633 144.838 99.1636 143.426 98.8969 142.042C98.3176 139.225 97.4669 136.471 96.3565 133.818C94.2027 128.449 91.5932 123.238 89.2392 117.91C88.0518 115.249 86.9197 112.561 85.9325 109.811C84.9144 107.066 84.1383 104.239 83.613 101.36C83.0435 98.465 83.0435 95.4871 83.613 92.5922C84.2395 89.6822 85.7256 87.0266 87.8792 84.9686C90.0618 82.9883 92.6012 81.4398 95.3624 80.4056C98.1006 79.3618 100.932 78.5817 103.819 78.0758C104.509 77.9172 105.255 77.8069 105.973 77.6967C106.691 77.5864 107.416 77.4623 108.14 77.3727C109.59 77.221 111.04 77.0074 112.496 76.9247C113.953 76.8419 115.403 76.6972 116.859 76.6489L119.006 76.5318H121.188L129.927 76.3525C132.847 76.4077 135.768 76.4008 138.674 76.6214C141.594 76.7386 144.493 77.1108 147.393 77.4003L151.728 78.0413L152.812 78.1998L153.889 78.4066L156.036 78.8202C161.774 79.9309 167.424 81.4536 172.942 83.3764C178.46 85.3045 183.849 87.5838 189.075 90.2003C199.488 95.5129 209.321 101.891 218.414 109.232C227.568 116.483 236.107 124.451 244.467 132.55C252.827 140.649 260.952 149.003 269.437 156.937C277.921 164.871 286.778 172.432 296.601 178.567C301.493 181.653 306.691 184.226 312.113 186.246C317.537 188.255 323.199 189.557 328.957 190.12C334.723 190.652 340.533 190.455 346.25 189.534C351.973 188.593 357.593 187.107 363.032 185.095C373.946 181.097 384.17 175.396 393.903 169.034L393.979 169.144L390.334 171.557L388.519 172.763C387.904 173.156 387.276 173.528 386.655 173.907L382.927 176.189L379.116 178.333C374.015 181.187 368.707 183.659 363.239 185.729C357.77 187.811 352.113 189.362 346.346 190.361C340.575 191.345 334.702 191.597 328.867 191.112C323.015 190.592 317.254 189.322 311.726 187.335C306.209 185.335 300.914 182.771 295.925 179.684C290.94 176.615 286.168 173.214 281.642 169.503C277.099 165.829 272.736 161.921 268.47 157.971C251.453 142.049 235.776 124.761 217.606 110.245C213.082 106.61 208.411 103.184 203.593 99.9676C198.778 96.7317 193.776 93.7833 188.612 91.1378C183.446 88.5055 178.117 86.2033 172.659 84.2449C167.19 82.2919 161.589 80.7302 155.898 79.5715L153.765 79.1442L152.701 78.9305L151.624 78.7582L147.324 78.0689C144.438 77.7518 141.553 77.3796 138.653 77.2141C135.754 76.966 132.847 76.9453 129.941 76.8695L121.215 77.0211H119.034L116.852 77.1108C115.403 77.1521 113.953 77.2555 112.503 77.3727C111.054 77.4899 109.611 77.6553 108.168 77.8069C107.478 77.8897 106.732 78.0137 106.014 78.1171C105.296 78.2205 104.578 78.3308 103.867 78.4824C101.016 78.9874 98.2243 79.7819 95.535 80.8536C92.8343 81.8785 90.3517 83.4032 88.2175 85.3478C86.1437 87.3484 84.7198 89.9252 84.1307 92.7438C83.5865 95.5734 83.6053 98.4824 84.186 101.305C84.7304 104.14 85.5251 106.922 86.5607 109.618C87.5686 112.333 88.7284 114.994 89.9364 117.634C92.3526 122.914 95.0173 128.091 97.254 133.488C98.4183 136.191 99.3199 139 99.9463 141.876C100.24 143.348 100.36 144.85 100.305 146.35C100.25 147.9 99.7992 149.411 98.9945 150.738C98.1897 152.065 97.0582 153.165 95.7076 153.932L94.6928 154.463C94.3541 154.63 94.0061 154.777 93.6504 154.904C92.9518 155.177 92.2371 155.407 91.5104 155.593C88.6279 156.28 85.6719 156.611 82.7087 156.579C70.8729 156.655 59.26 153.365 49.2276 147.094C44.2487 144.01 39.6073 140.413 35.3795 136.362C26.9091 128.27 19.992 118.709 14.1587 108.632C11.2551 103.587 8.61675 98.394 6.25441 93.0747C3.86418 87.7626 1.77606 82.32 0 76.773L0.131163 76.7179Z" fill="#664747"/>
<path d="M0.131163 83.652C3.93421 94.6352 8.83739 105.207 14.7662 115.208C20.6685 125.188 27.6823 134.57 36.0905 142.538C40.2766 146.528 44.8693 150.069 49.7936 153.105C54.7176 156.123 60.0381 158.443 65.6022 159.998C71.1633 161.53 76.9051 162.312 82.6741 162.32C85.5407 162.367 88.4021 162.059 91.1928 161.404C91.8768 161.23 92.5498 161.016 93.2086 160.763C93.5262 160.625 93.8989 160.521 94.1751 160.356L95.0932 159.873C96.2761 159.191 97.2739 158.231 97.9995 157.075C98.6899 155.891 99.0919 154.562 99.1731 153.194C99.2423 151.788 99.1427 150.379 98.8762 148.996C98.2969 146.18 97.4462 143.426 96.3358 140.773C94.182 135.397 91.5725 130.193 89.2185 124.865C88.0311 122.204 86.899 119.516 85.9118 116.765C84.8937 114.021 84.1176 111.194 83.5923 108.315C83.0228 105.42 83.0228 102.442 83.5923 99.547C84.2203 96.6356 85.7061 93.9782 87.8585 91.9166C90.0431 89.9406 92.5821 88.3947 95.3417 87.3604C98.084 86.3043 100.923 85.5194 103.819 85.0168C104.509 84.8582 105.255 84.748 105.973 84.6377C106.691 84.5274 107.416 84.4033 108.14 84.3137C109.59 84.1621 111.04 83.9484 112.496 83.8657C113.953 83.783 115.403 83.6313 116.859 83.59L119.048 83.4935L121.229 83.459L129.969 83.2798C132.889 83.3349 135.809 83.3211 138.715 83.5486C141.635 83.6658 144.535 84.0311 147.434 84.3275L151.769 84.9685L152.853 85.1271L153.93 85.3338L156.077 85.7474C161.806 86.864 167.447 88.3912 172.956 90.3174C178.474 92.2455 183.863 94.5248 189.089 97.1414C199.497 102.455 209.325 108.833 218.414 116.173C227.568 123.424 236.107 131.392 244.467 139.491C252.827 147.59 260.952 155.938 269.437 163.871C277.921 171.805 286.778 179.373 296.601 185.501C301.492 188.592 306.69 191.168 312.113 193.187C317.538 195.193 323.199 196.495 328.957 197.061C334.723 197.593 340.533 197.396 346.25 196.475C351.974 195.535 357.594 194.046 363.032 192.029C373.946 188.038 384.17 182.337 393.903 175.975L393.979 176.086L390.334 178.498L388.519 179.704C387.904 180.097 387.276 180.469 386.655 180.848L382.927 183.13L379.116 185.274C374.015 188.128 368.707 190.6 363.239 192.67C357.77 194.752 352.113 196.303 346.346 197.302C340.575 198.286 334.702 198.538 328.867 198.053C323.015 197.533 317.254 196.263 311.726 194.276C306.209 192.276 300.914 189.712 295.925 186.625C290.945 183.566 286.178 180.177 281.655 176.478C277.113 172.804 272.75 168.896 268.484 164.947C251.467 148.99 235.79 131.675 217.62 117.2C213.092 113.574 208.416 110.146 203.593 106.915C198.778 103.68 193.776 100.731 188.612 98.0857C183.447 95.4506 178.119 93.1482 172.659 91.1928C167.191 89.2367 161.589 87.6749 155.898 86.5194L153.765 86.0852L152.701 85.8715L151.624 85.7061L147.324 85.0168C144.438 84.6997 141.553 84.3275 138.653 84.1621C135.754 83.9139 132.847 83.8933 129.941 83.8174L121.215 83.9622H119.034L116.852 84.0518C115.403 84.0931 113.953 84.1965 112.503 84.3068C111.054 84.4171 109.611 84.5963 108.168 84.7411C107.478 84.8307 106.732 84.9547 106.014 85.0581C105.296 85.1615 104.578 85.2718 103.867 85.4235C101.017 85.9293 98.2256 86.7214 95.535 87.7877C92.8353 88.8178 90.3532 90.3445 88.2175 92.2888C86.1437 94.2894 84.7198 96.8662 84.1307 99.6848C83.5865 102.514 83.6053 105.423 84.186 108.246C84.73 111.084 85.5247 113.868 86.5607 116.565C87.5686 119.281 88.7284 121.942 89.9364 124.575C92.3526 129.862 95.0173 135.032 97.254 140.429C98.4183 143.13 99.3199 145.937 99.9463 148.81C100.239 150.283 100.36 151.784 100.305 153.284C100.231 154.833 99.783 156.342 99.0005 157.682C98.1817 159.001 97.0509 160.099 95.7076 160.88L94.6928 161.417C94.3541 161.584 94.0061 161.732 93.6504 161.859C92.9518 162.132 92.2371 162.362 91.5104 162.548C88.6273 163.231 85.6717 163.562 82.7087 163.534C70.8729 163.61 59.26 160.32 49.2276 154.049C44.2471 150.954 39.6056 147.345 35.3795 143.282C26.9091 135.19 19.992 125.63 14.1587 115.552C11.2531 110.499 8.61474 105.297 6.25441 99.9674C3.86305 94.6582 1.7749 89.2178 0 83.6727L0.131163 83.652Z" fill="#664747"/>
<path d="M0.131163 90.5932C3.93574 101.576 8.83884 112.148 14.7662 122.149C20.6685 132.13 27.6823 141.511 36.0905 149.472C40.273 153.466 44.8661 157.008 49.7936 160.039C54.7144 163.072 60.0353 165.404 65.6022 166.966C71.1633 168.499 76.9051 169.28 82.6741 169.289C85.5407 169.336 88.4021 169.028 91.1928 168.372C91.8768 168.198 92.5498 167.984 93.2086 167.731C93.5262 167.594 93.8989 167.49 94.1751 167.325L95.0932 166.842C96.2804 166.17 97.2852 165.219 98.0202 164.071C98.7106 162.887 99.1126 161.558 99.1938 160.191C99.263 158.785 99.1634 157.375 98.8969 155.993C98.3186 153.176 97.4678 150.422 96.3565 147.77C94.2027 142.393 91.5932 137.189 89.2392 131.861C88.0518 129.2 86.9197 126.512 85.9325 123.762C84.9144 121.018 84.1383 118.19 83.613 115.311C83.0435 112.416 83.0435 109.438 83.613 106.543C84.2411 103.632 85.7268 100.975 87.8792 98.9129C90.0653 96.9372 92.6038 95.3893 95.3624 94.3498C98.0973 93.2817 100.929 92.4806 103.819 91.958C104.509 91.7994 105.255 91.6891 105.973 91.5788C106.691 91.4686 107.416 91.3445 108.14 91.2549C109.59 91.1032 111.04 90.8896 112.496 90.8C113.953 90.7104 115.403 90.5725 116.859 90.5311L119.048 90.4346L121.229 90.4002L129.969 90.2209C132.889 90.2761 135.809 90.2623 138.715 90.4898C141.635 90.607 144.535 90.9723 147.434 91.2687L151.769 91.9028L152.853 92.0683L153.93 92.2681L156.077 92.6886C161.815 93.7993 167.465 95.322 172.983 97.2448C178.502 99.1729 183.89 101.452 189.116 104.069C199.516 109.388 209.334 115.771 218.414 123.114C227.568 130.365 236.107 138.333 244.467 146.432C252.827 154.532 260.952 162.879 269.437 170.812C277.921 178.746 286.778 186.308 296.601 192.442C301.495 195.528 306.692 198.103 312.113 200.128C317.538 202.135 323.199 203.435 328.957 203.995C334.723 204.534 340.534 204.337 346.25 203.409C351.974 202.475 357.595 200.988 363.032 198.97C373.946 194.979 384.17 189.279 393.903 182.916L393.979 183.027L390.334 185.439L388.519 186.645C387.904 187.038 387.276 187.404 386.655 187.79L382.927 190.071L379.116 192.215C374.013 195.067 368.706 197.539 363.239 199.611C357.77 201.693 352.113 203.244 346.346 204.243C340.575 205.223 334.702 205.476 328.867 204.994C323.014 204.475 317.253 203.203 311.726 201.21C306.208 199.215 300.912 196.654 295.925 193.566C290.944 190.492 286.177 187.086 281.655 183.371C277.113 179.697 272.75 175.789 268.484 171.84C251.467 155.917 235.79 138.63 217.62 124.113C213.092 120.488 208.416 117.06 203.593 113.829C198.778 110.593 193.776 107.645 188.612 104.999C183.447 102.364 178.119 100.062 172.659 98.1064C167.191 96.1503 161.589 94.5885 155.898 93.433L153.765 92.9988L152.701 92.7851L151.624 92.6197L147.324 91.9304C144.438 91.6133 141.553 91.2411 138.653 91.0757C135.754 90.8206 132.847 90.8069 129.941 90.731L121.215 90.8758H119.034L116.852 90.9654C115.403 91.0067 113.953 91.1101 112.503 91.2204C111.054 91.3307 109.611 91.5099 108.168 91.6547C107.478 91.7443 106.732 91.8684 106.014 91.9717C105.296 92.0751 104.578 92.1854 103.867 92.3371C101.016 92.8518 98.2246 93.6532 95.535 94.7289C92.8353 95.7589 90.3532 97.2857 88.2175 99.2299C86.1437 101.231 84.7198 103.807 84.1307 106.626C83.5865 109.453 83.6053 112.36 84.186 115.18C84.7291 118.02 85.5238 120.807 86.5607 123.507C87.5686 126.216 88.7284 128.876 89.9364 131.516C92.3526 136.796 95.0173 141.973 97.254 147.37C98.4173 150.074 99.3189 152.883 99.9463 155.758C100.239 157.231 100.36 158.732 100.305 160.232C100.231 161.781 99.783 163.29 99.0005 164.63C98.1797 165.947 97.0494 167.045 95.7076 167.828L94.6928 168.366C94.3615 168.552 94.0025 168.655 93.6504 168.807C92.9518 169.08 92.2371 169.31 91.5104 169.496C88.6273 170.179 85.6717 170.51 82.7087 170.482C70.8741 170.549 59.2635 167.26 49.2276 160.997C44.2471 157.902 39.6056 154.293 35.3795 150.23C26.9091 142.131 19.992 132.578 14.1587 122.5C11.2536 117.451 8.61518 112.254 6.25441 106.929C3.86534 101.619 1.77724 96.1789 0 90.6345L0.131163 90.5932Z" fill="#664747"/>
<path d="M0.131163 97.5343C3.93574 108.517 8.83884 119.089 14.7662 129.09C20.6685 139.071 27.6823 148.445 36.0905 156.413C40.273 160.407 44.8661 163.949 49.7936 166.98C54.7147 170.004 60.036 172.324 65.6022 173.873C71.1623 175.411 76.9045 176.195 82.6741 176.203C85.5404 176.243 88.4009 175.935 91.1928 175.286C91.8778 175.113 92.5511 174.896 93.2086 174.638C93.5377 174.522 93.8603 174.389 94.1751 174.238L95.0932 173.756C96.2813 173.076 97.2859 172.118 98.0202 170.964C98.7106 169.78 99.1126 168.451 99.1938 167.083C99.263 165.677 99.1634 164.268 98.8969 162.886C98.3186 160.069 97.4678 157.315 96.3565 154.663C94.2027 149.286 91.5932 144.082 89.2392 138.754C88.0518 136.093 86.9197 133.398 85.9325 130.655C84.9143 127.908 84.1382 125.078 83.613 122.197C83.0435 119.302 83.0435 116.324 83.613 113.429C84.2427 110.521 85.7283 107.866 87.8792 105.806C90.0653 103.83 92.6038 102.282 95.3624 101.243C98.0998 100.192 100.932 99.4049 103.819 98.8922C104.509 98.7337 105.255 98.6303 105.973 98.52C106.691 98.4097 107.416 98.2856 108.14 98.196C109.59 98.0444 111.04 97.8307 112.496 97.7411C113.953 97.6515 115.403 97.5136 116.859 97.4654L119.048 97.3758L121.229 97.3413L129.969 97.1621C132.889 97.2104 135.809 97.2035 138.715 97.4309C141.635 97.5481 144.535 97.9134 147.434 98.2098L151.769 98.844L152.853 99.0025L153.93 99.2093L156.077 99.6229C161.813 100.74 167.463 102.263 172.983 104.179C178.491 106.109 183.87 108.386 189.089 110.996C199.498 116.318 209.326 122.705 218.414 130.055C227.483 137.389 236.178 145.172 244.467 153.374C252.841 161.473 260.952 169.82 269.437 177.754C277.921 185.687 286.778 193.249 296.601 199.384C301.495 202.469 306.692 205.044 312.113 207.069C317.538 209.076 323.199 210.376 328.957 210.936C334.723 211.475 340.534 211.278 346.25 210.35C351.974 209.416 357.595 207.929 363.032 205.911C373.946 201.913 384.17 196.22 393.903 189.851L393.979 189.968L390.334 192.38L388.519 193.58C387.904 193.979 387.276 194.345 386.655 194.731L382.927 197.012L379.116 199.149C374.013 202.003 368.706 204.477 363.239 206.552C357.769 208.631 352.112 210.182 346.346 211.184C340.575 212.166 334.702 212.416 328.867 211.929C323.02 211.425 317.263 210.167 311.74 208.186C306.222 206.191 300.926 203.629 295.938 200.542C290.955 197.47 286.183 194.069 281.655 190.361C277.113 186.687 272.75 182.779 268.484 178.829C251.467 162.9 235.79 145.612 217.62 131.103C213.092 127.477 208.416 124.049 203.593 120.818C198.778 117.583 193.776 114.634 188.612 111.989C183.446 109.357 178.117 107.054 172.659 105.096C167.191 103.142 161.589 101.582 155.898 100.429L153.765 99.9951L152.701 99.7814L151.624 99.616L147.324 98.9267C144.438 98.6027 141.553 98.2374 138.653 98.072C135.754 97.8169 132.847 97.7963 129.941 97.7273L121.215 97.8721H119.034L116.852 97.9548C115.403 97.9961 113.953 98.1064 112.503 98.2167C111.054 98.327 109.611 98.5062 108.168 98.651C107.478 98.7337 106.732 98.8646 106.014 98.968C105.296 99.0714 104.578 99.1817 103.867 99.3334C101.018 99.8271 98.2256 100.61 95.535 101.67C92.834 102.697 90.3514 104.225 88.2175 106.171C86.1452 108.17 84.7215 110.744 84.1307 113.56C83.5865 116.39 83.6053 119.299 84.186 122.121C84.7291 124.959 85.5238 127.743 86.5607 130.441C87.5686 133.157 88.7284 135.817 89.9364 138.457C92.3526 143.737 95.0173 148.914 97.254 154.311C98.4173 157.015 99.3189 159.824 99.9463 162.7C100.239 164.172 100.36 165.673 100.305 167.173C100.25 168.724 99.7992 170.234 98.9945 171.561C98.1897 172.889 97.0582 173.988 95.7076 174.755L94.6928 175.293C94.3615 175.472 94.0025 175.582 93.6504 175.734C92.9529 176.01 92.2381 176.241 91.5104 176.423C88.6282 177.112 85.6722 177.446 82.7087 177.416C70.8741 177.483 59.2635 174.194 49.2276 167.931C44.2463 164.842 39.6047 161.238 35.3795 157.178C26.9091 149.086 19.992 139.533 14.1587 129.455C11.2531 124.402 8.61474 119.2 6.25441 113.87C3.86534 108.56 1.77724 103.12 0 97.5757L0.131163 97.5343Z" fill="#664747"/>
<path d="M0.131163 104.475C3.93574 115.458 8.83884 126.03 14.7662 136.031C20.6892 146.012 27.703 155.386 36.1113 163.382C40.2973 167.372 44.89 170.913 49.8143 173.949C54.7354 176.973 60.0567 179.293 65.6229 180.841C71.183 182.38 76.9253 183.164 82.6948 183.171C85.5611 183.211 88.4216 182.903 91.2136 182.255C91.8985 182.081 92.5718 181.865 93.2293 181.607C93.5469 181.469 93.9196 181.372 94.1958 181.207L95.1139 180.724C96.2953 180.04 97.2926 179.08 98.0202 177.926C98.7096 176.742 99.1116 175.412 99.1938 174.045C99.2633 172.637 99.1636 171.225 98.8969 169.84C98.3166 167.024 97.4659 164.27 96.3565 161.617C94.2027 156.248 91.5932 151.037 89.2392 145.715C88.0518 143.048 86.9197 140.36 85.9325 137.609C84.9135 134.866 84.1374 132.038 83.613 129.159C83.0435 126.264 83.0435 123.286 83.613 120.391C84.2411 117.482 85.727 114.826 87.8792 112.767C90.0643 110.802 92.6007 109.266 95.3555 108.239C98.0933 107.169 100.927 106.363 103.819 105.833C104.509 105.675 105.255 105.571 105.973 105.461C106.691 105.351 107.416 105.22 108.14 105.137C109.59 104.985 111.04 104.772 112.496 104.682C113.953 104.592 115.403 104.455 116.859 104.406L119.048 104.31H121.229L129.969 104.131C132.889 104.179 135.809 104.172 138.715 104.399C141.635 104.51 144.535 104.882 147.434 105.171L151.769 105.812L152.853 105.971L153.93 106.178L156.077 106.591C161.813 107.709 167.463 109.231 172.983 111.148C178.501 113.081 183.889 115.363 189.116 117.978C199.516 123.287 209.335 129.66 218.414 136.996C227.483 144.33 236.178 152.113 244.467 160.314C252.841 168.414 260.952 176.761 269.437 184.695C277.921 192.628 286.778 200.19 296.601 206.324C301.493 209.41 306.691 211.983 312.113 214.003C317.536 216.016 323.198 217.318 328.957 217.877C334.723 218.413 340.534 218.216 346.25 217.291C351.974 216.354 357.594 214.867 363.032 212.852C373.946 208.854 384.17 203.154 393.903 196.792L393.979 196.909L390.334 199.314L388.519 200.521C387.904 200.92 387.276 201.286 386.655 201.672L382.927 203.953L379.116 206.09C374.013 208.944 368.706 211.418 363.239 213.493C357.77 215.573 352.113 217.122 346.346 218.118C340.575 219.105 334.702 219.358 328.867 218.869C323.018 218.35 317.261 217.076 311.74 215.078C306.222 213.081 300.926 210.517 295.938 207.427C290.955 204.358 286.183 200.96 281.655 197.253C277.113 193.58 272.75 189.671 268.484 185.722C251.467 169.792 235.79 152.505 217.62 137.995C213.092 134.37 208.416 130.939 203.593 127.704C198.778 124.471 193.776 121.524 188.612 118.881C183.446 116.249 178.117 113.947 172.659 111.988C167.191 110.035 161.589 108.475 155.898 107.322L153.765 106.888L152.701 106.674L151.624 106.502L147.324 105.812C144.438 105.495 141.553 105.123 138.653 104.958C135.754 104.71 132.847 104.689 129.941 104.613L121.215 104.792H119.006L116.825 104.875C115.375 104.916 113.925 105.02 112.476 105.137C111.026 105.254 109.583 105.426 108.14 105.571C107.45 105.654 106.705 105.785 105.987 105.888C105.269 105.992 104.551 106.095 103.84 106.254C100.999 106.756 98.2159 107.546 95.535 108.611C92.8327 109.636 90.3496 111.163 88.2175 113.112C86.1425 115.109 84.7183 117.684 84.1307 120.501C83.5865 123.331 83.6053 126.24 84.186 129.062C84.7291 131.9 85.5238 134.684 86.5607 137.382C87.5686 140.098 88.7284 142.758 89.9364 145.398C92.3526 150.678 95.0173 155.855 97.254 161.252C98.4183 163.956 99.3199 166.765 99.9463 169.641C100.239 171.113 100.36 172.614 100.305 174.114C100.25 175.665 99.7992 177.175 98.9945 178.502C98.1897 179.83 97.0582 180.929 95.7076 181.696L94.6928 182.234C94.3615 182.413 94.0025 182.523 93.6504 182.675C92.9518 182.948 92.2372 183.178 91.5104 183.364C88.6282 184.053 85.6722 184.386 82.7087 184.357C70.8741 184.424 59.2635 181.135 49.2276 174.872C44.2454 171.777 39.6037 168.166 35.3795 164.099C26.9091 156.006 19.992 146.446 14.1587 136.376C11.2545 131.321 8.61611 126.119 6.25441 120.791C3.86534 115.48 1.77724 110.04 0 104.496L0.131163 104.475Z" fill="#664747"/>
<path d="M0.131163 111.416C3.93574 122.399 8.83884 132.971 14.7662 142.972C20.6685 152.953 27.6823 162.327 36.0905 170.295C40.2766 174.285 44.8693 177.827 49.7936 180.862C54.7162 183.883 60.0371 186.203 65.6022 187.755C71.163 189.29 76.9048 190.074 82.6741 190.085C85.5408 190.126 88.4018 189.816 91.1928 189.161C91.8777 188.99 92.5509 188.776 93.2086 188.52C93.5262 188.382 93.8989 188.286 94.1751 188.12L95.0932 187.631C96.2743 186.949 97.2717 185.991 97.9995 184.839C98.6889 183.655 99.0909 182.326 99.1731 180.959C99.2425 179.55 99.1429 178.139 98.8762 176.754C98.2969 173.938 97.4462 171.184 96.3358 168.531C94.182 163.161 91.5725 157.95 89.2185 152.629C88.0311 149.961 86.899 147.273 85.9118 144.523C84.8937 141.779 84.1176 138.951 83.5923 136.072C83.0228 133.177 83.0228 130.199 83.5923 127.304C84.2188 124.394 85.7049 121.739 87.8585 119.681C90.0481 117.706 92.5918 116.163 95.3555 115.132C98.0949 114.078 100.929 113.289 103.819 112.774C104.509 112.616 105.255 112.505 105.973 112.395C106.691 112.285 107.416 112.161 108.14 112.071C109.59 111.92 111.04 111.713 112.496 111.623C113.953 111.534 115.403 111.396 116.859 111.347L119.048 111.251L121.229 111.217L129.969 111.044C132.889 111.092 135.809 111.086 138.715 111.306C141.622 111.527 144.535 111.795 147.434 112.085L151.769 112.726L152.853 112.885L153.93 113.091L156.077 113.505C161.813 114.622 167.463 116.145 172.983 118.061C178.5 119.992 183.889 122.271 189.116 124.885C199.516 130.204 209.334 136.587 218.414 143.93C227.568 151.188 236.107 159.15 244.467 167.256C252.827 175.362 260.952 183.702 269.437 191.636C277.921 199.569 286.778 207.131 296.601 213.266C301.493 216.351 306.691 218.925 312.113 220.944C317.537 222.954 323.199 224.256 328.957 224.818C334.723 225.35 340.533 225.154 346.25 224.232C351.973 223.292 357.593 221.805 363.032 219.793C373.946 215.795 384.17 210.095 393.903 203.733L393.979 203.85L390.334 206.256L388.539 207.496C387.925 207.889 387.297 208.261 386.676 208.647L382.948 210.922L379.137 213.011C374.035 215.865 368.728 218.337 363.26 220.407C357.791 222.489 352.134 224.04 346.367 225.039C340.59 226.034 334.71 226.294 328.867 225.811C323.015 225.29 317.254 224.021 311.726 222.033C306.214 220.035 300.923 217.473 295.938 214.389C290.955 211.32 286.183 207.921 281.655 204.215C277.113 200.541 272.75 196.633 268.484 192.677C251.467 176.754 235.79 159.467 217.62 144.95C213.092 141.325 208.416 137.897 203.593 134.666C198.778 131.43 193.776 128.482 188.612 125.836C183.446 123.204 178.117 120.902 172.659 118.943C167.19 116.99 161.589 115.429 155.898 114.27L153.765 113.843L152.701 113.629L151.624 113.457L147.324 112.767C144.438 112.45 141.553 112.078 138.653 111.913C135.754 111.665 132.847 111.644 129.941 111.568L121.215 111.685H119.034L116.852 111.775C115.403 111.816 113.953 111.92 112.503 112.037C111.054 112.154 109.611 112.326 108.168 112.471C107.478 112.554 106.732 112.678 106.014 112.781C105.296 112.885 104.578 112.995 103.867 113.153C101.015 113.667 98.2233 114.471 95.535 115.552C92.8327 116.577 90.3496 118.104 88.2175 120.053C86.1425 122.05 84.7183 124.625 84.1307 127.442C83.5865 130.272 83.6053 133.181 84.186 136.003C84.73 138.841 85.5247 141.625 86.5607 144.323C87.5686 147.039 88.7284 149.699 89.9364 152.339C92.3526 157.619 95.0173 162.796 97.254 168.193C98.4183 170.897 99.3199 173.706 99.9463 176.582C100.24 178.054 100.36 179.555 100.305 181.055C100.25 182.606 99.7992 184.116 98.9945 185.444C98.1897 186.771 97.0582 187.87 95.7076 188.637L94.6928 189.175C94.3615 189.354 94.0025 189.464 93.6504 189.616C92.9518 189.889 92.2372 190.119 91.5104 190.305C88.6285 190.995 85.6721 191.327 82.7087 191.291C70.8729 191.367 59.26 188.077 49.2276 181.806C44.2439 178.716 39.6021 175.107 35.3795 171.04C26.9091 162.948 19.992 153.387 14.1587 143.31C11.2544 138.258 8.6161 133.058 6.25441 127.732C3.86534 122.422 1.77724 116.981 0 111.437L0.131163 111.416Z" fill="#664747"/>
<path d="M0.131163 118.358C3.9356 129.338 8.83872 139.908 14.7662 149.906C20.6685 159.887 27.6823 169.268 36.0905 177.237C40.2766 181.226 44.8693 184.768 49.7936 187.803C54.7162 190.825 60.0371 193.145 65.6022 194.696C71.163 196.231 76.9048 197.015 82.6741 197.026C85.5408 197.067 88.4018 196.757 91.1928 196.102C91.8777 195.931 92.5509 195.717 93.2086 195.461C93.5262 195.324 93.8989 195.227 94.1751 195.062L95.0932 194.572C96.2743 193.891 97.2717 192.933 97.9995 191.781C98.688 190.596 99.0899 189.267 99.1731 187.9C99.2425 186.492 99.1429 185.08 98.8762 183.695C98.2969 180.879 97.4462 178.125 96.3358 175.472C94.182 170.102 91.5725 164.891 89.2185 159.563C88.0311 156.903 86.899 154.214 85.9118 151.464C84.8937 148.72 84.1176 145.892 83.5923 143.013C83.0228 140.119 83.0228 137.141 83.5923 134.246C84.2188 131.336 85.7049 128.68 87.8585 126.622C90.0411 124.642 92.5805 123.093 95.3417 122.059C98.0861 121.009 100.925 120.225 103.819 119.716C104.509 119.557 105.255 119.447 105.973 119.336C106.691 119.226 107.416 119.102 108.14 119.012C109.59 118.861 111.04 118.647 112.496 118.564C113.953 118.482 115.403 118.337 116.859 118.289L119.048 118.192L121.229 118.158L129.969 117.979C132.889 118.034 135.809 118.027 138.715 118.247C141.622 118.468 144.535 118.737 147.434 119.026L151.769 119.667L152.853 119.826L153.93 120.033L156.077 120.446C161.815 121.557 167.465 123.08 172.983 125.002C178.502 126.93 183.89 129.21 189.116 131.826C199.516 137.146 209.334 143.528 218.414 150.871C227.568 158.123 236.107 166.091 244.467 174.19C252.827 182.289 260.952 190.643 269.437 198.577C277.921 206.511 286.778 214.072 296.601 220.207C301.493 223.293 306.691 225.866 312.113 227.885C317.537 229.895 323.199 231.197 328.957 231.759C334.723 232.292 340.533 232.095 346.25 231.173C351.973 230.233 357.593 228.746 363.032 226.734C373.946 222.736 384.17 217.036 393.903 210.674L393.979 210.784L390.334 213.197L388.539 214.389C387.925 214.782 387.297 215.154 386.676 215.533L382.948 217.815L379.137 219.959C374.035 222.813 368.728 225.285 363.26 227.355C357.791 229.437 352.134 230.988 346.367 231.987C340.589 232.977 334.71 233.234 328.867 232.752C323.015 232.231 317.254 230.962 311.726 228.975C306.209 226.975 300.914 224.411 295.925 221.323C290.94 218.255 286.168 214.853 281.642 211.143C277.099 207.469 272.736 203.56 268.47 199.611C251.453 183.688 235.776 166.401 217.606 151.885C213.078 148.259 208.402 144.831 203.579 141.6C198.764 138.365 193.762 135.416 188.599 132.771C183.432 130.138 178.104 127.836 172.645 125.878C167.176 123.925 161.575 122.363 155.884 121.204L153.751 120.777L152.688 120.563L151.611 120.391L147.31 119.702C144.424 119.385 141.539 119.012 138.639 118.847C135.74 118.599 132.834 118.578 129.927 118.502L121.202 118.654H119.02L116.839 118.744C115.389 118.785 113.939 118.888 112.49 119.006C111.04 119.123 109.597 119.288 108.154 119.44C107.464 119.523 106.718 119.647 106 119.75C105.283 119.853 104.565 119.964 103.854 120.122C101.007 120.628 98.2199 121.422 95.535 122.493C92.8343 123.518 90.3517 125.043 88.2175 126.988C86.1437 128.988 84.7198 131.565 84.1307 134.384C83.5865 137.213 83.6053 140.122 84.186 142.945C84.73 145.782 85.5247 148.566 86.5607 151.264C87.5686 153.98 88.7284 156.641 89.9364 159.281C92.3526 164.561 95.0173 169.737 97.254 175.134C98.4183 177.838 99.3199 180.647 99.9463 183.523C100.24 184.995 100.36 186.496 100.305 187.996C100.25 189.547 99.7992 191.058 98.9945 192.385C98.1897 193.712 97.0582 194.811 95.7076 195.579L94.6928 196.109C94.3541 196.276 94.0061 196.424 93.6504 196.55C92.9518 196.823 92.2371 197.054 91.5104 197.24C88.6279 197.926 85.6719 198.257 82.7087 198.225C70.8729 198.301 59.26 195.012 49.2276 188.741C44.2455 185.648 39.6039 182.039 35.3795 177.974C26.9091 169.909 19.992 160.349 14.1587 150.285C11.2544 145.234 8.6161 140.034 6.25441 134.708C3.86418 129.395 1.77606 123.953 0 118.406L0.131163 118.358Z" fill="#664747"/>
</g>
<defs>
<clipPath id="clip0_1519_627">
<rect width="394" height="233" fill="white"/>
</clipPath>
</defs>
</svg>
