<?xml version="1.0" encoding="utf-8"?>
<!-- Generator: Adobe Illustrator 24.1.2, SVG Export Plug-In . SVG Version: 6.00 Build 0)  -->
<svg version="1.1" id="Layer_1" xmlns="http://www.w3.org/2000/svg" xmlns:xlink="http://www.w3.org/1999/xlink" x="0px" y="0px"
	 viewBox="0 0 295 55" style="enable-background:new 0 0 295 55;" xml:space="preserve">
<style type="text/css">
	.st0{fill:#664747;}
</style>
<path class="st0" d="M-0.4,14.9c8.3-2.4,16.7-4.4,25.1-6.1S41.5,5.5,50,4.2C67,1.7,84-0.1,101.2-0.4c1.1,0,2.1,0.1,3.2,0.1
	c1.1,0.1,2.1,0.2,3.3,0.5c0.6,0.1,1.1,0.3,1.6,0.6c0.3,0.1,0.5,0.3,0.8,0.5c0.2,0.2,0.5,0.6,0.6,0.9c0.1,0.4,0.1,0.8,0,1.1
	c-0.1,0.3-0.2,0.6-0.4,0.9c-0.3,0.6-0.7,1-1.1,1.4c-1.6,1.6-3.5,2.9-5.3,4.1c-1.9,1.2-3.8,2.3-5.6,3.4c-3.8,2.2-7.7,4.2-11.5,6.4
	c-3.8,2.1-7.7,4.2-11.4,6.6c-1.9,1.1-3.7,2.3-5.5,3.6c-1.8,1.2-3.6,2.6-5.2,4.1c-0.8,0.7-1.6,1.6-2.2,2.5c-0.6,0.9-1.1,2-1,3.1
	c0.2,1.1,1.1,1.8,2,2.3c1,0.5,2,0.9,3,1.2c2,0.6,4.2,0.8,6.3,1.1c1.1,0.1,2.1,0.1,3.2,0.2c1.1,0.1,2.1,0.1,3.2,0.1
	c2.1,0,4.3,0,6.4-0.1c2.1-0.1,4.3-0.2,6.4-0.3c8.5-0.6,17.1-1.5,25.5-2.6c8.5-1.1,16.9-2.3,25.5-3.6c16.9-2.6,33.8-5.6,50.7-8.7
	C227.2,22.6,260.9,16,294.5,9v0.1c-16.7,3.9-33.5,7.6-50.3,11.1c-16.8,3.5-33.6,6.9-50.5,9.9c-8.4,1.6-16.9,3.1-25.3,4.5
	s-16.9,2.8-25.4,4.1c-4.2,0.6-8.5,1.2-12.7,1.8l-6.4,0.8c-2.1,0.2-4.2,0.6-6.4,0.7c-8.5,1-17.1,1.9-25.6,2.3
	c-2.1,0.1-4.3,0.2-6.4,0.2c-2.1,0.1-4.3,0.1-6.4,0.1c-1.1,0-2.1-0.1-3.2-0.1c-1.1-0.1-2.1-0.1-3.2-0.2c-2.1-0.3-4.3-0.5-6.4-1.1
	c-1-0.3-2.1-0.7-3-1.2c-0.5-0.2-1-0.6-1.4-1c-0.4-0.4-0.7-1-0.8-1.6c-0.1-0.6,0-1.3,0.2-1.9c0.2-0.6,0.5-1.1,0.8-1.6
	c0.7-0.9,1.5-1.8,2.3-2.6c3.3-3,7-5.4,10.8-7.7c3.7-2.3,7.5-4.4,11.4-6.6c3.8-2.2,7.6-4.3,11.4-6.6c1.9-1.1,3.8-2.2,5.6-3.5
	c1.8-1.2,3.7-2.5,5.2-4c0.4-0.4,0.7-0.8,1-1.2c0.3-0.4,0.5-0.9,0.3-1.2c-0.1-0.4-0.5-0.7-1-0.9c-0.5-0.2-1-0.4-1.5-0.5
	c-2-0.4-4.2-0.5-6.3-0.6c-8.6,0.2-17.1,0.9-25.6,1.6l-6.4,0.6c-2.1,0.2-4.2,0.5-6.4,0.7l-3.2,0.4l-3.2,0.4c-2.1,0.3-4.2,0.6-6.4,0.9
	c-8.4,1.2-16.9,2.6-25.3,4.3C16.4,11.1,8,12.8-0.4,15V14.9z"/>
<path class="st0" d="M-0.4,18.2c8.3-2.3,16.6-4.3,25.1-6.1c8.4-1.7,16.8-3.3,25.3-4.6C67,5,84,3.2,101.2,2.9c1.1,0,2.1,0.1,3.2,0.1
	c1.1,0.1,2.1,0.2,3.3,0.5c0.6,0.1,1.1,0.3,1.6,0.6c0.3,0.1,0.5,0.3,0.8,0.5c0.2,0.2,0.5,0.6,0.6,0.9c0.1,0.4,0.1,0.8,0,1.1
	c-0.1,0.3-0.2,0.6-0.4,0.9c-0.3,0.6-0.7,1-1.1,1.4c-1.6,1.6-3.5,2.9-5.3,4.1c-1.9,1.2-3.8,2.3-5.6,3.4c-3.8,2.2-7.7,4.2-11.5,6.4
	c-3.8,2.1-7.7,4.2-11.4,6.6c-1.9,1.1-3.7,2.3-5.5,3.6c-1.8,1.2-3.6,2.6-5.2,4.1c-0.8,0.7-1.6,1.6-2.2,2.5c-0.6,0.9-1.1,2-1,3.1
	c0.2,1.1,1.1,1.8,2,2.3c1,0.5,2,0.9,3,1.2c2,0.6,4.2,0.8,6.3,1.1c1.1,0.1,2.1,0.1,3.2,0.2c1.1,0.1,2.1,0.1,3.2,0.1
	c2.1,0,4.3,0,6.4-0.1c2.1-0.1,4.3-0.2,6.4-0.3c8.5-0.6,17.1-1.5,25.5-2.6c8.5-1.1,16.9-2.3,25.5-3.6c16.9-2.6,33.8-5.6,50.7-8.7
	c33.7-6.2,67.4-12.9,101-19.8v0.1c-16.7,3.9-33.5,7.6-50.3,11c-16.8,3.5-33.6,6.9-50.5,9.9c-8.4,1.6-16.9,3.1-25.3,4.5
	c-8.4,1.4-16.9,2.8-25.4,4.1c-4.2,0.6-8.5,1.2-12.7,1.8l-6.5,0.9c-2.1,0.2-4.2,0.6-6.4,0.7c-8.5,1-17.1,1.9-25.6,2.3
	c-2.1,0.1-4.3,0.2-6.4,0.2C83.3,48,81.2,48,79,48c-1.1,0-2.1-0.1-3.2-0.1c-1.1-0.1-2.1-0.1-3.2-0.2c-2.1-0.3-4.3-0.5-6.4-1.1
	c-1-0.3-2.1-0.7-3-1.2c-0.5-0.2-1-0.6-1.4-1c-0.4-0.4-0.7-1-0.8-1.6c-0.1-0.6,0-1.3,0.2-1.9c0.2-0.6,0.5-1.1,0.8-1.6
	c0.7-0.9,1.5-1.8,2.3-2.6c3.3-3,7-5.4,10.8-7.7c3.7-2.3,7.5-4.4,11.4-6.6c3.8-2.2,7.6-4.3,11.4-6.6c1.9-1.1,3.8-2.2,5.6-3.5
	c1.8-1.2,3.7-2.5,5.2-4c0.4-0.4,0.7-0.8,1-1.2c0.3-0.4,0.5-0.9,0.3-1.2c-0.1-0.4-0.5-0.7-1-0.9c-0.5-0.2-1-0.4-1.5-0.5
	c-2-0.4-4.2-0.5-6.3-0.6C92.7,4,84.2,4.7,75.7,5.5l-6.4,0.6c-2.1,0.2-4.2,0.5-6.4,0.7l-3.2,0.4l-3.2,0.4c-2.1,0.3-4.2,0.6-6.4,0.9
	c-8.4,1.2-16.9,2.6-25.3,4.3C16.4,14.4,8,16.1-0.4,18.3V18.2z"/>
<path class="st0" d="M-0.4,21.5c8.3-2.4,16.7-4.4,25.1-6.1c8.4-1.7,16.8-3.3,25.3-4.6C67,8.3,84,6.5,101.2,6.2
	c1.1,0,2.1,0.1,3.2,0.1c1.1,0.1,2.1,0.2,3.3,0.5c0.6,0.1,1.1,0.3,1.6,0.6c0.3,0.1,0.5,0.3,0.8,0.5c0.2,0.2,0.5,0.6,0.6,0.9
	c0.1,0.4,0.1,0.8,0,1.1c-0.1,0.3-0.2,0.6-0.4,0.9c-0.3,0.6-0.7,1-1.1,1.4c-1.6,1.6-3.5,2.9-5.3,4.1c-1.9,1.2-3.8,2.3-5.6,3.4
	c-3.8,2.2-7.7,4.2-11.5,6.4c-3.8,2.1-7.7,4.2-11.4,6.6c-1.9,1.1-3.7,2.3-5.5,3.6c-1.8,1.2-3.6,2.6-5.2,4.1c-0.8,0.7-1.6,1.6-2.2,2.5
	c-0.6,0.9-1.1,2-1,3.1c0.2,1.1,1.1,1.8,2,2.3c1,0.5,2,0.9,3,1.2c2,0.6,4.2,0.8,6.3,1.1c1.1,0.1,2.1,0.1,3.2,0.2
	c1.1,0.1,2.1,0.1,3.2,0.1c2.1,0,4.3,0,6.4-0.1c2.1-0.1,4.3-0.2,6.4-0.3c8.5-0.6,17.1-1.5,25.5-2.6c8.5-1.1,16.9-2.3,25.5-3.6
	c16.9-2.6,33.8-5.6,50.7-8.7c33.7-6.2,67.4-12.9,101-19.8v0.1c-16.7,3.9-33.5,7.6-50.3,11c-16.8,3.5-33.6,6.9-50.5,9.9
	c-8.4,1.6-16.9,3.1-25.3,4.5c-8.4,1.4-16.9,2.8-25.4,4.1c-4.2,0.6-8.5,1.2-12.7,1.8l-6.4,0.8c-2.1,0.2-4.2,0.6-6.4,0.7
	c-8.5,1-17.1,1.9-25.6,2.3c-2.1,0.1-4.3,0.2-6.4,0.2c-2.1,0.1-4.3,0.1-6.4,0.1c-1.1,0-2.1-0.1-3.2-0.1c-1.1-0.1-2.1-0.1-3.2-0.2
	c-2.1-0.3-4.3-0.5-6.4-1.1c-1-0.3-2.1-0.7-3-1.2c-0.5-0.2-1-0.6-1.4-1c-0.4-0.4-0.7-1-0.8-1.6c-0.1-0.6,0-1.3,0.2-1.9
	c0.2-0.6,0.5-1.1,0.8-1.6c0.7-0.9,1.5-1.8,2.3-2.6c3.3-3,7-5.4,10.8-7.7c3.7-2.3,7.5-4.4,11.4-6.6c3.8-2.2,7.6-4.3,11.4-6.6
	c1.9-1.1,3.8-2.2,5.6-3.5c1.8-1.2,3.7-2.5,5.2-4c0.4-0.4,0.7-0.8,1-1.2s0.5-0.9,0.3-1.2c-0.1-0.4-0.5-0.7-1-0.9
	c-0.5-0.2-1-0.4-1.5-0.5c-2-0.4-4.2-0.5-6.3-0.6C92.9,7.3,84.3,8,75.8,8.7l-6.4,0.6c-2.1,0.2-4.2,0.5-6.4,0.7l-3.2,0.4l-3.2,0.4
	c-2.1,0.3-4.2,0.6-6.4,0.9C41.9,13,33.4,14.4,25,16.1C16.4,17.7,8,19.5-0.3,21.6L-0.4,21.5z"/>
<path class="st0" d="M-0.4,24.8c8.3-2.4,16.7-4.4,25.1-6.1c8.4-1.7,16.8-3.3,25.3-4.6c16.9-2.5,34-4.3,51.2-4.6
	c1.1,0,2.1,0.1,3.2,0.1c1.1,0.1,2.1,0.2,3.3,0.5c0.6,0.1,1.1,0.3,1.6,0.6c0.3,0.1,0.5,0.3,0.8,0.5c0.2,0.2,0.5,0.6,0.6,0.9
	c0.1,0.4,0.1,0.8,0,1.1c-0.1,0.3-0.2,0.6-0.4,0.9c-0.3,0.6-0.7,1-1.1,1.4c-1.6,1.6-3.5,2.9-5.3,4.1c-1.9,1.2-3.8,2.3-5.6,3.4
	c-3.8,2.2-7.7,4.2-11.5,6.4c-3.8,2.1-7.7,4.2-11.4,6.6c-1.9,1.1-3.7,2.3-5.5,3.6c-1.8,1.2-3.6,2.6-5.2,4.1c-0.8,0.7-1.6,1.6-2.2,2.5
	c-0.6,0.9-1.1,2-1,3.1c0.2,1.1,1.1,1.8,2,2.3c1,0.5,2,0.9,3,1.2c2,0.6,4.2,0.8,6.3,1.1c1.1,0.1,2.1,0.1,3.2,0.2
	c1.1,0.1,2.1,0.1,3.2,0.1c2.1,0,4.3,0,6.4-0.1c2.1-0.1,4.3-0.2,6.4-0.3c8.5-0.6,17.1-1.5,25.5-2.6c8.5-1.1,16.9-2.3,25.5-3.6
	c16.9-2.6,33.8-5.6,50.7-8.7c33.6-6.1,67.2-12.8,100.8-19.8v0.1c-16.7,3.9-33.5,7.6-50.3,11S210.5,37,193.6,40
	c-8.4,1.6-16.9,3.1-25.3,4.5c-8.4,1.4-16.9,2.8-25.4,4.1c-4.2,0.6-8.5,1.2-12.7,1.8l-6.4,0.8c-2.1,0.2-4.2,0.6-6.4,0.7
	c-8.5,1-17.1,1.9-25.6,2.3c-2.1,0.1-4.3,0.2-6.4,0.2c-2.1,0.1-4.3,0.1-6.4,0.1c-1.1,0-2.1-0.1-3.2-0.1c-1.1-0.1-2.1-0.1-3.2-0.2
	c-2.1-0.3-4.3-0.5-6.4-1.1c-1-0.3-2.1-0.7-3-1.2c-0.5-0.2-1-0.6-1.4-1c-0.4-0.4-0.7-1-0.8-1.6c-0.1-0.6,0-1.3,0.2-1.9
	c0.2-0.6,0.5-1.1,0.8-1.6c0.7-0.9,1.5-1.8,2.3-2.6c3.3-3,7-5.4,10.8-7.7c3.7-2.3,7.5-4.4,11.4-6.6c3.8-2.2,7.6-4.3,11.4-6.6
	c1.9-1.1,3.8-2.2,5.6-3.5c1.8-1.2,3.7-2.5,5.2-4c0.4-0.4,0.7-0.8,1-1.2c0.3-0.4,0.5-0.9,0.3-1.2c-0.1-0.4-0.5-0.7-1-0.9
	c-0.5-0.2-1-0.4-1.5-0.5c-2-0.4-4.2-0.5-6.3-0.6c-8.5,0.1-17.1,0.8-25.6,1.6l-6.4,0.6c-2.1,0.2-4.2,0.5-6.4,0.7l-3.2,0.4l-3.2,0.4
	c-2.1,0.3-4.2,0.6-6.4,0.9c-8.4,1.2-16.9,2.6-25.3,4.3C16.4,21.1,8,22.9-0.3,25L-0.4,24.8z"/>
</svg>
