<svg width="50" height="50" viewBox="0 0 50 50" fill="none" xmlns="http://www.w3.org/2000/svg">
<path d="M42.7084 5.20831H7.29169L10.4167 40.625L25 44.7916L39.5834 40.625L42.7084 5.20831Z" fill="#0277BD"/>
<path d="M25 8.33331V41.5625L36.6667 38.2291L39.2708 8.33331H25Z" fill="#039BE5"/>
<path d="M34.4792 13.5417H25V17.7084H30.1042L29.7917 21.875H25V26.0417H29.5833L29.2708 30.7292L25 32.1875V36.5625L33.2292 33.8542L33.9583 21.875L34.4792 13.5417Z" fill="white"/>
<path d="M25 13.5417V17.7084H15.7292L15.4167 13.5417H25ZM20.2084 21.875L20.4167 26.0417H25V21.875H20.2084ZM20.625 28.125H16.4584L16.7709 33.8542L25 36.5625V32.1875L20.7292 30.7292L20.625 28.125Z" fill="#EEEEEE"/>
</svg>
