<svg width="50" height="50" viewBox="0 0 50 50" fill="none" xmlns="http://www.w3.org/2000/svg">
<path d="M6.25 10.4167C6.25 8.11562 8.11562 6.25 10.4167 6.25H39.5833C41.8844 6.25 43.75 8.11562 43.75 10.4167V39.5833C43.75 41.8844 41.8844 43.75 39.5833 43.75H10.4167C8.11562 43.75 6.25 41.8844 6.25 39.5833V10.4167Z" fill="#B388FF"/>
<path d="M9.375 9.375V40.625H40.625V9.375H9.375Z" fill="#170B40"/>
<path d="M16.925 17.5406L19.6885 28.3375H19.7521L22.5479 17.5406H26.4771V32.2459H23.4802V27.9729L23.7344 22.2563L23.6708 22.2469L20.7271 32.2459H18.726L15.8146 22.3281L15.751 22.3386L16.0156 27.974V32.2469H13.0187V17.5406H16.925Z" fill="#B388FF"/>
<path d="M33.0218 32.4593C31.5812 32.4593 30.4385 32.0073 29.5906 31.1052C28.7427 30.2031 28.3198 29.0646 28.3198 27.6916V26.1562C28.3198 24.6812 28.7125 23.4729 29.5 22.5312C30.2875 21.5885 31.376 21.1166 32.7666 21.1166C34.1083 21.1166 35.1458 21.5448 35.8802 22.3989C36.6146 23.2541 36.9823 24.4187 36.9823 25.8937V27.651H31.3166V27.6916C31.3166 28.4114 31.4875 29.0052 31.8302 29.4698C32.1729 29.9333 32.6896 30.1666 33.3823 30.1666C33.9468 30.1666 34.4052 30.1052 34.7583 29.9843C35.1114 29.8635 35.5312 29.6604 36.0187 29.3781L36.7812 31.2062C36.3854 31.5708 35.8583 31.8698 35.1979 32.1052C34.5375 32.3406 33.8125 32.4593 33.0218 32.4593ZM32.7677 23.4083C32.2875 23.4083 31.9343 23.6187 31.7083 24.0375C31.4823 24.4562 31.3552 25.0208 31.3271 25.7312H34.0271V25.325C34.0271 24.7166 33.9281 24.2448 33.7302 23.9104C33.5333 23.576 33.2125 23.4083 32.7677 23.4083Z" fill="#B388FF"/>
</svg>
