<svg width="140" height="110" viewBox="0 0 140 110" fill="none" xmlns="http://www.w3.org/2000/svg">
<g clip-path="url(#clip0_317_44)">
<path d="M28.2731 25.6294L28.4446 0.0853337L53.9864 0.00561523V25.6294H28.2731Z" fill="#664747"/>
<path d="M82.6595 0.00561523H56.9463V25.6294H82.6595V0.00561523Z" fill="#E6E6E6"/>
<path d="M140 0H114.287V25.6238H140V0Z" fill="#E6E6E6"/>
<path d="M53.9864 29.53H28.2731V55.1538H53.9864V29.53Z" fill="#664747"/>
<path d="M82.6538 29.53H56.9406V55.1538H82.6538V29.53Z" fill="#E6E6E6"/>
<path d="M85.6194 29.53H111.333L98.6188 55.1538L85.6194 29.53Z" fill="#664747"/>
<path d="M98.6188 25.5327L85.6194 0V25.6238H111.333V0L98.6188 25.5327Z" fill="#664747"/>
<path d="M140 29.5242H114.287V55.1479H140V29.5242Z" fill="#E6E6E6"/>
<path d="M0 84.678H25.7132V59.0542L0 84.678Z" fill="#664747"/>
<path d="M12.8566 68.0852H0V80.8971L12.8566 68.0852Z" fill="#664747"/>
<path d="M54.1864 59.0542H28.4731V84.678H54.1864V59.0542Z" fill="#664747"/>
<path d="M82.5109 59.0542H56.7977V84.678H82.5109V59.0542Z" fill="#E6E6E6"/>
<path d="M140 59.0542H114.287V84.678H140V59.0542Z" fill="#CCCCCC"/>
<path d="M5.97116 110H3.42841V90.4292H5.9483L12.8052 102.347H12.9194L19.7477 90.4292H22.2848V110H19.742V98.384L19.8506 95.1041H19.742L13.5994 105.843H12.1138L5.97116 95.0927H5.86259L5.97116 98.3726V110Z" fill="#E6E6E6"/>
<path d="M46.8552 90.4292V92.8151H37.9184V99.0217H45.981V101.373H37.9184V107.62H46.8552V110.029H35.3928V90.4292H46.8552Z" fill="#E6E6E6"/>
<path d="M61.8203 110V90.4292H67.8258C70.8276 90.4292 73.237 91.3308 75.0541 93.1339C76.8711 94.9371 77.7797 97.2983 77.7797 100.217C77.7797 103.156 76.8711 105.521 75.0541 107.312C73.237 109.104 70.8276 110.002 67.8258 110.006L61.8203 110ZM64.3402 92.8151V107.62H67.8258C70.1114 107.62 71.9132 106.969 73.2313 105.667C74.5493 104.365 75.2064 102.556 75.2026 100.24C75.2026 97.9626 74.5455 96.1594 73.2313 94.8308C71.917 93.5021 70.1152 92.8302 67.8258 92.8151H64.3402Z" fill="#E6E6E6"/>
<path d="M99.7388 110H97.2132V90.4292H99.7388V110Z" fill="#E6E6E6"/>
<path d="M121.138 110H118.344L125.772 90.4292H128.629L136.057 110H133.257L131.366 104.699H123.029L121.138 110ZM127.12 93.487L123.909 102.319H130.44L127.229 93.487H127.12Z" fill="#E6E6E6"/>
</g>
<defs>
<clipPath id="clip0_317_44">
<rect width="140" height="110" fill="white"/>
</clipPath>
</defs>
</svg>
