<svg width="40" height="40" viewBox="0 0 40 40" fill="none" xmlns="http://www.w3.org/2000/svg">
<path d="M38.75 17.8125L21.7708 0.833334C21.25 0.3125 20.5208 0 19.7917 0C19.0625 0 18.3333 0.3125 17.8125 0.833334L14.1667 4.47917L18.4375 8.75C18.8542 8.54167 19.2708 8.4375 19.7917 8.4375C21.5625 8.4375 22.9167 9.79167 22.9167 11.5625C22.9167 12.0833 22.8125 12.5 22.6042 12.9167L26.7708 17.0833C27.1875 16.875 27.6042 16.7708 28.125 16.7708C29.8958 16.7708 31.25 18.125 31.25 19.8958C31.25 21.6667 29.8958 23.0208 28.125 23.0208C26.3542 23.0208 25 21.6667 25 19.8958C25 19.375 25.1042 18.9583 25.3125 18.5417L21.1458 14.375C21.0417 14.375 20.9375 14.4792 20.8333 14.4792V25.3125C22.0833 25.7292 22.9167 26.875 22.9167 28.2292C22.9167 30 21.5625 31.3542 19.7917 31.3542C18.0208 31.3542 16.6667 30 16.6667 28.2292C16.6667 26.875 17.5 25.7292 18.75 25.3125V14.375C17.5 13.9583 16.6667 12.8125 16.6667 11.4583C16.6667 10.9375 16.7708 10.5208 16.9792 10.1042L12.7083 5.83333L0.833334 17.8125C0.3125 18.3333 0 19.0625 0 19.7917C0 20.5208 0.3125 21.25 0.833334 21.7708L17.8125 38.75C18.3333 39.2708 19.0625 39.5833 19.7917 39.5833C20.5208 39.5833 21.25 39.2708 21.7708 38.75L38.75 21.7708C39.2708 21.25 39.5833 20.5208 39.5833 19.7917C39.5833 19.0625 39.2708 18.3333 38.75 17.8125Z" fill="#F4511E"/>
</svg>
