<svg width="25" height="25" viewBox="0 0 25 25" fill="none" xmlns="http://www.w3.org/2000/svg">
<path d="M12.5 2.5C6.9775 2.5 2.5 6.9775 2.5 12.5C2.5 18.0225 6.9775 22.5 12.5 22.5C18.0225 22.5 22.5 18.0225 22.5 12.5C22.5 6.9775 18.0225 2.5 12.5 2.5ZM8.74667 7.0025C9.44833 7.0025 9.91583 7.47 9.91583 8.09333C9.91583 8.71667 9.44833 9.18417 8.66917 9.18417C7.9675 9.185 7.5 8.71667 7.5 8.09333C7.5 7.47 7.9675 7.0025 8.74667 7.0025ZM10 16.6667H7.5V10H10V16.6667ZM18.3333 16.6667H15.98V13.0233C15.98 12.0158 15.3525 11.7833 15.1175 11.7833C14.8825 11.7833 14.0975 11.9383 14.0975 13.0233C14.0975 13.1783 14.0975 16.6667 14.0975 16.6667H11.6667V10H14.0983V10.93C14.4117 10.3875 15.0392 10 16.2158 10C17.3925 10 18.3333 10.93 18.3333 13.0233V16.6667Z" fill="#E6E6E6"/>
</svg>
