<svg width="25" height="25" viewBox="0 0 25 25" fill="none" xmlns="http://www.w3.org/2000/svg">
<path d="M12.5 2.5C6.9775 2.5 2.5 6.9775 2.5 12.5C2.5 17.1858 5.72667 21.1067 10.0767 22.1917C10.03 22.0567 10 21.9 10 21.7058V19.9967C9.59417 19.9967 8.91417 19.9967 8.74333 19.9967C8.05917 19.9967 7.45083 19.7025 7.15583 19.1558C6.82833 18.5483 6.77167 17.6192 5.96 17.0508C5.71917 16.8617 5.9025 16.6458 6.18 16.675C6.6925 16.82 7.1175 17.1717 7.5175 17.6933C7.91583 18.2158 8.10333 18.3342 8.8475 18.3342C9.20833 18.3342 9.74833 18.3133 10.2567 18.2333C10.53 17.5392 11.0025 16.9 11.58 16.5983C8.25 16.2558 6.66083 14.5992 6.66083 12.35C6.66083 11.3817 7.07333 10.445 7.77417 9.65583C7.54417 8.8725 7.255 7.275 7.8625 6.66667C9.36083 6.66667 10.2667 7.63833 10.4842 7.90083C11.2308 7.645 12.0508 7.5 12.9125 7.5C13.7758 7.5 14.5992 7.645 15.3475 7.9025C15.5625 7.64167 16.4692 6.66667 17.9708 6.66667C18.5808 7.27583 18.2883 8.88 18.0558 9.66167C18.7525 10.4492 19.1625 11.3833 19.1625 12.35C19.1625 14.5975 17.5758 16.2533 14.2508 16.5975C15.1658 17.075 15.8333 18.4167 15.8333 19.4275V21.7058C15.8333 21.7925 15.8142 21.855 15.8042 21.9292C19.7008 20.5633 22.5 16.8633 22.5 12.5C22.5 6.9775 18.0225 2.5 12.5 2.5Z" fill="#E6E6E6"/>
</svg>
