<svg width="30" height="44" viewBox="0 0 30 44" fill="none" xmlns="http://www.w3.org/2000/svg">
<path d="M15.9854 14.5833H7.65202C3.62493 14.5833 0.360352 11.3187 0.360352 7.29167C0.360352 3.26458 3.62493 0 7.65202 0H15.9854V14.5833Z" fill="#E64A19"/>
<path d="M14.9437 29.1667H7.65202C3.62493 29.1667 0.360352 25.9021 0.360352 21.875C0.360352 17.848 3.62493 14.5834 7.65202 14.5834H14.9437V29.1667Z" fill="#7C4DFF"/>
<path d="M7.65202 43.75C3.62493 43.75 0.360352 40.4854 0.360352 36.4583C0.360352 32.4312 3.62493 29.1666 7.65202 29.1666H14.9437V36.4583C14.9437 40.4854 11.6791 43.75 7.65202 43.75Z" fill="#66BB6A"/>
<path d="M22.2353 14.5833H14.9436V0H22.2353C26.2624 0 29.5269 3.26458 29.5269 7.29167C29.5269 11.3187 26.2624 14.5833 22.2353 14.5833Z" fill="#FF7043"/>
<path d="M22.2353 29.1667C26.2623 29.1667 29.5269 25.9021 29.5269 21.875C29.5269 17.848 26.2623 14.5834 22.2353 14.5834C18.2082 14.5834 14.9436 17.848 14.9436 21.875C14.9436 25.9021 18.2082 29.1667 22.2353 29.1667Z" fill="#29B6F6"/>
</svg>
