<svg width="25" height="25" viewBox="0 0 25 25" fill="none" xmlns="http://www.w3.org/2000/svg">
<path d="M15.332 7.47729C14.6379 7.47729 13.9626 7.61267 13.3643 7.84351C13.1326 7.93351 13.0722 8.02646 13.0697 8.20646V17.9656C13.0722 18.1539 13.2167 18.2996 13.4001 18.3188C13.4076 18.3196 21.9238 18.3188 21.9238 18.3188C23.6222 18.3188 24.9984 16.9572 24.9984 15.2589C24.9992 13.5597 23.6238 12.1827 21.9255 12.1827C21.5046 12.1827 21.1015 12.2678 20.7357 12.422C20.4915 9.65112 18.1662 7.47729 15.332 7.47729ZM12.4414 8.1967C12.3606 8.1967 12.2857 8.22649 12.2282 8.27482C12.1532 8.33649 12.1045 8.42944 12.1029 8.53361V8.56942L11.9645 15.4623L12.0345 16.7351L12.1029 17.9753C12.1054 18.1587 12.258 18.3106 12.443 18.3106C12.6253 18.3106 12.7773 18.1613 12.7816 17.977V17.9737L12.9313 15.4623L12.7816 8.53524C12.7782 8.4119 12.7114 8.30469 12.6139 8.24552C12.5631 8.21469 12.5039 8.1967 12.4414 8.1967ZM11.3916 8.79403C11.3291 8.79403 11.2707 8.81198 11.2207 8.84448C11.134 8.90032 11.0759 8.99895 11.0742 9.10978V9.17L10.9554 15.4591C10.9554 15.4632 11.0742 18.0128 11.0742 18.0128C11.0742 18.0169 11.0742 18.02 11.0742 18.0242C11.0784 18.095 11.1058 18.1597 11.1491 18.2113C11.2074 18.2813 11.2957 18.3269 11.3932 18.3269C11.4791 18.3269 11.5579 18.2925 11.6146 18.2341C11.6712 18.1775 11.7082 18.097 11.709 18.0095L11.722 17.7572L11.8424 15.4607L11.709 9.10816C11.7065 9.00066 11.6507 8.90441 11.5674 8.84774C11.5165 8.81357 11.4558 8.79403 11.3916 8.79403ZM8.25195 9.52319C8.11362 9.52319 8.00221 9.63464 7.99805 9.77547L7.84017 15.4591L7.99805 18.0681C8.00221 18.2081 8.11362 18.3188 8.25195 18.3188C8.38945 18.3188 8.49923 18.2082 8.50423 18.0665L8.68327 15.4591L8.50423 9.77547C8.49923 9.63381 8.38945 9.52319 8.25195 9.52319ZM9.29037 9.64689C9.13953 9.64689 9.01947 9.767 9.0153 9.92033L8.87044 15.4607L9.0153 18.0437C9.01863 18.1954 9.13874 18.3155 9.28874 18.3155C9.4382 18.3155 9.55882 18.1946 9.5638 18.0421L9.72656 15.4591L9.5638 9.9187C9.56047 9.7662 9.44036 9.64689 9.29037 9.64689ZM7.22005 9.7299C7.09422 9.7299 6.9931 9.83022 6.98893 9.95939L6.81966 15.4591L6.98893 18.0844C6.99393 18.2127 7.09422 18.3139 7.22005 18.3139C7.34453 18.3139 7.44702 18.2144 7.4528 18.086V18.0844L7.64486 15.4607L7.4528 9.95939C7.4478 9.83022 7.34505 9.7299 7.22005 9.7299ZM10.3353 9.82756C10.1728 9.82756 10.0432 9.95798 10.0407 10.1222L9.90885 15.4591L10.0407 18.0274C10.044 18.1908 10.172 18.3204 10.3353 18.3204C10.4967 18.3204 10.6265 18.1925 10.6315 18.0291V18.0258L10.7796 15.4607L10.6315 10.1222C10.629 9.95715 10.4978 9.82756 10.3353 9.82756ZM6.18327 10.1889C6.06993 10.1889 5.97668 10.2805 5.97168 10.3972L5.78939 15.4721L5.97168 18.1267C5.97668 18.2425 6.06993 18.3334 6.18327 18.3334C6.29525 18.3334 6.38827 18.241 6.39323 18.1251L6.59993 15.4737L6.39323 10.3972C6.38823 10.2797 6.29577 10.1889 6.18327 10.1889ZM5.18392 11.1394C5.08309 11.1394 5.00012 11.2207 4.99512 11.3266L4.7998 15.4574L4.99512 18.1267C5.00095 18.2309 5.08309 18.3139 5.18392 18.3139C5.28392 18.3139 5.36689 18.2317 5.37272 18.1267L5.59408 15.4574L5.37272 11.3266C5.36689 11.2224 5.28392 11.1394 5.18392 11.1394ZM3.18034 12.5766C3.10284 12.5766 3.03969 12.6373 3.03385 12.7198L2.81413 15.4574L3.03385 18.1039C3.04052 18.1856 3.10284 18.2488 3.18034 18.2488C3.25701 18.2488 3.31936 18.1864 3.3252 18.1039L3.57747 15.4574L3.3252 12.7198C3.31853 12.6381 3.25701 12.5766 3.18034 12.5766ZM2.19076 12.6694C2.12409 12.6694 2.0721 12.7206 2.06543 12.7914L1.83105 15.4558L2.06543 18.0225C2.07126 18.0934 2.12492 18.1446 2.19076 18.1446C2.25576 18.1446 2.30695 18.0934 2.31445 18.0225L2.57975 15.4558L2.31445 12.7914C2.30612 12.7214 2.25576 12.6694 2.19076 12.6694ZM4.17806 12.7524C4.08806 12.7524 4.01462 12.8234 4.00879 12.9184L3.80208 15.4574L4.00879 18.1267C4.01462 18.22 4.08806 18.2911 4.17806 18.2911C4.26723 18.2911 4.33904 18.2217 4.3457 18.1267L4.58171 15.4574L4.3457 12.9167C4.33987 12.8226 4.26723 12.7524 4.17806 12.7524ZM1.20605 13.1104C1.15272 13.1104 1.10939 13.153 1.10189 13.2113L0.85612 15.4558L1.10189 17.6514C1.10855 17.7098 1.15272 17.7524 1.20605 17.7524C1.25855 17.7524 1.30105 17.7106 1.31022 17.6514L1.59017 15.4558L1.31022 13.2113C1.30189 13.1522 1.25939 13.1104 1.20605 13.1104ZM0.283203 13.9698C0.230703 13.9698 0.188958 14.0108 0.182292 14.0675L0 15.4558L0.182292 16.8214C0.188958 16.8789 0.231536 16.919 0.283203 16.919C0.334036 16.919 0.374154 16.878 0.382487 16.8214L0.598958 15.4558L0.382487 14.0675C0.374987 14.0108 0.334036 13.9698 0.283203 13.9698Z" fill="#E6E6E6"/>
</svg>
