<svg width="50" height="50" viewBox="0 0 50 50" fill="none" xmlns="http://www.w3.org/2000/svg">
<path d="M25.5208 45.8333C36.1638 45.8333 44.7917 36.7391 44.7917 25.5208C44.7917 14.3025 36.1638 5.20831 25.5208 5.20831C14.8778 5.20831 6.25 14.3025 6.25 25.5208C6.25 36.7391 14.8778 45.8333 25.5208 45.8333Z" fill="#616161"/>
<path d="M29.1667 36.3907C37.7961 36.3907 44.7917 29.6208 44.7917 21.2698C44.7917 12.9188 37.7961 6.14899 29.1667 6.14899C20.5372 6.14899 13.5417 12.9188 13.5417 21.2698C13.5417 29.6208 20.5372 36.3907 29.1667 36.3907Z" fill="#212121"/>
<path d="M28.125 7.29169C28.125 7.29169 33.3333 9.37502 31.1448 11.2313C30.0375 12.1698 28.6302 12.6667 27.3177 13.2813C25.7937 13.9948 24.2239 14.6146 22.8469 15.6125C21.8062 16.3667 20.8229 17.1771 20.1166 18.2667C19.2708 19.5709 18.7729 20.9979 18.6875 22.5563C18.6104 23.9594 18.8708 25.3073 19.4541 26.5771C20.2864 28.3896 21.6375 29.7156 23.4104 30.6281C24.6729 31.2781 26.0114 31.5792 27.4239 31.5459C29.0781 31.5073 30.6021 31.0386 31.9698 30.0948C32.7458 29.5594 33.3646 28.8802 33.9479 28.1365C34.6229 27.2761 35.1677 26.3511 35.6354 25.3761C36.2177 24.1636 36.6562 22.8927 37.1385 21.6386C37.5083 20.6781 37.8854 19.7125 38.4594 18.8552C40.625 15.625 42.7083 18.75 42.7083 18.75C42.7083 18.75 41.6666 14.5834 38.5416 11.4584C35.4166 8.33335 28.125 7.29169 28.125 7.29169Z" fill="#3949AB"/>
<path d="M39.5833 20.8333C39.125 26.6802 37.9719 31.051 36.3958 34.2979C34 40.2271 27.9594 44.2916 21.0448 43.6916C13.7792 43.0604 7.89583 37.1114 7.3375 29.8396C6.89479 24.076 9.6927 18.9375 14.0948 16.0343C17.6969 13.3791 22.7479 12.325 27.0833 11.4583C30.5958 10.7562 32.3312 9.69789 33.0896 8.60518C33.8354 7.53018 33.2573 6.03122 32.0354 5.56456C29.2302 4.49476 26.15 3.98643 22.9156 4.22393C11.724 5.04581 2.92291 14.7 3.12916 25.9198C3.35312 38.1937 13.9344 47.9375 26.501 46.7823C36.0594 45.9031 43.976 38.5333 45.5396 29.0635C46.226 24.9083 45.6719 20.9562 44.2344 17.4573C43.5604 15.8187 41.2521 15.6698 40.4531 17.251C39.8406 18.4646 39.6417 20.0896 39.5833 20.8333Z" fill="#E0E0E0"/>
</svg>
