<?xml version="1.0" encoding="utf-8"?>
<!-- Generator: Adobe Illustrator 24.1.2, SVG Export Plug-In . SVG Version: 6.00 Build 0)  -->
<svg version="1.1" id="Layer_1" xmlns="http://www.w3.org/2000/svg" xmlns:xlink="http://www.w3.org/1999/xlink" x="0px" y="0px"
	 viewBox="0 0 41.7 41.6" style="enable-background:new 0 0 41.7 41.6;" xml:space="preserve">
<style type="text/css">
	.st0{fill:#E6E6E6;}
</style>
<path class="st0" d="M41.7,7.4v26.9c0,1.3-0.8,2.5-2.1,2.9l-9.2,4.3l0.8-11.3V11.4L30.4,0.1l9.2,4.3C40.8,4.9,41.7,6,41.7,7.4z"/>
<path class="st0" d="M0.4,31l3.3,2c0.8,0.5,1.7,0.4,2.4-0.2l25.1-20.5v-11c0-1.2-1.5-1.8-2.4-0.9L5.2,26.9L0.4,31z"/>
<path class="st0" d="M0.4,10.6l3.3-2c0.8-0.5,1.7-0.4,2.4,0.2l25.1,20.5v11c0,1.2-1.5,1.8-2.4,0.9L5.2,14.7L0.4,10.6z"/>
<path class="st0" d="M5.2,14.7v12.2l-3.3,3.9C1.3,31.6,0,31.2,0,30.2V11.4c0-1,1.3-1.4,1.9-0.6L5.2,14.7z"/>
</svg>
