<?xml version="1.0" encoding="utf-8"?>
<!-- Generator: Adobe Illustrator 24.1.2, SVG Export Plug-In . SVG Version: 6.00 Build 0)  -->
<svg version="1.1" id="Layer_1" xmlns="http://www.w3.org/2000/svg" xmlns:xlink="http://www.w3.org/1999/xlink" x="0px" y="0px"
	 viewBox="0 0 800 800" style="enable-background:new 0 0 800 800;" xml:space="preserve">
<style type="text/css">
	.st0{fill-rule:evenodd;clip-rule:evenodd;fill:#E6E6E6;}
</style>
<path class="st0" d="M325,0h150l29.7,118.8c31.7,11.8,60.8,28.8,86.4,50L708.9,135l75,129.9l-88,85.1c2.7,16.2,4.1,32.9,4.1,49.9
	s-1.4,33.7-4.1,49.9l88,85.1l-75,129.9l-117.8-33.7c-25.6,21.2-54.7,38.2-86.4,50L475,800H325l-29.7-118.8
	c-31.7-11.8-60.8-28.8-86.4-50L91.1,665L16.1,535l88-85.1c-2.7-16.2-4.1-32.9-4.1-49.9s1.4-33.7,4.1-49.9l-88-85.1l75-129.9
	l117.8,33.7c25.6-21.2,54.7-38.2,86.4-50L325,0z M400,500c55.2,0,100-44.8,100-100s-44.8-100-100-100s-100,44.8-100,100
	S344.8,500,400,500z"/>
</svg>
