<?xml version="1.0" encoding="utf-8"?>
<!-- Generator: Adobe Illustrator 24.1.2, SVG Export Plug-In . SVG Version: 6.00 Build 0)  -->
<svg version="1.1" id="Layer_1" xmlns="http://www.w3.org/2000/svg" xmlns:xlink="http://www.w3.org/1999/xlink" x="0px" y="0px"
	 viewBox="0 0 682.3 800" style="enable-background:new 0 0 682.3 800;" xml:space="preserve">
<style type="text/css">
	.st0{fill:#E6E6E6;}
</style>
<g>
	<path class="st0" d="M664.5,245.6L436.7,17.8C425.2,6.3,409.9,0,393.7,0H60.9C27.3,0,0,27.3,0,60.9v678.2
		C0,772.7,27.3,800,60.9,800h560.6c33.6,0,60.9-27.3,60.9-60.9V288.6C682.3,272.4,676,257.1,664.5,245.6z M635.9,739.1
		c0,8-6.5,14.4-14.4,14.4H60.9c-8,0-14.4-6.5-14.4-14.4V60.9c0-8,6.5-14.4,14.4-14.4h317.6c8.7,0,15.7,7,15.7,15.7V234
		c0,29,23.5,52.5,52.5,52.5h173.4c4.2,0,8.2,1.7,11.1,4.6s4.6,7,4.6,11.1L635.9,739.1z"/>
	<path class="st0" d="M148.9,142.6c0,8.4-6.8,15.2-15.2,15.2h-32.9c-8.4,0-15.2-6.8-15.2-15.2v-32.9c0-8.4,6.8-15.2,15.2-15.2h32.9
		c8.4,0,15.2,6.8,15.2,15.2V142.6L148.9,142.6z"/>
	<path class="st0" d="M148.9,254c0,8.4-6.8,15.2-15.2,15.2h-32.9c-8.4,0-15.2-6.8-15.2-15.2v-32.9c0-8.4,6.8-15.2,15.2-15.2h32.9
		c8.4,0,15.2,6.8,15.2,15.2V254L148.9,254z"/>
	<path class="st0" d="M148.9,365.4c0,8.4-6.8,15.2-15.2,15.2h-32.9c-8.4,0-15.2-6.8-15.2-15.2v-32.9c0-8.4,6.8-15.2,15.2-15.2h32.9
		c8.4,0,15.2,6.8,15.2,15.2V365.4L148.9,365.4z"/>
	<path class="st0" d="M148.9,476.8c0,8.4-6.8,15.2-15.2,15.2h-32.9c-8.4,0-15.2-6.8-15.2-15.2v-32.9c0-8.4,6.8-15.2,15.2-15.2h32.9
		c8.4,0,15.2,6.8,15.2,15.2V476.8L148.9,476.8z"/>
	<path class="st0" d="M148.9,588.1c0,8.4-6.8,15.2-15.2,15.2h-32.9c-8.4,0-15.2-6.8-15.2-15.2v-32.9c0-8.4,6.8-15.2,15.2-15.2h32.9
		c8.4,0,15.2,6.8,15.2,15.2V588.1L148.9,588.1z"/>
	<path class="st0" d="M148.9,699.5c0,8.4-6.8,15.2-15.2,15.2h-32.9c-8.4,0-15.2-6.8-15.2-15.2v-32.9c0-8.4,6.8-15.2,15.2-15.2h32.9
		c8.4,0,15.2,6.8,15.2,15.2V699.5L148.9,699.5z"/>
	<path class="st0" d="M596.5,365.4c0,8.4-6.8,15.2-15.2,15.2h-32.9c-8.4,0-15.2-6.8-15.2-15.2v-32.9c0-8.4,6.8-15.2,15.2-15.2h32.9
		c8.4,0,15.2,6.8,15.2,15.2V365.4z"/>
	<path class="st0" d="M596.5,476.8c0,8.4-6.8,15.2-15.2,15.2h-32.9c-8.4,0-15.2-6.8-15.2-15.2v-32.9c0-8.4,6.8-15.2,15.2-15.2h32.9
		c8.4,0,15.2,6.8,15.2,15.2V476.8z"/>
	<path class="st0" d="M596.5,588.1c0,8.4-6.8,15.2-15.2,15.2h-32.9c-8.4,0-15.2-6.8-15.2-15.2v-32.9c0-8.4,6.8-15.2,15.2-15.2h32.9
		c8.4,0,15.2,6.8,15.2,15.2V588.1z"/>
	<path class="st0" d="M596.5,699.5c0,8.4-6.8,15.2-15.2,15.2h-32.9c-8.4,0-15.2-6.8-15.2-15.2v-32.9c0-8.4,6.8-15.2,15.2-15.2h32.9
		c8.4,0,15.2,6.8,15.2,15.2V699.5z"/>
	<path class="st0" d="M223.8,625.7c0,10.6,5.6,20.4,14.8,25.6s20.4,5.3,29.6,0l190.6-110.1c9.2-5.3,14.8-15.1,14.8-25.6
		s-5.6-20.4-14.8-25.6L268.2,379.9c-9.2-5.3-20.4-5.3-29.6,0s-14.8,15.1-14.8,25.6V625.7z"/>
</g>
</svg>
