<?xml version="1.0" encoding="utf-8"?>
<!-- Generator: Adobe Illustrator 24.1.2, SVG Export Plug-In . SVG Version: 6.00 Build 0)  -->
<svg version="1.1" id="Layer_1" xmlns="http://www.w3.org/2000/svg" xmlns:xlink="http://www.w3.org/1999/xlink" x="0px" y="0px"
	 viewBox="0 0 40 40" style="enable-background:new 0 0 40 40;" xml:space="preserve">
<style type="text/css">
	.st0{fill:#E6E6E6;}
</style>
<path class="st0" d="M39.2,18L22,0.8C21.5,0.3,20.7,0,20,0s-1.5,0.3-2,0.8l-3.7,3.7l4.3,4.3C19,8.6,19.4,8.5,20,8.5
	c1.8,0,3.2,1.4,3.2,3.2c0,0.5-0.1,0.9-0.3,1.4l4.2,4.2c0.4-0.2,0.8-0.3,1.4-0.3c1.8,0,3.2,1.4,3.2,3.2c0,1.8-1.4,3.2-3.2,3.2
	c-1.8,0-3.2-1.4-3.2-3.2c0-0.5,0.1-0.9,0.3-1.4l-4.2-4.2c-0.1,0-0.2,0.1-0.3,0.1v10.9c1.3,0.4,2.1,1.6,2.1,2.9
	c0,1.8-1.4,3.2-3.2,3.2c-1.8,0-3.2-1.4-3.2-3.2c0-1.4,0.8-2.5,2.1-2.9V14.5c-1.3-0.4-2.1-1.6-2.1-2.9c0-0.5,0.1-0.9,0.3-1.4
	l-4.3-4.3L0.8,18C0.3,18.5,0,19.3,0,20s0.3,1.5,0.8,2L18,39.2c0.5,0.5,1.3,0.8,2,0.8s1.5-0.3,2-0.8L39.2,22c0.5-0.5,0.8-1.3,0.8-2
	S39.7,18.5,39.2,18z"/>
</svg>
