<?xml version="1.0" encoding="utf-8"?>
<!-- Generator: Adobe Illustrator 27.5.0, SVG Export Plug-In . SVG Version: 6.00 Build 0)  -->
<svg version="1.1" id="Layer_1" xmlns="http://www.w3.org/2000/svg" xmlns:xlink="http://www.w3.org/1999/xlink" x="0px" y="0px"
	 viewBox="0 0 37.5 37.5" style="enable-background:new 0 0 37.5 37.5;" xml:space="preserve">
<style type="text/css">
	.st0{fill:#E6E6E6;}
	.st1{fill:#1A1A1A;}
</style>
<path class="st0" d="M0,4.2C0,1.9,1.9,0,4.2,0h29.2c2.3,0,4.2,1.9,4.2,4.2v29.2c0,2.3-1.9,4.2-4.2,4.2H4.2c-2.3,0-4.2-1.9-4.2-4.2
	V4.2z"/>
<path class="st1" d="M3.1,3.1v31.2h31.2V3.1H3.1z M18.4,26l-0.8-3h-4.1l-0.8,3H9.6l4.6-14.8H17L21.6,26H18.4z M25.9,26H23V15h2.9V26
	z M25.6,13.3c-0.3,0.3-0.7,0.4-1.1,0.4s-0.9-0.1-1.1-0.4c-0.3-0.3-0.4-0.7-0.4-1.1c0-0.4,0.1-0.8,0.4-1.1c0.3-0.3,0.7-0.4,1.1-0.4
	c0.5,0,0.9,0.1,1.1,0.4c0.3,0.3,0.4,0.7,0.4,1.1C26,12.6,25.9,13,25.6,13.3z"/>
<path class="st1" d="M14.2,20.5H17l-1.4-5.3L14.2,20.5z"/>
</svg>
