<?xml version="1.0" encoding="utf-8"?>
<!-- Generator: Adobe Illustrator 24.1.2, SVG Export Plug-In . SVG Version: 6.00 Build 0)  -->
<svg version="1.1" id="Layer_1" xmlns="http://www.w3.org/2000/svg" xmlns:xlink="http://www.w3.org/1999/xlink" x="0px" y="0px"
	 viewBox="0 0 51.7 27.9" style="enable-background:new 0 0 51.7 27.9;" xml:space="preserve">
<style type="text/css">
	.st0{fill:#E6E6E6;}
</style>
<path class="st0" d="M0,25.8h2.1v-7.6L5,24.7c0.4,0.8,0.8,1.1,1.8,1.1s1.4-0.3,1.8-1.1l2.9-6.4v7.5h2.1V18c0-0.8-0.3-1.1-0.9-1.3
	c-1.5-0.5-2.5-0.1-2.9,0.9l-2.9,6.6L4,17.6c-0.4-1-1.4-1.4-2.9-0.9C0.3,16.9,0,17.3,0,18V25.8L0,25.8L0,25.8z"/>
<path class="st0" d="M14.5,19.6h2.1V24c0,0.2,0.1,0.8,1.1,0.8c0.5,0,3,0,3.1,0v-5.2h2.1c0,0,0,6.4,0,6.5c0,1.6-2,1.8-2.9,1.8h-5.4
	v-1h5.2c1.2-0.1,1-0.8,1-1v-0.1h-3.2c-1.8,0-2.9-0.8-3-1.7C14.5,24,14.5,19.7,14.5,19.6z"/>
<path class="st0" d="M23.8,25.8H29c0.7,0,1.3-0.1,1.9-0.4c0.9-0.4,1.2-0.9,1.2-1.7v-1.5c0-1.6-2-1.7-3.1-1.7h-2.1
	c-0.8,0-0.9-0.5-1-1v-1c0.1-0.4,0.3-1,1-1c0.8,0,5.2,0,5.2,0v-1h-4.9c-0.8,0-3.4,0.1-3.4,2.1v1.3c0,0.9,0.8,1.6,2.5,1.8
	c0.2,0,0.4,0,0.6,0c0,0,2,0,2.1,0c1.2,0,1,0.9,1,1v1c0,0.1,0,1-1,1c-0.1,0-5.2,0-5.2,0V25.8L23.8,25.8z"/>
<path class="st0" d="M43.4,23.7c0,1.2,0.7,1.9,2.6,2.1c0.2,0,0.4,0,0.5,0h5.2v-1h-4.8c-1.1,0-1.4-0.4-1.4-1.1v-7.2h-2.1V23.7
	L43.4,23.7z"/>
<path class="st0" d="M33.1,23.8v-5.2c0-1.1,0.5-1.9,2.1-2.1h0.7h3.7h0.6c1.5,0.2,2.2,1,2.2,2.1v5.1c0,0.9-0.2,1.4-1,1.7l1.6,1.4
	h-2.3l-1.2-1h-1.4h-2.3c-0.3,0-0.7,0-1.1-0.2C33.6,25.4,33.1,24.8,33.1,23.8z M35.1,23.8c0.1,0.5,0.5,1,1.2,1h2l-1.2-1h2.3l0.6,0.5
	c0,0,0.2-0.2,0.2-0.5c0-0.4,0-5.2,0-5.2c-0.1-0.5-0.6-1-1.3-1h-2.7c-0.8,0-1.2,0.6-1.2,1.1L35.1,23.8z"/>
<path class="st0" d="M49.7,15.5c-1.1,0-2,0.1-2.7,0.4c-0.2,0.1-0.5,0.1-0.6,0.3c0.1,0.1,0.1,0.3,0.2,0.4c0.2,0.3,0.5,0.7,0.7,0.9
	c0.3,0.2,0.6,0.4,0.9,0.6c0.5,0.3,1.1,0.5,1.7,0.9c0.3,0.2,0.6,0.4,0.9,0.7c0.1,0.1,0.2,0.3,0.4,0.3l0,0c-0.1-0.1-0.1-0.3-0.2-0.4
	c-0.1-0.1-0.3-0.3-0.4-0.4c-0.4-0.5-0.9-1-1.5-1.4c-0.4-0.3-1.4-0.7-1.6-1.2l0,0c0.3,0,0.7-0.1,0.9-0.2c0.5-0.1,0.9-0.1,1.4-0.2
	c0.2-0.1,0.4-0.1,0.7-0.2v-0.1c-0.2-0.3-0.4-0.6-0.7-0.8c-0.7-0.6-1.5-1.2-2.3-1.7c-0.4-0.3-1-0.5-1.5-0.7c-0.2-0.1-0.4-0.1-0.5-0.3
	c-0.2-0.3-0.4-0.7-0.6-1.1c-0.4-0.8-0.8-1.6-1.1-2.4c-0.2-0.5-0.4-1.1-0.7-1.6c-1.4-2.4-3-3.8-5.4-5.2c-0.5-0.3-1.1-0.4-1.8-0.6
	c-0.3,0-0.7,0-1-0.1c-0.2-0.1-0.4-0.3-0.6-0.5c-0.8-0.5-2.8-1.6-3.4-0.2C30.7,1.6,31.6,2.5,32,3c0.2,0.3,0.5,0.7,0.7,1
	c0.1,0.2,0.1,0.5,0.2,0.7c0.2,0.6,0.6,1.3,0.9,1.9c0.1,0.3,0.3,0.6,0.5,0.9c0.1,0.2,0.3,0.2,0.3,0.5c-0.2,0.3-0.2,0.7-0.3,1
	c-0.5,1.6-0.3,3.5,0.4,4.6c0.2,0.4,0.7,1.1,1.5,0.8c0.6-0.3,0.5-1,0.7-1.7c0-0.2,0-0.3,0.1-0.4l0,0c0.2,0.4,0.4,0.8,0.6,1.1
	c0.4,0.7,1.2,1.4,1.8,1.9c0.3,0.2,0.6,0.7,1,0.8l0,0l0,0C40.2,16,40.1,16,40,15.9c-0.2-0.2-0.5-0.5-0.7-0.8
	c-0.6-0.8-1.1-1.6-1.5-2.5c-0.2-0.4-0.4-0.9-0.6-1.3C37,11,37,10.8,36.9,10.7c-0.2,0.3-0.5,0.6-0.7,0.9c-0.3,0.6-0.3,1.3-0.4,2.1
	c-0.1,0,0,0-0.1,0c-0.4-0.1-0.6-0.6-0.8-0.9c-0.4-1-0.5-2.6-0.1-3.7c0.1-0.3,0.5-1.2,0.3-1.5C35,7.3,34.7,7.2,34.6,7
	c-0.2-0.3-0.4-0.6-0.5-0.9c-0.3-0.8-0.7-1.7-1-2.4c-0.2-0.4-0.5-0.7-0.7-1.1C32.3,2.2,32,2,31.8,1.5c-0.1-0.2-0.2-0.4-0.1-0.6
	c0-0.1,0.1-0.2,0.2-0.2c0.2-0.1,0.7,0,0.9,0.1c0.5,0.2,0.9,0.4,1.4,0.7c0.2,0.1,0.4,0.4,0.7,0.5c0.1,0,0.2,0,0.3,0
	c0.4,0.1,0.9,0,1.4,0.2c0.7,0.2,1.4,0.6,2,0.9c1.8,1.1,3.3,2.8,4.3,4.7c0.2,0.3,0.2,0.6,0.4,0.9c0.3,0.7,0.7,1.4,0.9,2
	c0.3,0.7,0.6,1.3,1,1.9c0.2,0.3,1,0.4,1.4,0.6c0.3,0.1,0.7,0.2,0.9,0.4c0.5,0.3,0.9,0.6,1.4,0.9C49,14.8,49.7,15.2,49.7,15.5z"/>
<path class="st0" d="M35.6,3.4c-0.2,0-0.4,0-0.6,0.1l0,0l0,0c0.1,0.2,0.3,0.4,0.4,0.6c0.1,0.2,0.2,0.4,0.3,0.7l0,0
	C35.9,4.7,36,4.4,36,4.1c-0.1-0.1-0.1-0.2-0.2-0.3C35.9,3.6,35.8,3.5,35.6,3.4z"/>
</svg>
