<svg id="Layer_1" data-name="Layer 1" xmlns="http://www.w3.org/2000/svg" width="245.01" height="148.71" viewBox="0 0 245.01 148.71"><polygon points="49.48 45.01 49.78 0.15 94.48 0.01 94.48 45.01 49.48 45.01" fill="#ccc"/><rect x="99.66" y="0.01" width="45" height="45" fill="#ccc"/><rect x="200.01" width="45" height="45" fill="#ccc"/><rect x="49.48" y="51.86" width="45" height="45" fill="#ccc"/><rect x="99.65" y="51.86" width="45" height="45" fill="#ccc"/><polygon points="149.84 51.86 194.84 51.86 172.59 96.86 149.84 51.86" fill="#ccc"/><polygon points="172.59 44.84 149.84 0 149.84 45 194.84 45 194.84 0 172.59 44.84" fill="#ccc"/><rect x="200.01" y="51.85" width="45" height="45" fill="#ccc"/><path d="M0,148.71H45v-45Z" fill="#ccc"/><path d="M22.5,119.57H0v22.5Z" fill="#ccc"/><rect x="49.83" y="103.71" width="45" height="45" fill="#ccc"/><rect x="99.4" y="103.71" width="45" height="45" fill="#ccc"/><rect x="200.01" y="103.71" width="45" height="45" fill="#ccc"/></svg>