<svg id="lightDark" xmlns="http://www.w3.org/2000/svg" width="120" height="120" viewBox="0 0 120 120">
  <circle id="fullFill" cx="60" cy="60" r="30" fill="#231f20"/>
  <g id="Sun">
    <polygon points="60 27.43 52.5 27.43 56.25 20.93 60 14.44 63.75 20.93 67.5 27.43 60 27.43" fill="#231f20"/>
    <polygon points="60 92.57 67.5 92.57 63.75 99.07 60 105.56 56.25 99.07 52.5 92.57 60 92.57" fill="#231f20"/>
    <polygon points="92.57 60 92.57 52.5 99.07 56.25 105.56 60 99.07 63.75 92.57 67.5 92.57 60" fill="#231f20"/>
    <polygon points="27.43 60 27.43 67.5 20.93 63.75 14.44 60 20.93 56.25 27.43 52.5 27.43 60" fill="#231f20"/>
    <polygon points="83.03 83.03 88.34 77.73 90.28 84.97 92.22 92.22 84.97 90.28 77.73 88.34 83.03 83.03" fill="#231f20"/>
    <polygon points="36.97 36.97 31.66 42.27 29.72 35.02 27.78 27.78 35.02 29.72 42.27 31.66 36.97 36.97" fill="#231f20"/>
    <polygon points="83.03 36.97 77.73 31.66 84.97 29.72 92.22 27.78 90.28 35.02 88.34 42.27 83.03 36.97" fill="#231f20"/>
    <polygon points="36.97 83.03 42.27 88.34 35.02 90.28 27.78 92.22 29.72 84.97 31.66 77.73 36.97 83.03" fill="#231f20"/>
  </g>
  <path id="Cresent" d="M47.73,60A30,30,0,0,1,68.87,31.33a30,30,0,1,0,0,57.34A30,30,0,0,1,47.73,60Z" fill="#231f20"/>
  <circle id="Outline" cx="60" cy="60" r="30" fill="none" stroke="#231f20" stroke-miterlimit="10"/>
</svg>
