<svg width="50" height="50" viewBox="0 0 50 50" fill="none" xmlns="http://www.w3.org/2000/svg">
<path d="M5.20837 10.4167C5.20837 8.11562 7.074 6.25 9.37504 6.25H38.5417C40.8427 6.25 42.7084 8.11562 42.7084 10.4167V39.5833C42.7084 41.8844 40.8427 43.75 38.5417 43.75H9.37504C7.074 43.75 5.20837 41.8844 5.20837 39.5833V10.4167Z" fill="#E91E63"/>
<path d="M27.3781 23.4927C26.8489 23.4927 26.4625 23.7063 26.2187 24.1334C25.975 24.5604 25.8521 25.3209 25.8521 26.4125V27.175C25.8521 28.2604 25.9677 29.0188 26.1979 29.449C26.4281 29.8792 26.8187 30.0948 27.3677 30.0948C27.9375 30.0948 28.3687 29.8407 28.6593 29.3323V24.3073C28.375 23.7636 27.9479 23.4927 27.3781 23.4927Z" fill="#16020B"/>
<path d="M8.33337 9.375V40.625H39.5834V9.375H8.33337ZM20.9802 32.2917H17.9896V17.4802H20.9802V32.2917ZM31.5594 32.2917H28.9448L28.8125 31.1729C28.223 32.0552 27.4636 32.4958 26.5334 32.4958C25.3802 32.4958 24.5 32.0552 23.8938 31.1729C23.2875 30.2906 22.9771 28.9958 22.9625 27.2875V26.4531C22.9625 24.65 23.2677 23.3031 23.8782 22.4146C24.4886 21.526 25.3771 21.0823 26.5438 21.0823C27.3917 21.0823 28.0959 21.449 28.6594 22.1813V16.6667H31.5584V32.2917H31.5594Z" fill="#16020B"/>
</svg>
