<svg width="51" height="27" viewBox="0 0 51 27" fill="none" xmlns="http://www.w3.org/2000/svg">
<path d="M0.362435 25.0009H2.36243V17.6207L5.14056 23.9301C5.48327 24.7165 5.95202 24.9947 6.87181 24.9947C7.7916 24.9947 8.2416 24.7165 8.58431 23.9301L11.3624 17.7822V25.0009H13.3624V17.4405C13.3624 16.7145 13.0739 16.3624 12.4781 16.1811C11.0541 15.7332 10.0979 16.1197 9.66556 17.0895L6.8166 23.5061L4.05723 17.0895C3.64264 16.1207 2.66973 15.7332 1.24473 16.1811C0.648893 16.3624 0.360352 16.7134 0.360352 17.4395V24.9999H0.362435V25.0009Z" fill="#00796B"/>
<path d="M14.3613 19.001H16.3613V23.2249C16.3457 23.4333 16.428 23.9864 17.3926 24.001C17.8842 24.0093 20.3311 24.001 20.3613 24.001V19.001H22.3613C22.3697 19.001 22.3613 25.2176 22.3613 25.2437C22.3717 26.777 20.4572 26.9749 19.577 27.001H14.3624V26.001C14.3728 26.001 19.3488 26.002 19.3634 26.001C20.4967 25.8812 20.3624 25.2572 20.3624 25.0676V25.001H17.2249C15.4853 24.9854 14.3759 24.2187 14.3634 23.3447C14.3613 23.2635 14.4009 19.0385 14.3613 19.001Z" fill="#00796B"/>
<path d="M23.3614 25.001H28.3687C29.0249 25.001 29.6624 24.8635 30.1687 24.626C31.0124 24.2385 31.3604 23.7145 31.3604 23.026V21.601C31.3604 20.0635 29.4541 20.001 28.3604 20.001H26.3604C25.5739 20.001 25.4541 19.526 25.3604 19.001V18.001C25.4541 17.601 25.6291 17.0635 26.3218 17.001C27.127 17.001 31.3593 17.001 31.3593 17.001V16.001H26.6031C25.8166 16.001 23.3593 16.0947 23.3593 18.001V19.2374C23.3593 20.1124 24.1281 20.8249 25.7968 20.9999C25.9843 21.0124 26.1718 21.0249 26.3583 21.0249C26.3583 21.0249 28.302 20.9874 28.3583 20.9999C29.4833 20.9999 29.3583 21.8749 29.3583 21.9999V22.9999C29.3583 23.1374 29.327 23.9999 28.3468 23.9999C28.2718 23.9999 23.3583 23.9999 23.3583 23.9999V25.001H23.3614Z" fill="#F57F17"/>
<path d="M42.3604 22.9582C42.3604 24.1655 43.0426 24.8426 44.852 24.978C45.0208 24.9895 45.1906 24.9999 45.3604 24.9999H50.3604V23.9999H45.7406C44.7083 23.9999 44.3604 23.5665 44.3604 22.9468V15.9999H42.3604V22.9582V22.9582Z" fill="#F57F17"/>
<path d="M32.3438 23.001V18.001C32.3438 16.9385 32.8646 16.2051 34.3396 16.001H35.0396H38.6302H39.1771C40.6521 16.2051 41.3438 16.9374 41.3438 18.001V22.9822C41.3438 23.8437 41.1198 24.3062 40.3896 24.6062L41.9396 25.9999H39.6896L38.575 24.9999H37.2656L35.0406 25.0124C34.7187 25.0124 34.3792 24.9676 34.0062 24.8656C32.8875 24.5604 32.3438 23.9729 32.3438 23.001ZM34.3438 23.001C34.4458 23.4874 34.8365 24.001 35.5312 24.001H37.4729L36.3604 23.001H38.626L39.1667 23.5031C39.1667 23.5031 39.3604 23.3447 39.3604 23.001C39.3604 22.6572 39.3437 18.001 39.3437 18.001C39.2417 17.5489 38.7833 17.001 38.1062 17.001H35.5323C34.7521 17.001 34.3448 17.5718 34.3448 18.1031L34.3438 23.001Z" fill="#F57F17"/>
<path d="M48.4843 14.9468C47.4104 14.9176 46.5906 15.0176 45.8895 15.3124C45.6906 15.3968 45.3729 15.3989 45.3395 15.6489C45.4489 15.7635 45.4656 15.9353 45.5531 16.076C45.7197 16.3468 46.0031 16.7103 46.2552 16.8999C46.5312 17.1083 46.8156 17.3312 47.1104 17.5114C47.6354 17.8312 48.2218 18.0145 48.7281 18.3353C49.026 18.5239 49.3218 18.7635 49.6135 18.976C49.7573 19.0822 49.8531 19.2458 50.0406 19.3124C50.0406 19.302 50.0406 19.2926 50.0406 19.2822C49.9427 19.1572 49.9166 18.9853 49.827 18.8541C49.6948 18.7218 49.5625 18.5895 49.4302 18.4572C49.0427 17.9426 48.5489 17.4895 48.026 17.1145C47.6083 16.8145 46.6739 16.4093 46.4989 15.9239C46.4885 15.9135 46.4791 15.9041 46.4677 15.8926C46.7635 15.8593 47.1104 15.752 47.3833 15.6791C47.8427 15.5562 48.252 15.5885 48.726 15.4655C48.9395 15.4041 49.1531 15.3437 49.3666 15.2822C49.3666 15.2416 49.3666 15.201 49.3666 15.1603C49.127 14.9145 48.9552 14.5895 48.6948 14.3666C48.0104 13.7843 47.2645 13.2031 46.4968 12.7176C46.0708 12.4489 45.5437 12.2739 45.0927 12.0458C44.9406 11.9687 44.6739 11.9291 44.5739 11.802C44.3364 11.4999 44.2083 11.1156 44.025 10.7645C43.6416 10.027 43.2645 9.22076 42.926 8.44472C42.6937 7.91555 42.5427 7.39263 42.2541 6.91763C40.8677 4.63847 39.375 3.26243 37.0645 1.91034C36.5729 1.62284 35.9802 1.5093 35.3541 1.36034C35.0177 1.34055 34.6823 1.31972 34.3458 1.29888C34.1406 1.21243 33.9281 0.962426 33.7343 0.840551C32.9687 0.356176 31.0041 -0.695908 30.4375 0.687425C30.0791 1.56034 30.9729 2.41243 31.2927 2.85513C31.5166 3.16555 31.8041 3.51347 31.9645 3.86347C32.0698 4.09263 32.0885 4.32284 32.1781 4.56555C32.4 5.16347 32.751 5.84472 33.0385 6.39784C33.1833 6.67805 33.3437 6.9718 33.527 7.2218C33.6395 7.37492 33.8322 7.44263 33.8635 7.68013C33.675 7.94368 33.6645 8.35305 33.5583 8.68847C33.0812 10.1937 33.2614 12.0635 33.9552 13.176C34.1677 13.5176 34.6698 14.251 35.3593 13.9697C35.9625 13.7239 35.8281 12.9624 36 12.2906C36.0385 12.1385 36.0145 12.027 36.0916 11.9249C36.0916 11.9353 36.0916 11.9447 36.0916 11.9562C36.275 12.3218 36.4573 12.6895 36.6416 13.0551C37.0489 13.7103 37.7708 14.3947 38.3812 14.8572C38.6979 15.0968 38.9479 15.5114 39.3583 15.651C39.3583 15.6406 39.3583 15.6312 39.3583 15.6197C39.3479 15.6197 39.3385 15.6197 39.327 15.6197C39.2479 15.4958 39.1229 15.4447 39.0218 15.3447C38.7833 15.1103 38.5166 14.8197 38.3198 14.551C37.7635 13.7958 37.2718 12.9687 36.8239 12.1083C36.6104 11.6968 36.4239 11.2447 36.2437 10.826C36.1739 10.6645 36.175 10.4208 36.0302 10.3374C35.8323 10.6437 35.5427 10.8916 35.3895 11.2531C35.1458 11.8312 35.1135 12.5374 35.0239 13.2676C34.9698 13.2864 34.9937 13.2739 34.9625 13.2978C34.5375 13.1947 34.3875 12.7583 34.2291 12.3822C33.8291 11.4322 33.7552 9.90305 34.1073 8.81034C34.1979 8.52701 34.6093 7.63638 34.4437 7.37493C34.3645 7.11347 34.102 6.96243 33.9562 6.76347C33.7739 6.51763 33.5937 6.19263 33.4677 5.90826C33.1406 5.16763 32.8302 4.30618 32.4854 3.55722C32.3208 3.19888 32.0427 2.83743 31.8135 2.51972C31.5604 2.16763 31.276 1.90826 31.0802 1.48222C31.0104 1.33118 30.9156 1.08847 31.0187 0.932218C31.052 0.827009 31.0979 0.783259 31.202 0.748884C31.3791 0.611384 31.8718 0.793676 32.0573 0.870759C32.5468 1.07388 32.9552 1.26763 33.3698 1.54263C33.5687 1.67493 33.7698 1.93013 34.0104 2.00097C34.102 2.00097 34.1937 2.00097 34.2854 2.00097C34.7156 2.09993 35.1968 2.03222 35.5979 2.15409C36.3083 2.36972 36.9437 2.70513 37.5208 3.06972C39.2812 4.18118 40.7198 5.76243 41.7041 7.64993C41.8625 7.95409 41.9312 8.24368 42.0698 8.56555C42.351 9.21555 42.7062 9.8843 42.9854 10.5197C43.2645 11.1541 43.5375 11.7937 43.9323 12.3218C44.1406 12.5989 44.9427 12.7478 45.3062 12.902C45.5614 13.0103 45.9802 13.1218 46.2218 13.2676C46.6843 13.5468 47.1323 13.8791 47.5645 14.1833C47.7854 14.3364 48.451 14.6708 48.4843 14.9468Z" fill="#00796B"/>
<path d="M34.8374 3.31547C34.6134 3.31131 34.4551 3.33943 34.2874 3.37693C34.2874 3.38735 34.2874 3.39672 34.2874 3.40818C34.2978 3.40818 34.3071 3.40818 34.3186 3.40818C34.4259 3.62693 34.6134 3.76964 34.7457 3.95818C34.8478 4.17172 34.9488 4.38527 35.0509 4.59881C35.0613 4.58839 35.0707 4.57901 35.0811 4.5686C35.2696 4.43526 35.3571 4.22277 35.3561 3.89672C35.2801 3.81652 35.2686 3.71652 35.203 3.62172C35.1155 3.4936 34.9467 3.42172 34.8374 3.31547Z" fill="#00796B"/>
</svg>
