<svg width="50" height="50" viewBox="0 0 50 50" fill="none" xmlns="http://www.w3.org/2000/svg">
<path d="M6.25 43.75V6.25H43.75V43.75H6.25Z" fill="#FFD600"/>
<path d="M30.7687 34.3198C31.4896 35.4906 32.2729 36.6125 33.9323 36.6125C35.326 36.6125 36.0573 35.9198 36.0573 34.9615C36.0573 33.8146 35.301 33.4073 33.7677 32.7396L32.9271 32.3813C30.501 31.3521 28.8875 30.0625 28.8875 27.3386C28.8875 24.8281 30.8094 22.9177 33.8125 22.9177C35.951 22.9177 37.4875 23.6584 38.5958 25.5979L35.9771 27.2719C35.401 26.2427 34.7781 25.8375 33.8125 25.8375C32.8271 25.8375 32.2031 26.4594 32.2031 27.2719C32.2031 28.2761 32.8281 28.6823 34.2708 29.3042L35.1114 29.6625C37.9708 30.8802 39.5833 32.124 39.5833 34.9198C39.5833 37.9323 37.2042 39.5834 34.0104 39.5834C30.8864 39.5834 29.1125 38.0156 28.125 36.075L30.7687 34.3198ZM18.7 34.4052C19.2271 35.349 20.0281 36.075 21.1802 36.075C22.2823 36.075 22.9167 35.6396 22.9167 33.9469V22.9167H26.3885V34.4802C26.3885 37.9875 24.3542 39.5834 21.3833 39.5834C18.6989 39.5834 16.7614 37.7646 15.9719 36.075L18.7 34.4052Z" fill="#000001"/>
</svg>
