<svg width="50" height="27" viewBox="0 0 50 27" fill="none" xmlns="http://www.w3.org/2000/svg">
<g clip-path="url(#clip0_1840_217)">
<path d="M0.703064 13.4842C0.703064 20.5429 11.5814 26.2653 25 26.2653C38.4186 26.2653 49.297 20.5429 49.297 13.4842C49.297 6.4255 38.4186 0.703053 25 0.703053C11.5814 0.703053 0.703064 6.4255 0.703064 13.4842Z" fill="url(#paint0_radial_1840_217)"/>
<path d="M25 25.3163C37.8944 25.3163 48.3478 20.0188 48.3478 13.4841C48.3478 6.94947 37.8944 1.65192 25 1.65192C12.1055 1.65192 1.65216 6.94947 1.65216 13.4841C1.65216 20.0188 12.1055 25.3163 25 25.3163Z" fill="#777BB3"/>
<path d="M13.9038 14.9511C14.964 14.9511 15.7556 14.7556 16.2564 14.3702C16.7519 13.9887 17.0941 13.3277 17.2734 12.4058C17.4407 11.544 17.3769 10.9423 17.0841 10.6176C16.7847 10.286 16.1374 10.1178 15.1602 10.1178H13.4658L12.5264 14.9511H13.9038ZM8.36183 20.905C8.28318 20.905 8.20848 20.8698 8.15848 20.809C8.10839 20.7483 8.08809 20.6683 8.10312 20.5911L10.5926 7.78254C10.6166 7.65872 10.7252 7.56926 10.8514 7.56926H16.2168C17.903 7.56926 19.1581 8.02711 19.947 8.93025C20.7401 9.83813 20.985 11.1072 20.6749 12.7021C20.5487 13.3519 20.3316 13.9554 20.0298 14.4957C19.7276 15.0366 19.3281 15.537 18.8424 15.9835C18.261 16.5276 17.603 16.9222 16.8883 17.1544C16.185 17.3835 15.2818 17.4996 14.2038 17.4996H12.0312L11.4108 20.6916C11.3867 20.8155 11.2783 20.905 11.1521 20.905H8.36183Z" fill="black"/>
<path d="M13.6832 10.3814H15.1602C16.3397 10.3814 16.7494 10.6402 16.8886 10.7944C17.1195 11.0505 17.1631 11.5904 17.0147 12.3558C16.8479 13.2126 16.5387 13.8201 16.0956 14.1612C15.642 14.5105 14.9045 14.6875 13.9038 14.6875H12.8463L13.6832 10.3814ZM16.2168 7.30559H10.8513C10.5989 7.30559 10.382 7.48451 10.3338 7.73224L7.84435 20.5408C7.8143 20.6953 7.8549 20.8552 7.95499 20.9767C8.05518 21.0983 8.2044 21.1686 8.36188 21.1686H11.1521C11.4045 21.1686 11.6215 20.9897 11.6697 20.7419L12.2486 17.7632H14.2038C15.3095 17.7632 16.2404 17.6427 16.9702 17.405C17.7208 17.1611 18.4113 16.7476 19.0225 16.1761C19.528 15.711 19.9444 15.189 20.2599 14.6244C20.5755 14.0596 20.8022 13.4297 20.9337 12.7524C21.2602 11.0735 20.995 9.72913 20.1455 8.75683C19.3044 7.79385 17.9825 7.30559 16.2168 7.30559ZM12.2066 15.2147H13.9038C15.0288 15.2147 15.8667 15.0029 16.4173 14.579C16.9679 14.1551 17.3393 13.4476 17.5323 12.4561C17.7169 11.5042 17.6328 10.8325 17.28 10.4411C16.9267 10.0498 16.2202 9.8541 15.1602 9.8541H13.2485L12.2066 15.2147V15.2147ZM16.2168 7.83287C17.8309 7.83287 19.0084 8.25645 19.7485 9.10369C20.4885 9.95094 20.7114 11.1335 20.4161 12.6518C20.2946 13.2773 20.089 13.8491 19.7997 14.3671C19.5099 14.8855 19.1316 15.3596 18.6641 15.7894C18.1069 16.3108 17.488 16.6823 16.8069 16.9036C16.1259 17.1255 15.2584 17.236 14.2038 17.236H11.8139L11.1521 20.6413H8.36188L10.8513 7.83287H16.2168" fill="white"/>
<path d="M27.0724 17.4996C26.9937 17.4996 26.9191 17.4645 26.8691 17.4037C26.8189 17.3429 26.7986 17.2631 26.8136 17.1857L27.9148 11.5185C28.0196 10.9795 27.9937 10.5927 27.8422 10.4292C27.7494 10.3293 27.4706 10.1617 26.6464 10.1617H24.6513L23.2668 17.2863C23.2427 17.4102 23.1342 17.4996 23.008 17.4996H20.2398C20.161 17.4996 20.0864 17.4645 20.0363 17.4037C19.9863 17.3429 19.966 17.263 19.981 17.1857L22.4704 4.37721C22.4945 4.25338 22.603 4.16392 22.7292 4.16392H25.4974C25.5762 4.16392 25.6508 4.19907 25.7009 4.2598C25.751 4.32061 25.7713 4.40049 25.7562 4.47783L25.1555 7.56925H27.3017C28.9367 7.56925 30.0454 7.8575 30.6911 8.45051C31.3493 9.05547 31.5547 10.0228 31.3016 11.3258L30.1434 17.2863C30.1193 17.4102 30.0108 17.4996 29.8846 17.4996H27.0724Z" fill="black"/>
<path d="M25.4974 3.90026H22.7292C22.4767 3.90026 22.2598 4.07918 22.2116 4.32691L19.7222 17.1354C19.6921 17.29 19.7327 17.4499 19.8329 17.5714C19.9331 17.6929 20.0823 17.7632 20.2398 17.7632H23.008C23.2604 17.7632 23.4774 17.5843 23.5256 17.3366L24.8686 10.4253H26.6464C27.4692 10.4253 27.6419 10.6011 27.6488 10.6086C27.6987 10.6623 27.7644 10.911 27.656 11.4682L26.5548 17.1354C26.5247 17.29 26.5653 17.4499 26.6655 17.5714C26.7657 17.6929 26.9149 17.7632 27.0724 17.7632H29.8845C30.1369 17.7632 30.354 17.5843 30.4022 17.3366L31.5603 11.3762C31.8321 9.97703 31.5996 8.92749 30.8695 8.25644C30.1728 7.61659 29.0058 7.30559 27.3017 7.30559H25.4752L26.015 4.52815C26.045 4.37357 26.0045 4.21363 25.9043 4.09218C25.8041 3.97065 25.6549 3.90026 25.4974 3.90026ZM25.4974 4.42753L24.8356 7.83286H27.3017C28.8534 7.83286 29.9237 8.10371 30.5127 8.64469C31.1018 9.18603 31.2782 10.0632 31.0428 11.2756L29.8845 17.236H27.0724L28.1736 11.5688C28.2989 10.9241 28.2529 10.4844 28.0353 10.2499C27.8176 10.0154 27.3546 9.89803 26.6464 9.89803H24.4339L23.008 17.236H20.2398L22.7292 4.42753H25.4974Z" fill="white"/>
<path d="M35.6817 14.9511C36.742 14.9511 37.5335 14.7556 38.0343 14.3702C38.5298 13.9888 38.872 13.3278 39.0515 12.4058C39.2187 11.544 39.155 10.9423 38.8621 10.6176C38.5627 10.286 37.9154 10.1178 36.9381 10.1178H35.2437L34.3044 14.9511H35.6817ZM30.1399 20.905C30.0612 20.905 29.9865 20.8698 29.9365 20.809C29.8864 20.7483 29.866 20.6683 29.8811 20.5911L32.3705 7.78254C32.3947 7.65872 32.5031 7.56926 32.6294 7.56926H37.9947C39.681 7.56926 40.936 8.02711 41.725 8.93025C42.5181 9.83804 42.763 11.1071 42.4529 12.7021C42.3266 13.3519 42.1096 13.9554 41.8077 14.4957C41.5055 15.0366 41.1061 15.537 40.6204 15.9835C40.039 16.5276 39.3809 16.9222 38.6663 17.1544C37.963 17.3835 37.0598 17.4996 35.9817 17.4996H33.8091L33.1889 20.6916C33.1648 20.8155 33.0563 20.905 32.93 20.905H30.1399Z" fill="black"/>
<path d="M35.4611 10.3814H36.9382C38.1176 10.3814 38.5273 10.6402 38.6665 10.7944C38.8975 11.0505 38.9411 11.5904 38.7926 12.3557C38.6258 13.2126 38.3166 13.8201 37.8736 14.1612C37.4199 14.5105 36.6824 14.6875 35.6817 14.6875H34.6243L35.4611 10.3814ZM37.9947 7.30559H32.6293C32.377 7.30559 32.16 7.48451 32.1118 7.73224L29.6224 20.5408C29.5923 20.6953 29.6329 20.8552 29.733 20.9767C29.8332 21.0983 29.9824 21.1686 30.1399 21.1686H32.9301C33.1825 21.1686 33.3995 20.9897 33.4477 20.7419L34.0265 17.7632H35.9818C37.0875 17.7632 38.0183 17.6427 38.7481 17.405C39.4987 17.1611 40.1894 16.7475 40.8006 16.1759C41.3061 15.7109 41.7223 15.189 42.0378 14.6244C42.3534 14.0596 42.5801 13.4297 42.7117 12.7524C43.0381 11.0734 42.7729 9.72904 41.9235 8.75674C41.0823 7.79385 39.7605 7.30559 37.9947 7.30559ZM33.9846 15.2147H35.6817C36.8067 15.2147 37.6446 15.0029 38.1952 14.579C38.7459 14.1551 39.1172 13.4476 39.3102 12.4561C39.4949 11.5042 39.4108 10.8325 39.0579 10.4411C38.7046 10.0498 37.9982 9.8541 36.9382 9.8541H35.0264L33.9846 15.2147ZM37.9947 7.83287C39.6088 7.83287 40.7863 8.25645 41.5264 9.10369C42.2666 9.95094 42.4893 11.1335 42.1941 12.6518C42.0725 13.2773 41.867 13.8491 41.5776 14.3671C41.2878 14.8855 40.9095 15.3596 40.442 15.7894C39.8848 16.3108 39.2659 16.6823 38.5848 16.9036C37.9038 17.1255 37.0363 17.236 35.9818 17.236H33.5918L32.9301 20.6413H30.1399L32.6293 7.83287H37.9947" fill="white"/>
</g>
<defs>
<radialGradient id="paint0_radial_1840_217" cx="0" cy="0" r="1" gradientUnits="userSpaceOnUse" gradientTransform="translate(15.2911 5.19649) scale(31.9053 31.9053)">
<stop stop-color="#AEB2D5"/>
<stop offset="0.3" stop-color="#AEB2D5"/>
<stop offset="0.75" stop-color="#484C89"/>
<stop offset="1" stop-color="#484C89"/>
</radialGradient>
<clipPath id="clip0_1840_217">
<rect width="50" height="26.9683" fill="white"/>
</clipPath>
</defs>
</svg>
