<svg width="38" height="38" viewBox="0 0 38 38" fill="none" xmlns="http://www.w3.org/2000/svg">
<path d="M0.25 4.41667C0.25 2.125 2.125 0.25 4.41667 0.25H33.5833C35.875 0.25 37.75 2.125 37.75 4.41667V33.5833C37.75 35.875 35.875 37.75 33.5833 37.75H4.41667C2.125 37.75 0.25 35.875 0.25 33.5833V4.41667Z" fill="#C5CAE9"/>
<path d="M3.375 3.375V34.625H34.625V3.375H3.375ZM20.0417 26.2917H11.7083V11.7083H14.8333V23.7917H20.0417V26.2917ZM27.5417 18.0625L26.6042 17.9583C25.7708 17.9583 25.25 18.2708 25.0417 19V26.2917H22.125V15.25H24.8333L24.9375 16.3958C25.3542 15.4583 25.9792 15.0417 26.8125 15.0417C27.125 15.0417 27.4375 15.0417 27.6458 15.1458L27.5417 18.0625Z" fill="#020F16"/>
</svg>
