<svg width="50" height="50" viewBox="0 0 50 50" fill="none" xmlns="http://www.w3.org/2000/svg">
<path d="M45.8333 11.5729V38.4271C45.8333 39.75 45.0104 40.9271 43.7708 41.3646L34.5833 45.6771L35.4166 34.375V15.625L34.5833 4.32294L43.7708 8.63544C45.0104 9.07294 45.8333 10.25 45.8333 11.5729Z" fill="#CE93D8"/>
<path d="M4.59998 35.224L7.8906 37.2552C8.65414 37.7136 9.62393 37.6354 10.3052 37.0625L35.4166 16.6021V5.57607C35.4166 4.32815 33.8729 3.74482 33.0468 4.68023L9.37498 31.1177L4.59998 35.224Z" fill="#8E24AA"/>
<path d="M4.59998 14.776L7.8906 12.7448C8.65414 12.2864 9.62393 12.3646 10.3052 12.9375L35.4166 33.3989V44.425C35.4166 45.6729 33.8729 46.2562 33.0468 45.3208L9.37498 18.8823L4.59998 14.776Z" fill="#AB47BC"/>
<path d="M9.37502 18.8854V31.1146L6.04169 35.0104C5.43752 35.8021 4.16669 35.375 4.16669 34.375V15.625C4.16669 14.625 5.43752 14.1979 6.04169 14.9896L9.37502 18.8854Z" fill="#6A1B9A"/>
</svg>
