<svg width="50" height="50" viewBox="0 0 50 50" fill="none" xmlns="http://www.w3.org/2000/svg">
<path d="M25 4.16669C13.5115 4.16669 4.16669 13.5115 4.16669 25C4.16669 36.4886 13.5115 45.8334 25 45.8334C36.4886 45.8334 45.8334 36.4886 45.8334 25C45.8334 13.5115 36.4886 4.16669 25 4.16669ZM41.9969 33.4896C43.1448 30.1209 41.8781 26.2156 38.7656 24.2229C35.1209 21.8896 30.275 22.9542 27.9417 26.599C26.2625 29.2219 26.3511 32.4636 27.8865 34.9459C26.9729 36.3552 25.7406 37.5886 24.2 38.5063C19.3084 41.4229 13.0084 40.274 9.50315 35.9886C9.3344 35.7511 9.17085 35.5115 9.01356 35.2667C11.3865 38.2313 15.7198 39.0823 19.1281 37.1594C22.8969 35.0323 24.2292 30.2531 22.1021 26.4834C20.6365 23.8865 17.9115 22.4469 15.125 22.499C14.225 20.8761 13.7094 19.0094 13.7094 17.0219C13.7094 12.0563 16.9136 7.85627 21.3615 6.33335C21.6875 6.26981 22.0209 6.22815 22.3521 6.18127C19.3438 7.27502 17.1906 10.1521 17.1906 13.5386C17.1906 17.8667 20.699 21.375 25.0271 21.375C27.9063 21.375 30.4156 19.8177 31.7781 17.5031C33.7677 17.5167 35.7792 18.0417 37.6 19.1563C42.1802 21.9584 44.0969 27.575 42.4823 32.4834C42.3344 32.8292 42.1636 33.1584 41.9969 33.4896Z" fill="#455A64"/>
</svg>
