<svg width="50" height="50" viewBox="0 0 50 50" fill="none" xmlns="http://www.w3.org/2000/svg">
<path d="M6.25 10.4167C6.25 8.11562 8.11562 6.25 10.4167 6.25H39.5833C41.8844 6.25 43.75 8.11562 43.75 10.4167V39.5833C43.75 41.8844 41.8844 43.75 39.5833 43.75H10.4167C8.11562 43.75 6.25 41.8844 6.25 39.5833V10.4167Z" fill="#E040FB"/>
<path d="M9.375 9.375V40.625H40.625V9.375H9.375ZM21.8917 19.9729H19.8062V24.5917H21.8615C22.4312 24.5917 22.8719 24.4052 23.1844 24.0323C23.4969 23.6594 23.6521 23.1167 23.6521 22.4042C23.6521 21.6646 23.4927 21.0771 23.174 20.6396C22.8552 20.2021 22.4271 19.9802 21.8917 19.9729ZM25.3802 25.8219C24.5198 26.6635 23.326 27.0833 21.8 27.0833H19.8062V32.2917H16.6667V17.4802H21.8615C23.326 17.4802 24.4948 17.9354 25.3656 18.8437C26.2365 19.7521 26.6729 20.9323 26.6729 22.3833C26.6729 23.8344 26.2417 24.9802 25.3802 25.8219ZM34.5833 24.0625L33.6458 23.9583C32.8125 23.9583 32.2917 24.2708 32.0833 25V32.2917H29.1667V21.25H31.875L31.9792 22.3958C32.3958 21.4583 33.0208 21.0417 33.8542 21.0417C34.1667 21.0417 34.4792 21.0417 34.6875 21.1458L34.5833 24.0625Z" fill="#020F16"/>
</svg>
