<svg width="50" height="50" viewBox="0 0 50 50" fill="none" xmlns="http://www.w3.org/2000/svg">
<path d="M6.25 10.4167C6.25 8.11562 8.11562 6.25 10.4167 6.25H39.5833C41.8844 6.25 43.75 8.11562 43.75 10.4167V39.5833C43.75 41.8844 41.8844 43.75 39.5833 43.75H10.4167C8.11562 43.75 6.25 41.8844 6.25 39.5833V10.4167Z" fill="#B388FF"/>
<path d="M9.375 9.375V40.625H40.625V9.375H9.375Z" fill="#170B40"/>
<path d="M22.0656 29.1302H17.3209L16.4188 32.0948H13.5417L18.4313 17.7083H20.9386L25.8542 32.0937H22.9771L22.0656 29.1302ZM18.0521 26.7291H21.3354L19.6854 21.3437L18.0521 26.7291ZM31.4021 32.2916C30.6438 32.2916 29.9656 32.1562 29.3677 31.8864C28.7688 31.6166 28.2615 31.2469 27.8427 30.7791C27.424 30.3114 27.1063 29.7635 26.8865 29.1344C26.6677 28.5052 26.5573 27.8323 26.5573 27.1135V26.7281C26.5573 25.9177 26.6646 25.175 26.8781 24.5C27.0906 23.825 27.3948 23.2437 27.7896 22.7562C28.1823 22.2687 28.6615 21.8885 29.2229 21.6146C29.7854 21.3416 30.4156 21.2041 31.1125 21.2041C31.8156 21.2041 32.4354 21.3312 32.9709 21.5844C33.5063 21.8375 33.9552 22.1937 34.3198 22.6521C34.6834 23.1094 34.9573 23.6614 35.1406 24.3073C35.324 24.9531 35.4167 25.6719 35.4167 26.4625V27.6781H29.2021C29.2438 28.0271 29.3302 28.3437 29.4594 28.626C29.5886 28.9094 29.7542 29.151 29.9552 29.3521C30.1563 29.5531 30.3927 29.7094 30.6625 29.8219C30.9334 29.9344 31.2375 29.9896 31.574 29.9896C32.049 29.9896 32.4886 29.8927 32.8906 29.6979C33.2938 29.5041 33.6396 29.2021 33.9281 28.7937L35.2094 30.3646C35.0531 30.6083 34.8573 30.8458 34.6229 31.076C34.3886 31.3062 34.1115 31.5125 33.7927 31.6937C33.474 31.875 33.1156 32.0198 32.7146 32.1281C32.3146 32.2375 31.8781 32.2916 31.4021 32.2916ZM31.1052 23.5177C30.8219 23.5177 30.575 23.5719 30.3604 23.6812C30.1469 23.7896 29.9636 23.9416 29.8104 24.1354C29.6573 24.3291 29.5323 24.5614 29.4365 24.8323C29.3406 25.1021 29.2719 25.4021 29.2302 25.7312H32.8563V25.5041C32.85 25.2208 32.8125 24.9573 32.7427 24.7135C32.674 24.4698 32.5688 24.2594 32.4271 24.0812C32.2854 23.9031 32.1052 23.7656 31.8865 23.6666C31.6646 23.5677 31.4052 23.5177 31.1052 23.5177Z" fill="#B388FF"/>
</svg>
