<svg width="25" height="25" viewBox="0 0 25 25" fill="none" xmlns="http://www.w3.org/2000/svg">
<path d="M12.5 3.33325C9.01167 3.33325 4.48405 4.20728 4.48405 4.20728L4.47266 4.2203C2.88389 4.47439 1.66667 5.83961 1.66667 7.49992V12.4999V12.5015V17.4999V17.5015C1.66822 18.2945 1.9524 19.0609 2.46817 19.6632C2.98394 20.2655 3.69753 20.6642 4.4808 20.7877L4.48405 20.7926C4.48405 20.7926 9.01167 21.6682 12.5 21.6682C15.9883 21.6682 20.516 20.7926 20.516 20.7926L20.5176 20.7909C21.3017 20.6677 22.0161 20.2687 22.5323 19.6657C23.0484 19.0627 23.3325 18.2953 23.3333 17.5015V17.4999V12.5015V12.4999V7.49992C23.3322 6.70669 23.0482 5.93988 22.5324 5.33726C22.0166 4.73464 21.3028 4.33571 20.5192 4.21216L20.516 4.20728C20.516 4.20728 15.9883 3.33325 12.5 3.33325ZM10 8.66528L16.6667 12.4999L10 16.3346V8.66528Z" fill="#E6E6E6"/>
</svg>
