<svg width="50" height="50" viewBox="0 0 50 50" fill="none" xmlns="http://www.w3.org/2000/svg">
<path d="M38.7666 12.2709C38.7427 12.0511 38.5469 11.9531 38.401 11.9531C38.2552 11.9531 35.0573 11.7094 35.0573 11.7094C35.0573 11.7094 32.8364 9.48856 32.5677 9.26877C32.3239 9.02502 31.8594 9.09794 31.6646 9.1469C31.6406 9.1469 31.176 9.29377 30.4198 9.53752C29.6635 7.3646 28.3698 5.38752 26.051 5.38752H25.8312C25.1948 4.55731 24.3656 4.16669 23.6823 4.16669C18.3125 4.16669 15.725 10.8792 14.9198 14.2969C12.8208 14.9563 11.3312 15.3948 11.1604 15.4688C9.98852 15.8344 9.96457 15.8594 9.81769 16.9573C9.69582 17.7875 6.64478 41.3906 6.64478 41.3906L30.3948 45.8334L43.2833 43.0511C43.3073 43.0021 38.7916 12.4906 38.7666 12.2709ZM29.101 9.87815C28.5156 10.049 27.8073 10.2688 27.1 10.5125V10.074C27.1 8.75627 26.9292 7.68231 26.6114 6.8271C27.8312 6.97398 28.5885 8.31669 29.101 9.87815ZM25.1219 7.09585C25.4396 7.92606 25.6594 9.09794 25.6594 10.7084V10.9521C24.3416 11.3667 22.95 11.7823 21.5094 12.2459C22.3146 9.17085 23.8531 7.65731 25.1219 7.09585ZM23.5594 5.58231C23.8031 5.58231 24.0479 5.68023 24.2427 5.82606C22.5094 6.63127 20.6792 8.65731 19.9219 12.7584C18.775 13.124 17.676 13.4417 16.6271 13.7834C17.5062 10.6594 19.7031 5.58231 23.5594 5.58231Z" fill="#7CB342"/>
<path d="M38.401 11.9042C38.2542 11.9042 35.0573 11.6604 35.0573 11.6604C35.0573 11.6604 32.8365 9.4396 32.5677 9.21981C32.4688 9.1219 32.3469 9.07294 32.25 9.07294L30.4677 45.8334L43.3563 43.0511C43.3563 43.0511 38.8406 12.4906 38.8156 12.2709C38.7177 12.0511 38.5469 11.9531 38.401 11.9042Z" fill="#558B2F"/>
<path d="M25.825 19.3677L24.2886 24.0021C24.2886 24.0021 22.8958 23.2573 21.2396 23.2573C18.7667 23.2573 18.6469 24.8177 18.6469 25.2021C18.6469 27.3146 24.1688 28.1312 24.1688 33.101C24.1688 37.0146 21.6958 39.5354 18.3583 39.5354C14.325 39.5354 12.3083 37.0385 12.3083 37.0385L13.3886 33.4854C13.3886 33.4854 15.5011 35.3104 17.2781 35.3104C18.4542 35.3104 18.9344 34.3979 18.9344 33.726C18.9344 30.9646 14.4208 30.8448 14.4208 26.2833C14.4208 22.4656 17.1583 18.7687 22.7042 18.7687C24.7677 18.7437 25.825 19.3677 25.825 19.3677Z" fill="white"/>
</svg>
