<?xml version="1.0" encoding="utf-8"?>
<!-- Generator: Adobe Illustrator 24.1.2, SVG Export Plug-In . SVG Version: 6.00 Build 0)  -->
<svg version="1.1" id="Layer_1" xmlns="http://www.w3.org/2000/svg" xmlns:xlink="http://www.w3.org/1999/xlink" x="0px" y="0px"
	 viewBox="0 0 36.7 41.7" style="enable-background:new 0 0 36.7 41.7;" xml:space="preserve">
<style type="text/css">
	.st0{fill:#E6E6E6;}
	.st1{fill:#616161;}
	.st2{fill:#1A1A1A;}
</style>
<path class="st0" d="M32.1,8.1c0-0.2-0.2-0.3-0.4-0.3c-0.1,0-3.3-0.2-3.3-0.2s-2.2-2.2-2.5-2.4C25.7,4.9,25.2,4.9,25,5
	c0,0-0.5,0.1-1.2,0.4c-0.8-2.2-2-4.2-4.4-4.2h-0.2C18.6,0.4,17.7,0,17,0c-5.4,0-8,6.7-8.8,10.1c-2.1,0.7-3.6,1.1-3.8,1.2
	c-1.2,0.4-1.2,0.4-1.3,1.5C3.1,13.6,0,37.2,0,37.2l23.8,4.4l12.9-2.8C36.7,38.8,32.1,8.3,32.1,8.1z M22.5,5.7
	c-0.6,0.2-1.3,0.4-2,0.6V5.9c0-1.3-0.2-2.4-0.5-3.2C21.2,2.8,21.9,4.2,22.5,5.7z M18.5,2.9c0.3,0.8,0.5,2,0.5,3.6v0.2
	c-1.3,0.4-2.7,0.8-4.2,1.3C15.7,5,17.2,3.5,18.5,2.9z M16.9,1.4c0.2,0,0.5,0.1,0.7,0.2c-1.7,0.8-3.6,2.8-4.3,6.9
	C12.1,9,11,9.3,10,9.6C10.9,6.5,13.1,1.4,16.9,1.4z"/>
<path class="st1" d="M31.8,7.7c-0.1,0-3.3-0.2-3.3-0.2S26.3,5.3,26,5.1C25.9,5,25.8,5,25.7,5l-1.8,36.8L36.8,39
	c0,0-4.5-30.6-4.5-30.8C32.1,7.9,31.9,7.8,31.8,7.7z"/>
<path class="st2" d="M19.2,15.2l-1.5,4.6c0,0-1.4-0.7-3-0.7c-2.5,0-2.6,1.6-2.6,1.9c0,2.1,5.5,2.9,5.5,7.9c0,3.9-2.5,6.4-5.8,6.4
	c-4,0-6-2.5-6-2.5l1.1-3.6c0,0,2.1,1.8,3.9,1.8c1.2,0,1.7-0.9,1.7-1.6c0-2.8-4.5-2.9-4.5-7.4c0-3.8,2.7-7.5,8.3-7.5
	C18.1,14.6,19.2,15.2,19.2,15.2z"/>
</svg>
