<?xml version="1.0" encoding="utf-8"?>
<!-- Generator: Adobe Illustrator 24.1.2, SVG Export Plug-In . SVG Version: 6.00 Build 0)  -->
<svg version="1.1" id="Layer_1" xmlns="http://www.w3.org/2000/svg" xmlns:xlink="http://www.w3.org/1999/xlink" x="0px" y="0px"
	 viewBox="0 0 48.6 25.6" style="enable-background:new 0 0 48.6 25.6;" xml:space="preserve">
<style type="text/css">
	.st0{fill:#E6E6E6;}
	.st1{fill:#1A1A1A;}
</style>
<path class="st0" d="M0,12.8c0,7.1,10.9,12.8,24.3,12.8s24.3-5.7,24.3-12.8S37.7,0,24.3,0S0,5.7,0,12.8z"/>
<path class="st0" d="M24.3,24.6c12.9,0,23.3-5.3,23.3-11.8S37.1,1,24.3,1C11.4,0.9,0.9,6.2,0.9,12.8C0.9,19.3,11.4,24.6,24.3,24.6z"
	/>
<path class="st1" d="M13.2,14.2c1.1,0,1.9-0.2,2.4-0.6c0.5-0.4,0.8-1,1-2c0.2-0.9,0.1-1.5-0.2-1.8c-0.3-0.3-0.9-0.5-1.9-0.5h-1.7
	l-0.9,4.8h1.3V14.2z M7.7,20.2c-0.1,0-0.2,0-0.2-0.1C7.4,20,7.4,20,7.4,19.9L9.9,7.1c0-0.1,0.1-0.2,0.3-0.2h5.4
	c1.7,0,2.9,0.5,3.7,1.4c0.8,0.9,1,2.2,0.7,3.8c-0.1,0.6-0.3,1.3-0.6,1.8c-0.3,0.5-0.7,1-1.2,1.5c-0.6,0.5-1.2,0.9-2,1.2
	c-0.7,0.2-1.6,0.3-2.7,0.3h-2.2L10.7,20c0,0.1-0.1,0.2-0.3,0.2H7.7z"/>
<path class="st1" d="M26.4,16.8c-0.1,0-0.2,0-0.2-0.1c-0.1-0.1-0.1-0.1-0.1-0.2l1.1-5.7c0.1-0.5,0.1-0.9-0.1-1.1
	c-0.1-0.1-0.4-0.3-1.2-0.3h-2l-1.4,7.1c0,0.1-0.1,0.2-0.3,0.2h-2.8c-0.1,0-0.2,0-0.2-0.1c-0.1-0.1-0.1-0.1-0.1-0.2l2.5-12.8
	c0-0.1,0.1-0.2,0.3-0.2h2.8c0.1,0,0.2,0,0.2,0.1C25,3.6,25,3.6,25,3.7l-0.6,3.1h2.1c1.6,0,2.7,0.3,3.4,0.9c0.7,0.6,0.9,1.6,0.6,2.9
	l-1.2,6c0,0.1-0.1,0.2-0.3,0.2H26.4z"/>
<path class="st1" d="M35,14.2c1.1,0,1.9-0.2,2.4-0.6c0.5-0.4,0.8-1,1-2c0.2-0.9,0.1-1.5-0.2-1.8s-0.9-0.5-1.9-0.5h-1.7l-0.9,4.8H35
	V14.2z M29.4,20.2c-0.1,0-0.2,0-0.2-0.1c-0.1-0.1-0.1-0.1-0.1-0.2l2.5-12.8c0-0.1,0.1-0.2,0.3-0.2h5.4c1.7,0,2.9,0.5,3.7,1.4
	s1,2.2,0.7,3.8c-0.1,0.6-0.3,1.3-0.6,1.8s-0.7,1-1.2,1.5c-0.6,0.5-1.2,0.9-2,1.2c-0.7,0.2-1.6,0.3-2.7,0.3H33L32.5,20
	c0,0.1-0.1,0.2-0.3,0.2H29.4z"/>
</svg>
