<?xml version="1.0" encoding="utf-8"?>
<!-- Generator: Adobe Illustrator 24.1.2, SVG Export Plug-In . SVG Version: 6.00 Build 0)  -->
<svg version="1.1" id="Layer_1" xmlns="http://www.w3.org/2000/svg" xmlns:xlink="http://www.w3.org/1999/xlink" x="0px" y="0px"
	 viewBox="0 0 45.8 34.4" style="enable-background:new 0 0 45.8 34.4;" xml:space="preserve">
<style type="text/css">
	.st0{fill:#E6E6E6;}
</style>
<path class="st0" d="M39.4,19.7c-1.6,0-3,0.4-4.2,1c-0.4-0.8-0.9-1.6-0.9-2.2c-0.1-0.6-0.2-1-0.1-1.8s0.5-1.9,0.5-1.9
	c0-0.1-0.1-0.5-1-0.5s-1.7,0.2-1.8,0.4c-0.1,0.2-0.3,0.8-0.4,1.4c-0.2,0.8-1.8,3.8-2.8,5.4c-0.3-0.6-0.6-1.1-0.6-1.6
	c-0.1-0.6-0.2-1-0.1-1.8s0.5-1.9,0.5-1.9c0-0.1-0.1-0.5-1-0.5s-1.7,0.2-1.8,0.4c-0.1,0.2-0.2,0.8-0.4,1.4c-0.2,0.6-2.4,5.5-3,6.8
	c-0.3,0.7-0.6,1.2-0.7,1.5l0,0c0,0,0,0,0,0.1c-0.2,0.3-0.2,0.5-0.2,0.5l0,0c-0.1,0.2-0.3,0.4-0.3,0.4s-0.1-0.6,0-1.4
	c0.3-1.7,1.1-4.4,1.1-4.5c0,0,0.1-0.5-0.5-0.8c-0.7-0.2-0.9,0.2-0.9,0.2c-0.1,0-0.1,0.1-0.1,0.1s0.7-3-1.4-3c-1.3,0-3.1,1.4-4.1,2.8
	c-0.6,0.3-1.8,1-3.1,1.7c-0.5,0.3-1,0.6-1.5,0.8l-0.1-0.1c-2.6-2.7-7.3-4.7-7.1-8.3c0.1-1.3,0.5-4.9,9.1-9.1
	c7-3.5,12.6-2.5,13.6-0.4c1.4,3-3,8.7-10.3,9.5c-2.8,0.3-4.2-0.8-4.6-1.2s-0.4-0.4-0.6-0.4c-0.2,0.1-0.1,0.5,0,0.7
	c0.2,0.6,1.1,1.6,2.6,2.1c1.3,0.4,4.6,0.7,8.5-0.8c4.4-1.7,7.9-6.5,6.8-10.4c-1-4-7.7-5.4-14.1-3.1C10.9,2.4,6.8,4.5,3.9,7.3
	c-3.5,3.3-4,6.1-3.8,7.3c0.8,4.2,6.6,7,9,9c-0.1,0.1-0.2,0.1-0.3,0.2c-1.2,0.6-5.6,2.9-6.7,5.3c-1.3,2.8,0.2,4.8,1.2,5
	c3,0.8,6.1-0.7,7.7-3.1c1.6-2.5,1.4-5.7,0.7-7.1c0,0,0,0,0-0.1c0.3-0.2,0.6-0.4,0.9-0.5c0.6-0.3,1.2-0.7,1.7-0.9
	c-0.3,0.8-0.5,1.7-0.6,3C13.4,27,14,29,14.9,29.8c0.4,0.4,0.8,0.4,1.1,0.4c1,0,1.4-0.8,1.9-1.8c0.6-1.2,1.1-2.6,1.1-2.6
	s-0.7,3.7,1.2,3.7c0.7,0,1.3-0.9,1.6-1.3l0,0c0,0,0,0,0.1-0.1C22,28,22,28,22,28l0,0c0.3-0.5,0.9-1.5,1.8-3.3
	c1.2-2.3,2.3-5.1,2.3-5.1s0.1,0.7,0.4,1.8c0.2,0.7,0.6,1.4,1,2.1c-0.3,0.4-0.4,0.6-0.4,0.6l0,0c-0.2,0.3-0.5,0.6-0.7,0.9
	c-0.9,1.1-2,2.3-2.1,2.7c-0.2,0.4-0.1,0.7,0.2,1c0.2,0.2,0.7,0.2,1.1,0.2c0.8-0.1,1.4-0.3,1.7-0.4c0.4-0.2,1-0.4,1.4-0.8
	c0.9-0.7,1.4-1.6,1.4-2.9c0-0.7-0.2-1.4-0.5-2c0.1-0.1,0.2-0.2,0.2-0.4c1.4-2.1,2.5-4.3,2.5-4.3s0.1,0.7,0.4,1.8
	c0.2,0.6,0.5,1.2,0.8,1.8c-1.3,1.1-2.2,2.3-2.4,3.2c-0.5,1.5-0.1,2.2,0.7,2.4c0.4,0.1,0.8-0.1,1.2-0.2c0.5-0.2,1-0.4,1.5-0.8
	c0.9-0.7,1.8-1.6,1.7-2.8c0-0.6-0.2-1.1-0.4-1.7c1.1-0.5,2.6-0.7,4.4-0.5c4,0.5,4.8,3,4.6,4s-1,1.6-1.3,1.8
	c-0.3,0.2-0.4,0.2-0.3,0.4c0,0.2,0.2,0.2,0.4,0.1c0.3-0.1,2.1-0.8,2.2-2.8C45.9,22.4,43.6,19.7,39.4,19.7z M8.7,30.1
	c-1.3,1.4-3.2,2-4,1.5c-0.9-0.5-0.5-2.6,1.1-4.1c1-0.9,2.3-1.8,3.1-2.3c0.2-0.1,0.5-0.3,0.8-0.5c0.1,0,0.1,0,0.1,0l0,0
	c0.1,0,0.1-0.1,0.2-0.1C10.7,26.7,10.1,28.6,8.7,30.1z M18.3,23.6c-0.5,1.1-1.4,4-2,3.8c-0.5-0.1-0.8-2.3-0.1-4.5
	c0.4-1.1,1.1-2.4,1.6-2.9c0.7-0.8,1.5-1.1,1.7-0.7C19.7,19.7,18.6,22.9,18.3,23.6z M26.3,27.4c-0.2,0.1-0.4,0.2-0.5,0.1
	c-0.1,0,0.1-0.2,0.1-0.2s1-1.1,1.4-1.6c0.2-0.3,0.5-0.6,0.8-1v0.1C28.1,26.1,26.8,27,26.3,27.4z M32.4,26c-0.1-0.1-0.1-0.4,0.4-1.5
	c0.2-0.4,0.6-1.1,1.4-1.8c0.1,0.3,0.1,0.5,0.1,0.8C34.3,25.1,33.1,25.7,32.4,26z"/>
</svg>
