<?xml version="1.0" encoding="utf-8"?>
<!-- Generator: Adobe Illustrator 24.1.2, SVG Export Plug-In . SVG Version: 6.00 Build 0)  -->
<svg version="1.1" id="Layer_1" xmlns="http://www.w3.org/2000/svg" xmlns:xlink="http://www.w3.org/1999/xlink" x="0px" y="0px"
	 viewBox="0 0 365 149" style="enable-background:new 0 0 365 149;" xml:space="preserve">
<style type="text/css">
	.st0{fill:#E6E6E6;}
	.st1{fill:#616161;}
	.st2{fill:#1A1A1A;}
	.st3{fill:#BFBFBF;}
</style>
<g id="XMLID_1_">
	<path id="XMLID_2_" class="st0" d="M360.4,10.8c2.4,2,3.6,3.8,3.1,5.1c0,0.1-0.1,0.1-0.1,0.1v0.1c-0.1,0.2-0.4,0.4-0.6,0.6
		c0,0-4.9,4.3-5.8,6.6l-43.9,114.3c-2.6,6.4-8.7,10.4-15.2,10.4c-1.9,0-3.9-0.3-5.9-1.1c-1.3-0.5-2.5-1.1-3.6-1.9
		c1.4,1.2,3,2.2,4.9,2.9c1.9,0.7,3.9,1.1,5.9,1.1c6.5,0,12.7-3.9,15.2-10.4l44-114.2c0.9-2.2,5.8-6.6,5.8-6.6
		c0.2-0.2,0.4-0.4,0.6-0.6v-0.1c0-0.1,0.1-0.1,0.1-0.1C365.4,15.4,363.7,13.2,360.4,10.8"/>
	<path class="st0" d="M331.7,0c-2.7,0-4.5,0.6-5,1.8c0,0.1,0,0.1-0.1,0.2c-0.1,0.3-0.1,0.6,0,0.9c0,0,0.2,1.1,0.3,2.5
		c2,7.2,6.8,11.6,6.8,11.6l-19.5,50.9l0,0c5-2.9,9.1-2.3,14.5-4.7c5.6-2.4,11.7-9.5,11.7-9.5l-31.7,82.4c-1.8,4.6-6.2,7.4-11,7.4
		c-1.4,0-2.8-0.3-4.2-0.8c-0.7-0.3-1.3-0.6-1.9-0.9c1.1,2.2,2.7,4.1,4.7,5.6c-1.5-0.1-3-0.4-4.4-1c-6.4-2.5-10.4-8.5-10.4-15
		c-0.1,5.3,2.5,10.4,6.9,13.5c1.1,0.8,2.3,1.4,3.6,1.9c1.9,0.7,3.9,1.1,5.9,1.1c6.5,0,12.7-3.9,15.2-10.4L357,23.2
		c0.9-2.2,5.8-6.6,5.8-6.6c0.2-0.2,0.4-0.4,0.6-0.6v-0.1c0-0.1,0.1-0.1,0.1-0.1c0.5-1.3-0.7-3.2-3.1-5.1c-2.9-2.4-7.7-5.1-13.3-7.3
		C341.2,1.2,335.6,0,331.7,0"/>
	<path class="st1" d="M309.7,118.7c-0.7,0-1.3-0.6-1.3-1.3s0.6-1.3,1.3-1.3c0.7,0,1.3,0.6,1.3,1.3S310.4,118.7,309.7,118.7
		 M307.9,100.1c-2,0-3.6-1.6-3.6-3.6s1.6-3.6,3.6-3.6s3.6,1.6,3.6,3.6S309.9,100.1,307.9,100.1 M320.6,87.5c-1.1,0-1.9-0.9-1.9-1.9
		c0-1.1,0.9-1.9,1.9-1.9c1.1,0,1.9,0.9,1.9,1.9S321.7,87.5,320.6,87.5 M340.5,53.7c0,0-6.1,7.1-11.7,9.5c-5.5,2.4-9.6,1.8-14.5,4.7
		l0,0l-3,7.8c0.2-0.4,0.6-0.6,1.1-0.6c0.7,0,1.3,0.6,1.3,1.3s-0.6,1.3-1.3,1.3c-0.7,0-1.3-0.6-1.3-1.3c0-0.1,0-0.2,0-0.3l-5.6,14.7
		c0.1,0.4-0.1,1.1-0.6,1.6l0,0l-3.4,9c0.2-0.1,0.5-0.1,0.7-0.1c1.1,0,1.9,0.9,1.9,1.9c0,1.1-0.9,1.9-1.9,1.9c-0.8,0-1.4-0.4-1.7-1.1
		l-9.5,24.7c-1.6,4.5-1.2,9.2,0.8,13.1c0.6,0.4,1.2,0.7,1.9,0.9c1.4,0.5,2.8,0.8,4.2,0.8c4.7,0,9.1-2.9,11-7.4L340.5,53.7"/>
	<path id="XMLID_3_" class="st2" d="M355.9,13.6c0.6-1.6-3.9-4.9-10.2-7.3c-6.2-2.4-11.8-3-12.4-1.4s3.9,4.9,10.2,7.3
		C349.7,14.6,355.2,15.2,355.9,13.6z"/>
	<path id="XMLID_8_" class="st0" d="M290.2,106c-0.1,0.1-0.2,0.1-0.2,0.2l-7.4,19.4c-0.7,2-1.1,4-1,5.9c0-1.9,0.4-3.7,1-5.6
		L290.2,106 M326.3,2.9c0,0,0.9,6-0.1,8.7l-34.5,90.1c0.1-0.1,0.2-0.1,0.3-0.2l34.6-89.9c0.6-1.6,0.6-4.3,0.4-6.3
		C326.7,4.6,326.5,3.8,326.3,2.9"/>
	<path class="st3" d="M297,100.3c-2.1,1.9-4.4,3.9-6.8,5.7l-7.6,19.9c-0.7,1.8-1,3.7-1,5.6c0.1,6.5,4,12.5,10.4,15
		c1.4,0.6,2.9,0.9,4.4,1c-2-1.5-3.6-3.5-4.7-5.6c-4.8-2.9-7.2-9-5.2-14.3L297,100.3 M326.9,5.4c0.2,2,0.2,4.7-0.4,6.3l-34.6,89.9
		c2.4-1.8,4.7-3.7,6.7-5.5l8.2-21.2c0,0,2.5-4.1,7.5-7L333.8,17C333.7,17,329,12.6,326.9,5.4"/>
	<path class="st0" d="M304.8,92.5c-1.8,1.9-4.6,4.8-7.8,7.8l-10.5,27.3c-2,5.3,0.4,11.3,5.2,14.3c-2-3.9-2.4-8.7-0.8-13.1l9.5-24.7
		c-0.1-0.2-0.2-0.5-0.2-0.8c0-0.8,0.5-1.5,1.2-1.8L304.8,92.5 M314.2,67.9c-5,2.9-7.5,7-7.5,7l-8.2,21.2c2.2-2,4-3.7,5.1-4.8
		c0.6-0.6,1-0.8,1.3-0.8c0.2,0,0.4,0.1,0.4,0.4l5.6-14.7c0-0.1,0.1-0.3,0.1-0.4L314.2,67.9"/>
	<path class="st2" d="M312.3,75.1c-0.5,0-0.9,0.3-1.1,0.6l-0.1,0.4c0,0.1,0,0.2,0,0.3c0,0.7,0.6,1.3,1.3,1.3c0.7,0,1.3-0.6,1.3-1.3
		C313.6,75.7,313,75.1,312.3,75.1"/>
	<path class="st0" d="M311.2,75.8c-0.1,0.1-0.1,0.2-0.1,0.4L311.2,75.8"/>
	<path class="st2" d="M320.6,83.6c-1.1,0-1.9,0.9-1.9,1.9c0,1.1,0.9,1.9,1.9,1.9c1.1,0,1.9-0.9,1.9-1.9S321.7,83.6,320.6,83.6"/>
	<path class="st2" d="M307.9,92.9c-2,0-3.6,1.6-3.6,3.6s1.6,3.6,3.6,3.6s3.6-1.6,3.6-3.6S309.9,92.9,307.9,92.9"/>
	<path class="st2" d="M302.1,101.3c-0.3,0-0.5,0.1-0.7,0.1l-1,2.6c0.3,0.6,1,1.1,1.7,1.1c1.1,0,1.9-0.9,1.9-1.9
		C304,102.1,303.2,101.3,302.1,101.3"/>
	<path class="st2" d="M301.4,101.4c-0.7,0.3-1.2,1-1.2,1.8c0,0.3,0.1,0.6,0.2,0.8L301.4,101.4"/>
	<path class="st2" d="M309.7,116.1c-0.7,0-1.3,0.6-1.3,1.3s0.6,1.3,1.3,1.3c0.7,0,1.3-0.6,1.3-1.3S310.4,116.1,309.7,116.1"/>
	<path id="XMLID_11_" class="st0" d="M80.4,74.4c-0.1,0-0.2,0-0.2,0c-0.5,0-1.4,0.9-0.6,1.3c1.1,0.4,1.6,1.3,1.6,2.6
		c-0.9,5.3-7.6,11.4-10.1,13.4c-0.5,0.5,0.1,1.7,0.6,1.7c0.1,0,0.2,0,0.3-0.1c1.4-1.1,4.4-3.5,6.8-6.6c-4,8.9-11.8,20.4-14.8,24.5
		c-11.7,16.1-29.4,31-41.6,31c-9.8,0-18-6.6-19.8-16.3c-0.1-0.5-0.5-0.9-0.8-0.9s-0.6,0.3-0.5,1c2.2,13.3,12.5,18.5,24.9,18.5
		c13.6,0,29.6-9.8,38.4-19.9c14.3-16.3,23.5-35,21-45.6C84.5,75.2,82,74.4,80.4,74.4 M234.6,62.7c-0.6,0-1.2,0.1-1.9,0.3
		c-2.7,0.8-5.3,6-7.3,10.4c-6,8.9-16,21-23,27.4c-2.9,2.5-5.7,4.2-7.2,4.2c-1.6,0-1.5-2.1,2.2-7.4c2.9-4,6.5-8.2,8.6-12.5
		c3.4-7.4-0.5-12-6.1-12c-2.5,0-5.3,0.9-8,2.9c-4.9,3.8-11.5,11.5-16.8,15.8c-1.1,0.9-1.1,2.1-0.5,2.1c0.2,0,0.5-0.1,0.8-0.4
		c4.1-3.3,11.4-11,17.7-15.5c1.9-1.4,3.4-2,4.3-2c1.7,0,1.9,1.8-0.1,3.9c-4.1,4.8-11.4,13.1-13.3,18.3c-2.6,7.9,0.5,11.4,5.7,11.4
		c7.1,0,17.8-11.1,24.9-19.9c2.4-3,4.9-6.5,7.1-9.8c-6.2,12-12.7,24.2-20.7,35.2c-11.4,15.5-25.7,27.2-39.2,27.2
		c-9.8,0-18.2-6.6-20-16.3c-0.1-0.5-0.4-0.9-0.8-0.9c-0.3,0-0.6,0.3-0.5,1c2.2,13.3,12.5,18.5,24.9,18.5c13.6,0,26.7-7.9,35.9-17.6
		c18.5-19.5,20.7-41.5,26.4-53.8c2.3-4.8,4.5-5.7,6.3-5.7c0.3,0,0.6,0,0.9,0.1c0.3,0,0.5,0,0.7,0c2.2,0,3-1.3,2.6-2.6
		C238.3,64,236.8,62.7,234.6,62.7 M92.3,58.9c-1.8,0-3.9,1-5.5,2.8c-2.5,2.7-2.9,6.1-0.9,7.6c0.6,0.5,1.5,0.8,2.3,0.8
		c1.8,0,3.9-1,5.4-2.7c2.5-2.7,2.9-6.2,0.9-7.7C94,59.2,93.2,58.9,92.3,58.9 M271.6,37.9c-4.8,0.1-13.5,3.5-17.5,6.6
		c-0.7,0.7-0.6,1.1-0.1,1.1c0.2,0,0.4-0.1,0.8-0.2c0.8-0.3,1.7-0.8,2.6-1.1c0.9-0.5,1.5-0.7,1.9-0.7c2,0,0.6,3.7-0.2,5.3
		c-5.4,9.5-15,22.7-20.1,29.4c-4.1,5.5-9.2,11.1-13.1,14.2c-1.1,0.9-1,1.8-0.2,1.8c0.3,0,0.7-0.1,1.1-0.4c1.4-0.9,3.5-3,5.8-5.4
		c-4.3,8.5-7.8,20.5,3.5,22c0.6,0.1,1.2,0.1,1.8,0.1c9.2,0,19.7-9,26.7-15.8c0.8-0.8,1.7-1.7,2.6-2.6c0.2-0.2,0.4-0.4,0.6-0.6
		c-4.3,8.5-7.8,20.5,3.5,22c0.6,0.1,1.2,0.1,1.8,0.1c5.5,0,11.5-3.3,16.9-7.3l1.7-4.5c-4,3-8.2,5.7-11.9,7.1
		c-2.3,0.9-4.1,1.3-5.5,1.3c-12.4,0,12.2-32.9,14.5-35.8c5.6-7.1,18.1-19.3,21.9-25.3c2.7-4.6,2.6-8.2-3.8-8.2
		c-4.8,0.1-13.5,3.5-17.5,6.6c-0.7,0.7-0.6,1.1-0.1,1.1c0.2,0,0.4-0.1,0.8-0.2c0.8-0.3,1.7-0.8,2.6-1.1c0.9-0.5,1.5-0.7,1.9-0.7
		c2,0,0.6,3.7-0.2,5.3c-5.4,9.5-15,22.7-20.1,29.4c-2.4,3.3-5.1,6.5-7.8,9.2c-4.8,4.6-14.5,12.8-21.8,15.5c-2.3,0.9-4.1,1.3-5.5,1.3
		c-12.4,0,12.2-32.9,14.5-35.8c5.6-7,18-19.1,21.8-25.2C278.1,41.5,278,37.9,271.6,37.9 M148.7,94.1c-1.2,0-2.1-0.2-2.8-0.6
		l-0.6-0.4c-0.4-0.6-0.8-1.3-1.1-1.9c2.5-3.1,5.3-5.8,8.2-8.3c4.9-4.4,8.8-6,11.5-6c5.6,0,6.1,7-0.2,11.8
		C159.8,91.7,153,94.1,148.7,94.1 M193.4,27.9c-5.1,0-12.2,2.9-20,10c-15.3,14.1-25.3,28.8-34,47.9c-3,3.6-5.2,6.6-7.9,8.9
		c-0.4,0.3-0.6,0.6-0.8,0.9c-7.5,6.4-19.2,15.1-26.6,15.1c-0.1,0-0.2,0-0.3,0c-5,0-7.1-3.9-6.2-8.8c1.4-7.9,9.6-17.2,16.6-20.4
		c1.7-0.8,3.3-1.1,4.7-1.1c5.8,0,7.5,6.3-2.2,11.4c-4.6,2.3-10,3.6-12.2,3.6c-2.6,0-2.4,1.1-0.1,1.1c0.2,0,0.3,0,0.5,0
		c3.7,0,9.2-1.5,12.9-3.2c12.2-5.8,13-16.7-0.3-17.1c-0.3,0-0.6,0-0.9,0c-14.2,0-30.8,12-30.7,27.2c0.1,7,5.7,10.7,13.3,10.7
		c12.8-0.1,24.1-9.8,33.4-18.3c1.4-1.1,2.6-2.3,3.9-3.6c-3.3,8.2-4.9,15.9-4.1,21.6c0.5,4.1,2.9,6,4.7,7.6c0.1,0.1,0.2,0.1,0.3,0.1
		c0.3,0,0.7-0.3,0.3-0.9c-2.7-3.2-1.9-12.8,1.8-22.1c2.7,5.4,12,11.9,22.6,11.9c1.8,0,3.6-0.2,5.5-0.6c3.8-0.9,6.8-3,6.8-6.3
		c0-0.2-0.2-0.3-0.3-0.3c-0.2,0-0.3,0.1-0.3,0.3c0,1.9-2.2,3.6-4.7,3.9c-0.4,0.1-0.7,0.1-1.1,0.1c-6.1,0-16.6-6.4-21.7-13
		c1.3,0.5,2.9,0.7,4.7,0.7c6.2,0,14.3-2.6,18.6-5.8c5.2-3.8,7.3-7.9,7.6-11.2c0.5-4-2.6-6.8-7.5-6.8c-1.9,0-4,0.4-6.4,1.3
		c-5.4,2.2-11.9,7-18.7,15.9c7.1-11.7,21.2-30.9,34.9-43.1c7.5-6.6,13.6-9.7,16.6-9.7c3.8,0,3.1,4.8-5.2,13.5
		c-6.2,6.5-17.9,14.9-25.9,18.5c-2,0.9-1.6,1.9-0.5,1.9c0.3,0,0.6-0.1,1-0.2c8.6-3.8,20-11.5,26.9-18
		C206,38.7,203.3,27.9,193.4,27.9"/>
	<path class="st0" d="M305.5,90.8l-0.6,1.6l0,0C305.4,91.9,305.6,91.2,305.5,90.8"/>
	<path id="XMLID_22_" class="st0" d="M292,101.6c-0.1,0.1-0.2,0.1-0.3,0.2l-1.7,4.5c0.1-0.1,0.2-0.1,0.2-0.2L292,101.6"/>
	<path class="st0" d="M298.6,96.1c-2,1.7-4.2,3.6-6.7,5.5l-1.7,4.5c2.4-1.8,4.7-3.8,6.8-5.7L298.6,96.1"/>
	<path class="st0" d="M305,90.5c-0.3,0-0.7,0.2-1.3,0.8c-1,1.1-2.8,2.8-5.1,4.8l-1.6,4.2c3.3-3,6-5.9,7.8-7.8l0.6-1.6
		C305.4,90.6,305.3,90.5,305,90.5"/>
	<path class="st0" d="M84.6,68.2c1.9,1.6,5.4,0.6,7.8-1.9c2.5-2.7,2.9-6.2,0.9-7.7c-1.9-1.6-5.4-0.6-7.8,2.1
		C83.1,63.2,82.7,66.6,84.6,68.2z M78.9,73.2c-0.5,0-1.4,0.9-0.6,1.3c1.1,0.4,1.6,1.3,1.6,2.6c-0.9,5.3-7.6,11.4-10.1,13.4
		c-0.6,0.6,0.3,2.1,0.9,1.6c1.4-1.1,4.4-3.5,6.8-6.6c-4,8.9-11.8,20.4-14.8,24.5c-11.7,16.1-29.4,31-41.6,31
		c-9.8,0-18-6.6-19.8-16.3c-0.1-1.1-1.6-1.3-1.3,0.1c2.2,13.3,12.5,18.5,24.9,18.5c13.6,0,29.6-9.8,38.4-19.9
		c14.3-16.3,23.5-35,21-45.6C83.2,73.7,80.5,73.1,78.9,73.2z M166.5,108.7c3.8-0.9,6.8-3,6.8-6.3c0-0.4-0.6-0.4-0.6,0
		c0,1.9-2.2,3.6-4.7,3.9c-5.8,0.9-17.4-5.9-22.8-12.9c5.8,2.2,17.8-1,23.4-5c5.2-3.8,7.3-7.9,7.6-11.2c0.6-5.5-5.4-8.8-13.9-5.5
		c-5.4,2.2-11.9,7-18.7,15.9c7.1-11.7,21.2-30.9,34.9-43.1c16.8-14.9,26.4-12,11.4,3.8c-6.2,6.5-17.9,14.9-25.9,18.5
		c-2.5,1.1-1.3,2.5,0.5,1.7c8.6-3.8,20-11.5,26.9-18c20.4-19.5,3.4-34.3-19.2-13.6c-15.3,14-25.3,28.8-34,47.9
		c-3,3.6-5.2,6.6-7.9,8.9c-0.4,0.3-0.6,0.6-0.8,0.9c-7.5,6.4-19.2,15.1-26.6,15.1c-5.2,0.1-7.4-3.8-6.5-8.8
		C97.8,93,106,83.7,113,80.5c9.1-4.1,14.4,3.9,2.5,10.3c-4.6,2.3-10,3.6-12.2,3.6c-2.6,0-2.4,1.1-0.1,1.1c3.6,0.1,9.5-1.4,13.3-3.2
		c12.2-5.8,13-16.7-0.3-17.1c-14.4-0.5-31.7,11.7-31.5,27.2c0.1,7,5.7,10.7,13.3,10.7c12.8-0.1,24.1-9.8,33.4-18.3
		c1.4-1.1,2.6-2.3,3.9-3.6c-3.3,8.2-4.9,15.9-4.1,21.6c0.5,4.1,2.9,6,4.7,7.6c0.4,0.3,1.1,0,0.6-0.8c-2.7-3.2-1.9-12.8,1.8-22.1
		C141.6,103.6,153.8,111.5,166.5,108.7z M151.1,81.7c14.9-13.3,20.7-1.4,11.3,5.8c-4.9,3.8-14.7,6.6-17.8,4.8l-0.6-0.4
		c-0.4-0.6-0.8-1.3-1.1-1.9C145.4,87,148.3,84.2,151.1,81.7z M234,66.6c6,0.6,3.5-6.6-2.6-4.8c-2.7,0.8-5.3,6-7.3,10.4
		c-6,8.9-16,21-23,27.4c-6.2,5.3-11.9,6.8-4.9-3.2c2.9-4,6.5-8.2,8.6-12.5c4.9-10.7-5.6-15.5-14-9c-4.9,3.8-11.5,11.5-16.8,15.8
		c-1.4,1.1-1.1,2.8,0.4,1.7c4.1-3.3,11.4-11,17.7-15.5c5.2-4,7.3-1.4,4.3,1.9c-4.1,4.8-11.4,13.1-13.3,18.3
		c-2.6,7.9,0.5,11.4,5.7,11.4c7.1,0,17.8-11.1,24.9-19.9c2.4-3,4.9-6.5,7.1-9.8c-6.2,12-12.7,24.2-20.7,35.2
		c-11.4,15.5-25.7,27.2-39.2,27.2c-9.8,0-18.2-6.6-20-16.3c-0.1-1.1-1.4-1.3-1.3,0.1c2.2,13.3,12.5,18.5,24.9,18.5
		c13.6,0,26.7-7.9,35.9-17.6c18.5-19.5,20.7-41.5,26.4-53.8C229.6,66.6,232,66.3,234,66.6z M309.4,47.8c2.7-4.6,2.6-8.2-3.8-8.2
		c-4.8,0.1-13.5,3.5-17.5,6.6c-0.9,0.9-0.5,1.4,0.6,0.9c0.8-0.3,1.7-0.8,2.6-1.1c4.6-2.5,2.7,2.7,1.7,4.6
		c-5.4,9.5-15,22.7-20.1,29.4c-2.4,3.3-5.1,6.5-7.8,9.2c-4.8,4.6-14.5,12.8-21.8,15.5c-23.6,8.8,6.5-31.3,9-34.5
		c5.6-7,18-19.1,21.8-25.2c2.7-4.6,2.6-8.2-3.8-8.2c-4.8,0.1-13.5,3.5-17.5,6.6c-0.9,0.9-0.5,1.4,0.6,0.9c0.8-0.3,1.7-0.8,2.6-1.1
		c4.6-2.5,2.7,2.7,1.7,4.6c-5.4,9.5-15,22.7-20.1,29.4c-4.1,5.5-9.2,11.1-13.1,14.2c-1.6,1.3-0.6,2.5,0.9,1.4c1.4-0.9,3.5-3,5.8-5.4
		c-4.3,8.5-7.8,20.5,3.5,22c9.6,1.3,21-8.5,28.4-15.7c0.8-0.8,1.7-1.7,2.6-2.6c0.2-0.2,0.4-0.4,0.6-0.6c-4.3,8.5-7.8,20.5,3.5,22
		c12.3,1.7,27.7-14.9,33.6-21c1.1-1.1,0.8-3.1-1.1-1.1c-3.5,3.6-15.3,14.4-23.9,17.6c-23.6,8.8,6.5-31.3,9-34.5
		C293.2,65.9,305.6,53.8,309.4,47.8z"/>
</g>
</svg>
