<?xml version="1.0" encoding="utf-8"?>
<!-- Generator: Adobe Illustrator 24.1.2, SVG Export Plug-In . SVG Version: 6.00 Build 0)  -->
<svg version="1.1" id="Layer_1" xmlns="http://www.w3.org/2000/svg" xmlns:xlink="http://www.w3.org/1999/xlink" x="0px" y="0px"
	 viewBox="0 0 145.2 114.1" style="enable-background:new 0 0 145.2 114.1;" xml:space="preserve">
<style type="text/css">
	.st0{fill:#664747;}
	.st1{fill:#E6E6E6;}
</style>
<path class="st0" d="M29.3,26.5l0.2-26.4L56,0v26.5H29.3z"/>
<path class="st1" d="M85.8,0H59v26.5h26.7L85.8,0L85.8,0z"/>
<path class="st1" d="M145.2,0h-26.7v26.5h26.7V0z"/>
<path class="st0" d="M56,30.6H29.3v26.5H56V30.6z"/>
<path class="st1" d="M85.8,30.6H59v26.5h26.7L85.8,30.6L85.8,30.6z"/>
<path class="st0" d="M88.8,30.6h26.7l-13.2,26.7L88.8,30.6z"/>
<path class="st0" d="M102.3,26.4L88.8,0v26.5h26.7V0L102.3,26.4z"/>
<path class="st1" d="M145.2,30.6h-26.7v26.5h26.7V30.6z"/>
<path class="st1" d="M145.2,61.3h-26.7v26.5h26.7V61.3z"/>
<path class="st0" d="M0,87.8h26.7V61.3L0,87.8z"/>
<path class="st0" d="M13.4,70.6H0v13.3L13.4,70.6z"/>
<path class="st0" d="M56.2,61.3H29.6v26.5h26.7V61.3H56.2z"/>
<path class="st1" d="M85.6,61.3H58.9v26.5h26.7C85.6,87.8,85.6,61.3,85.6,61.3z"/>
<path class="st1" d="M6.2,114.1H3.5V93.7h2.6l7.2,12.3h0.1l7.1-12.3H23V114h-2.6v-12l0.1-3.4h-0.1l-6.3,11.1h-1.6L6.2,98.6H6.1
	l0.1,3.4V114.1z"/>
<path class="st1" d="M48.6,93.7v2.5h-9.2v6.4h8.3v2.5h-8.4v6.4h9.2v2.5H36.7V93.7H48.6z"/>
<path class="st1" d="M64.1,114.1V93.7h6.2c3.1,0,5.6,0.9,7.5,2.8s2.8,4.4,2.8,7.4s-0.9,5.5-2.8,7.4s-4.4,2.8-7.5,2.8L64.1,114.1z
	 M66.7,96.2v15.3h3.6c2.4,0,4.3-0.7,5.6-2.1s2.1-3.2,2.1-5.6s-0.7-4.3-2.1-5.6s-3.2-2.1-5.6-2.1L66.7,96.2L66.7,96.2z"/>
<path class="st1" d="M103.4,114.1h-2.6V93.7h2.6V114.1z"/>
<path class="st1" d="M125.6,114.1h-2.9l7.7-20.3h3l7.7,20.3h-2.9l-2-5.5h-8.6L125.6,114.1z M131.8,97l-3.3,9.1h6.7L131.8,97
	L131.8,97z"/>
</svg>
