<?xml version="1.0" encoding="utf-8"?>
<!-- Generator: Adobe Illustrator 27.5.0, SVG Export Plug-In . SVG Version: 6.00 Build 0)  -->
<svg version="1.1" id="Layer_1" xmlns="http://www.w3.org/2000/svg" xmlns:xlink="http://www.w3.org/1999/xlink" x="0px" y="0px"
	 viewBox="0 0 37.5 37.5" style="enable-background:new 0 0 37.5 37.5;" xml:space="preserve">
<style type="text/css">
	.st0{fill:#E6E6E6;}
	.st1{fill:#1A1A1A;}
</style>
<path class="st0" d="M0,4.2C0,1.9,1.9,0,4.2,0h29.2c2.3,0,4.2,1.9,4.2,4.2v29.2c0,2.3-1.9,4.2-4.2,4.2H4.2c-2.3,0-4.2-1.9-4.2-4.2
	V4.2z"/>
<path class="st1" d="M3.1,3.1v31.2h31.2V3.1H3.1z M15.6,13.7h-2.1v4.6h2.1c0.6,0,1-0.2,1.3-0.6c0.3-0.4,0.5-0.9,0.5-1.6
	c0-0.7-0.2-1.3-0.5-1.8C16.6,14,16.2,13.7,15.6,13.7z M19.1,19.6c-0.9,0.8-2.1,1.3-3.6,1.3h-2V26h-3.1V11.2h5.2
	c1.5,0,2.6,0.5,3.5,1.4c0.9,0.9,1.3,2.1,1.3,3.5C20.4,17.6,20,18.7,19.1,19.6z M28.3,17.8l-0.9-0.1c-0.8,0-1.4,0.3-1.6,1V26h-2.9V15
	h2.7l0.1,1.1c0.4-0.9,1-1.4,1.9-1.4c0.3,0,0.6,0,0.8,0.1L28.3,17.8z"/>
</svg>
