<?xml version="1.0" encoding="utf-8"?>
<!-- Generator: Adobe Illustrator 27.5.0, SVG Export Plug-In . SVG Version: 6.00 Build 0)  -->
<svg version="1.1" id="Layer_1" xmlns="http://www.w3.org/2000/svg" xmlns:xlink="http://www.w3.org/1999/xlink" x="0px" y="0px"
	 viewBox="0 0 42.7 42.7" style="enable-background:new 0 0 42.7 42.7;" xml:space="preserve">
<style type="text/css">
	.st0{fill:#616161;}
	.st1{fill:#1A1A1A;}
	.st2{fill:#E6E6E6;}
</style>
<path class="st0" d="M22.4,41.7c10.6,0,19.3-9.1,19.3-20.3S33,1,22.4,1S3.1,10.1,3.1,21.4S11.8,41.7,22.4,41.7z"/>
<path class="st1" d="M26,32.2c8.6,0,15.6-6.8,15.6-15.1S34.7,2,26,2c-8.6,0-15.6,6.8-15.6,15.1S17.4,32.2,26,32.2z"/>
<path class="st2" d="M25,3.1c0,0,5.2,2.1,3,3.9c-1.1,0.9-2.5,1.4-3.8,2c-1.5,0.7-3.1,1.3-4.5,2.3c-1,0.8-2,1.6-2.7,2.7
	c-0.8,1.3-1.3,2.7-1.4,4.3c-0.1,1.4,0.2,2.8,0.8,4c0.8,1.8,2.2,3.1,4,4.1c1.3,0.6,2.6,1,4,0.9c1.7,0,3.2-0.5,4.5-1.5
	c0.8-0.5,1.4-1.2,2-2c0.7-0.9,1.2-1.8,1.7-2.8c0.6-1.2,1-2.5,1.5-3.7c0.4-1,0.7-1.9,1.3-2.8c2.2-3.2,4.2-0.1,4.2-0.1s-1-4.2-4.2-7.3
	C32.3,4.2,25,3.1,25,3.1z"/>
<path class="st2" d="M36.5,16.7c-0.5,5.8-1.6,10.2-3.2,13.5c-2.4,5.9-8.4,10-15.4,9.4c-7.3-0.6-13.1-6.6-13.7-13.9
	C3.8,19.9,6.6,14.8,11,11.9c3.6-2.7,8.7-3.7,13-4.6c3.5-0.7,5.2-1.8,6-2.9c0.7-1.1,0.2-2.6-1.1-3c-2.8-1.1-5.9-1.6-9.1-1.3
	C8.6,0.9-0.2,10.5,0,21.8c0.2,12.3,10.8,22,23.4,20.9c9.6-0.9,17.5-8.2,19-17.7c0.7-4.2,0.1-8.1-1.3-11.6c-0.7-1.6-3-1.8-3.8-0.2
	C36.7,14.3,36.5,15.9,36.5,16.7z"/>
</svg>
