<?xml version="1.0" encoding="utf-8"?>
<!-- Generator: Adobe Illustrator 24.1.2, SVG Export Plug-In . SVG Version: 6.00 Build 0)  -->
<svg version="1.1" id="Capa_1" xmlns="http://www.w3.org/2000/svg" xmlns:xlink="http://www.w3.org/1999/xlink" x="0px" y="0px"
	 viewBox="0 0 800 800" style="enable-background:new 0 0 800 800;" xml:space="preserve">
<style type="text/css">
	.st0{fill:#E6E6E6;}
</style>
<g>
	<path class="st0" d="M400,0C179.4,0,0,179.4,0,400c0,220.6,179.4,400,400,400s400-179.4,400-400C800,179.4,620.6,0,400,0z
		 M384.9,587.4c-18.8,0-31.8-14.5-31.8-33.4c0-19.9,13.5-33.9,32.3-33.9c18.9,0,31.8,14,31.8,33.9
		C417.2,572.8,404.8,587.4,384.9,587.4z M437.2,385.4c-23.7,28-32.3,51.7-30.7,79.2l0.5,14h-42l-1.1-14
		c-3.2-29.1,6.5-60.8,33.4-93.2c24.2-28.5,37.7-49.6,37.7-73.8c0-27.5-17.2-45.8-51.2-46.3c-19.4,0-40.9,6.5-54.4,16.7l-12.9-33.9
		c17.8-12.9,48.5-21.5,77-21.5c61.9,0,89.9,38.2,89.9,79.2C483.5,328.4,463,354.8,437.2,385.4z"/>
</g>
</svg>
