<?xml version="1.0" encoding="utf-8"?>
<!-- Generator: Adobe Illustrator 24.1.2, SVG Export Plug-In . SVG Version: 6.00 Build 0)  -->
<svg version="1.1" id="Layer_1" xmlns="http://www.w3.org/2000/svg" xmlns:xlink="http://www.w3.org/1999/xlink" x="0px" y="0px"
	 viewBox="0 0 649.2 649.2" style="enable-background:new 0 0 649.2 649.2;" xml:space="preserve">
<style type="text/css">
	.st0{fill:#E6E6E6;}
</style>
<path class="st0" d="M145.3,0l-17.2,18L18,128.1L0,145.3L179.7,325l-125,125l-1.6,7.8L25.8,595.3L18,632l36.7-7.8l137.5-27.3
	l7.8-1.6l125-125l178.9,178.9l17.2-18L631.3,521l18-17.2L470.3,325l123.4-123.4c40.2-40.2,40.2-105.1,0-145.3
	c-20.1-20.1-46.4-30.5-72.7-30.5s-52.5,10.4-72.7,30.5L325,179.7L145.3,0z M145.3,71.1l48.4,49.2L157,157l36,36l36.7-36.7l59.4,59.4
	l-74.2,74.2L70.3,145.3L145.3,71.1z M521.1,74.2c13,0,26.2,5.9,37.5,17.2c22.6,22.6,22.6,51.7,0,74.2L542.2,182L468,107.8l16.4-16.4
	C495.7,80.1,508.1,74.2,521.1,74.2z M432.8,143l74.2,74.2L204.7,519.5c-16.5-31.7-42.5-57.7-74.2-74.2L432.8,143z M435.2,360.2
	l59.4,59.4L457,457l36,36l37.5-37.5l47.7,47.7l-75,75l-143-143L435.2,360.2z M98.4,485.2c30,12.6,53.8,36.4,66.4,66.4L82,568
	L98.4,485.2z"/>
</svg>
