<?xml version="1.0" encoding="utf-8"?>
<!-- Generator: Adobe Illustrator 27.5.0, SVG Export Plug-In . SVG Version: 6.00 Build 0)  -->
<svg version="1.1" id="Layer_1" xmlns="http://www.w3.org/2000/svg" xmlns:xlink="http://www.w3.org/1999/xlink" x="0px" y="0px"
	 viewBox="0 0 37.5 37.5" style="enable-background:new 0 0 37.5 37.5;" xml:space="preserve">
<style type="text/css">
	.st0{fill:#E6E6E6;}
	.st1{fill:#1A1A1A;}
</style>
<path class="st0" d="M0,4.2C0,1.9,1.9,0,4.2,0h29.2c2.3,0,4.2,1.9,4.2,4.2v29.2c0,2.3-1.9,4.2-4.2,4.2H4.2c-2.3,0-4.2-1.9-4.2-4.2
	V4.2z"/>
<path class="st1" d="M22.2,17.2c-0.5,0-0.9,0.2-1.2,0.6c-0.2,0.4-0.4,1.2-0.4,2.3v0.8c0,1.1,0.1,1.8,0.3,2.3
	c0.2,0.4,0.6,0.6,1.2,0.6c0.6,0,1-0.3,1.3-0.8v-5C23.2,17.5,22.7,17.2,22.2,17.2z"/>
<path class="st1" d="M3.1,3.1v31.2h31.3V3.1H3.1z M15.8,26h-3V11.2h3V26z M26.4,26h-2.6l-0.1-1.1c-0.6,0.9-1.3,1.3-2.3,1.3
	c-1.2,0-2-0.4-2.6-1.3c-0.6-0.9-0.9-2.2-0.9-3.9v-0.8c0-1.8,0.3-3.1,0.9-4c0.6-0.9,1.5-1.3,2.7-1.3c0.8,0,1.6,0.4,2.1,1.1v-5.5h2.9
	L26.4,26L26.4,26z"/>
</svg>
