<?xml version="1.0" encoding="utf-8"?>
<!-- Generator: Adobe Illustrator 27.5.0, SVG Export Plug-In . SVG Version: 6.00 Build 0)  -->
<svg version="1.1" id="Layer_1" xmlns="http://www.w3.org/2000/svg" xmlns:xlink="http://www.w3.org/1999/xlink" x="0px" y="0px"
	 viewBox="0 0 37.5 37.5" style="enable-background:new 0 0 37.5 37.5;" xml:space="preserve">
<style type="text/css">
	.st0{fill:#E6E6E6;}
	.st1{fill:#1A1A1A;}
</style>
<path class="st0" d="M0,4.2C0,1.9,1.9,0,4.2,0h29.2c2.3,0,4.2,1.9,4.2,4.2v29.2c0,2.3-1.9,4.2-4.2,4.2H4.2c-2.3,0-4.2-1.9-4.2-4.2
	V4.2z"/>
<path class="st1" d="M3.1,3.1v31.2h31.2V3.1H3.1z"/>
<path class="st0" d="M10.7,11.3l2.8,10.8h0.1l2.8-10.8h3.9V26h-3v-4.3l0.3-5.7l-0.1,0l-2.9,10h-2l-2.9-9.9l-0.1,0l0.3,5.6V26h-3
	V11.3H10.7z"/>
<path class="st0" d="M26.8,26.2c-1.4,0-2.6-0.5-3.4-1.4c-0.8-0.9-1.3-2-1.3-3.4v-1.5c0-1.5,0.4-2.7,1.2-3.6c0.8-0.9,1.9-1.4,3.3-1.4
	c1.3,0,2.4,0.4,3.1,1.3c0.7,0.9,1.1,2,1.1,3.5v1.8h-5.7v0c0,0.7,0.2,1.3,0.5,1.8c0.3,0.5,0.9,0.7,1.6,0.7c0.6,0,1-0.1,1.4-0.2
	c0.4-0.1,0.8-0.3,1.3-0.6l0.8,1.8c-0.4,0.4-0.9,0.7-1.6,0.9C28.3,26.1,27.6,26.2,26.8,26.2z M26.5,17.2c-0.5,0-0.8,0.2-1.1,0.6
	c-0.2,0.4-0.4,1-0.4,1.7h2.7v-0.4c0-0.6-0.1-1.1-0.3-1.4C27.3,17.3,27,17.2,26.5,17.2z"/>
</svg>
