<?xml version="1.0" encoding="utf-8"?>
<!-- Generator: Adobe Illustrator 24.1.2, SVG Export Plug-In . SVG Version: 6.00 Build 0)  -->
<svg version="1.1" id="Layer_1" xmlns="http://www.w3.org/2000/svg" xmlns:xlink="http://www.w3.org/1999/xlink" x="0px" y="0px"
	 viewBox="0 0 466.7 666.7" style="enable-background:new 0 0 466.7 666.7;" xml:space="preserve">
<style type="text/css">
	.st0{fill:none;stroke:#E6E6E6;stroke-width:66.6667;stroke-linecap:round;stroke-linejoin:round;stroke-miterlimit:133.3333;}
</style>
<path class="st0" d="M233.3,33.3h-100c-55.2,0-100,44.8-100,100s44.8,100,100,100 M233.3,33.3v200 M233.3,33.3h100
	c55.2,0,100,44.8,100,100s-44.8,100-100,100 M233.3,233.3h-100 M233.3,233.3h100 M233.3,233.3v200 M133.3,233.3
	c-55.2,0-100,44.8-100,100s44.8,100,100,100 M333.3,233.3c55.2,0,100,44.8,100,100s-44.8,100-100,100s-100-44.8-100-100
	S278.1,233.3,333.3,233.3z M233.3,433.3h-100 M233.3,433.3v100c0,55.2-44.8,100-100,100c-55.2,0-100-44.8-100-100s44.8-100,100-100"
	/>
</svg>
