<?xml version="1.0" encoding="utf-8"?>
<!-- Generator: Adobe Illustrator 24.1.2, SVG Export Plug-In . SVG Version: 6.00 Build 0)  -->
<svg version="1.1" id="Layer_1" xmlns="http://www.w3.org/2000/svg" xmlns:xlink="http://www.w3.org/1999/xlink" x="0px" y="0px"
	 viewBox="0 0 41.7 41.7" style="enable-background:new 0 0 41.7 41.7;" xml:space="preserve">
<style type="text/css">
	.st0{fill:#E6E6E6;}
</style>
<path class="st0" d="M20.8,0C9.3,0,0,9.3,0,20.8s9.3,20.8,20.8,20.8s20.8-9.3,20.8-20.8C41.7,9.3,32.3,0,20.8,0z M37.8,29.3
	c1.1-3.4-0.1-7.3-3.2-9.3c-3.6-2.3-8.5-1.3-10.8,2.4c-1.7,2.6-1.6,5.9-0.1,8.3c-0.9,1.4-2.1,2.6-3.7,3.6c-4.9,2.9-11.2,1.8-14.7-2.5
	c-0.2-0.2-0.3-0.5-0.5-0.7c2.4,3,6.7,3.8,10.1,1.9c3.8-2.1,5.1-6.9,3-10.7c-1.5-2.6-4.2-4-7-4c-0.9-1.6-1.4-3.5-1.4-5.5
	c0-5,3.2-9.2,7.7-10.7c0.3-0.1,0.7-0.1,1-0.2c-3,1.1-5.2,4-5.2,7.4c0,4.3,3.5,7.8,7.8,7.8c2.9,0,5.4-1.6,6.8-3.9c2,0,4,0.5,5.8,1.7
	c4.6,2.8,6.5,8.4,4.9,13.3C38.2,28.7,38,29,37.8,29.3z"/>
</svg>
