<?xml version="1.0" encoding="utf-8"?>
<!-- Generator: Adobe Illustrator 27.5.0, SVG Export Plug-In . SVG Version: 6.00 Build 0)  -->
<svg version="1.1" id="Layer_1" xmlns="http://www.w3.org/2000/svg" xmlns:xlink="http://www.w3.org/1999/xlink" x="0px" y="0px"
	 viewBox="0 0 37.5 37.5" style="enable-background:new 0 0 37.5 37.5;" xml:space="preserve">
<style type="text/css">
	.st0{fill:#E6E6E6;}
	.st1{fill:#1A1A1A;}
</style>
<path class="st0" d="M0,37.5V0h37.5v37.5H0z"/>
<path class="st1" d="M24.5,28.1c0.7,1.2,1.5,2.3,3.2,2.3c1.4,0,2.1-0.7,2.1-1.7c0-1.1-0.8-1.6-2.3-2.2l-0.8-0.4c-2.4-1-4-2.3-4-5
	c0-2.5,1.9-4.4,4.9-4.4c2.1,0,3.7,0.7,4.8,2.7L29.7,21c-0.6-1-1.2-1.4-2.2-1.4c-1,0-1.6,0.6-1.6,1.4c0,1,0.6,1.4,2.1,2l0.8,0.4
	c2.9,1.2,4.5,2.5,4.5,5.3c0,3-2.4,4.7-5.6,4.7c-3.1,0-4.9-1.6-5.9-3.5L24.5,28.1z M12.5,28.2c0.5,0.9,1.3,1.7,2.5,1.7
	c1.1,0,1.7-0.4,1.7-2.1v-11h3.5v11.6c0,3.5-2,5.1-5,5.1c-2.7,0-4.6-1.8-5.4-3.5L12.5,28.2z"/>
</svg>
