<?xml version="1.0" encoding="utf-8"?>
<!-- Generator: Adobe Illustrator 27.5.0, SVG Export Plug-In . SVG Version: 6.00 Build 0)  -->
<svg version="1.1" id="Layer_1" xmlns="http://www.w3.org/2000/svg" xmlns:xlink="http://www.w3.org/1999/xlink" x="0px" y="0px"
	 viewBox="0 0 37.5 37.5" style="enable-background:new 0 0 37.5 37.5;" xml:space="preserve">
<style type="text/css">
	.st0{fill:#E6E6E6;}
	.st1{fill:#1A1A1A;}
</style>
<path class="st0" d="M0,4.2C0,1.9,1.9,0,4.2,0h29.2c2.3,0,4.2,1.9,4.2,4.2v29.2c0,2.3-1.9,4.2-4.2,4.2H4.2c-2.3,0-4.2-1.9-4.2-4.2
	V4.2z"/>
<path class="st1" d="M3.1,3.1v31.2h31.2V3.1H3.1z M13.6,16.3l2-5.1h3.4l-3.5,7.3l3.6,7.5h-3.5l-2-5.2l-2,5.2H8.1l3.6-7.5l-3.5-7.3
	h3.4L13.6,16.3z M19.9,20.2c0-1.8,0.3-3.1,0.9-4c0.6-0.9,1.5-1.3,2.7-1.3c0.8,0,1.6,0.4,2.1,1.1v-5.5h2.9v15.6h-2.6L25.7,25
	c-0.6,0.9-1.4,1.3-2.3,1.3c-1.2,0-2-0.4-2.6-1.3c-0.6-0.9-0.9-2.2-0.9-3.9L19.9,20.2L19.9,20.2z M22.8,21c0,1.1,0.1,1.8,0.3,2.3
	c0.2,0.4,0.6,0.6,1.2,0.6c0.6,0,1-0.3,1.3-0.8v-5c-0.3-0.5-0.7-0.8-1.3-0.8c-0.5,0-0.9,0.2-1.2,0.6c-0.2,0.4-0.4,1.2-0.4,2.3V21z"/>
</svg>
