<?xml version="1.0" encoding="utf-8"?>
<!-- Generator: Adobe Illustrator 24.1.2, SVG Export Plug-In . SVG Version: 6.00 Build 0)  -->
<svg version="1.1" id="Layer_1" xmlns="http://www.w3.org/2000/svg" xmlns:xlink="http://www.w3.org/1999/xlink" x="0px" y="0px"
	 viewBox="0 0 750 650" style="enable-background:new 0 0 750 650;" xml:space="preserve">
<style type="text/css">
	.st0{fill:#E6E6E6;}
</style>
<ellipse class="st0" cx="452.6" cy="391.4" rx="186.2" ry="186.8"/>
<path class="st0" d="M710.5,126.5c0.2-0.9,0.5-19.7,0.5-19.7c0-7.6-6.1-13.7-13.6-13.7H637c-6.5,0-11.8,4.8-13.1,11l-21-71
	c-3.2-7.1-18.8-18.6-28.2-21.2C546,3.9,499.3,0,452.6,0s-93.5,3.9-122.1,11.9c-9.4,2.6-25,14.1-28.2,21.2l-26.2,88.6h-23.2v-15.9
	c0-14.1-11.4-25.5-25.5-25.6H114.2c-14.1,0-25.5,11.4-25.5,25.5l0,0v15.9h-25C28.5,121.7,0,150.4,0,185.6v354.9
	c0,35.3,28.5,63.9,63.8,63.9h242.7c42.9,29.7,93.9,45.6,146.1,45.6c54.2,0,104.5-16.8,146.1-45.5h87.6c35.2,0,63.8-28.6,63.8-63.9
	V185.7C750,159.8,734.4,136.4,710.5,126.5 M452.6,626.5c-129.3,0-234.4-105.5-234.4-235.1s105.1-235.1,234.4-235.1
	c129.2,0,234.4,105.5,234.4,235.1S581.8,626.5,452.6,626.5"/>
</svg>
