<?xml version="1.0" encoding="utf-8"?>
<!-- Generator: Adobe Illustrator 27.5.0, SVG Export Plug-In . SVG Version: 6.00 Build 0)  -->
<svg version="1.1" id="Layer_1" xmlns="http://www.w3.org/2000/svg" xmlns:xlink="http://www.w3.org/1999/xlink" x="0px" y="0px"
	 viewBox="0 0 20 19.7" style="enable-background:new 0 0 20 19.7;" xml:space="preserve">
<style type="text/css">
	.st0{fill:#1A1A1A;}
</style>
<path class="st0" d="M10,0C4.5,0,0,4.5,0,10c0,4.7,3.2,8.6,7.6,9.7c0-0.1-0.1-0.3-0.1-0.5v-1.7c-0.4,0-1.1,0-1.3,0
	c-0.7,0-1.3-0.3-1.6-0.8c-0.3-0.6-0.4-1.5-1.2-2.1c-0.2-0.2-0.1-0.4,0.2-0.4c0.5,0.1,0.9,0.5,1.3,1c0.4,0.5,0.6,0.6,1.3,0.6
	c0.4,0,0.9,0,1.4-0.1C8,15,8.5,14.4,9.1,14.1c-3.3-0.3-4.9-2-4.9-4.2c0-1,0.4-1.9,1.1-2.7C5,6.4,4.8,4.8,5.4,4.2
	c1.5,0,2.4,1,2.6,1.2C8.7,5.1,9.6,5,10.4,5c0.9,0,1.7,0.1,2.4,0.4c0.2-0.3,1.1-1.2,2.6-1.2c0.6,0.6,0.3,2.2,0.1,3
	c0.7,0.8,1.1,1.7,1.1,2.7c0,2.2-1.6,3.9-4.9,4.2c0.9,0.5,1.6,1.8,1.6,2.8v2.3c0,0.1,0,0.1,0,0.2c3.9-1.4,6.7-5.1,6.7-9.4
	C20,4.5,15.5,0,10,0z"/>
</svg>
